<?xml version="1.0" encoding="UTF-8" standalone="no"?>
<!DOCTYPE svg PUBLIC "-//W3C//DTD SVG 1.1//EN" "http://www.w3.org/Graphics/SVG/1.1/DTD/svg11.dtd">
<svg width="100%" height="100%" viewBox="0 0 310 265" version="1.1" xmlns="http://www.w3.org/2000/svg" xmlns:xlink="http://www.w3.org/1999/xlink" xml:space="preserve" xmlns:serif="http://www.serif.com/" style="fill-rule:evenodd;clip-rule:evenodd;stroke-linejoin:round;stroke-miterlimit:2;">
    <g transform="matrix(1,0,0,1,-24.6854,-735.93)">
        <g transform="matrix(1.11294,0,0,1.11294,-94.0177,-118.493)">
            <path d="M130.257,1005.64L130.257,855.733L106.657,855.733L218.373,767.715L385.088,855.733L362.971,855.733L362.971,1005.64L130.257,1005.64Z" style="fill:rgb(46,38,109);"/>
            <clipPath id="_clip1">
                <path d="M130.257,1005.64L130.257,855.733L106.657,855.733L218.373,767.715L385.088,855.733L362.971,855.733L362.971,1005.64L130.257,1005.64Z"/>
            </clipPath>
            <g clip-path="url(#_clip1)">
                <g transform="matrix(1,0,0,0.71265,-18.6685,265.593)">
                    <path d="M334.353,894.007C334.353,866.974 318.712,845.027 299.447,845.027L229.635,845.027C210.37,845.027 194.73,866.974 194.73,894.007L194.73,1042.72L334.353,1042.72L334.353,894.007Z" style="fill:rgb(250,250,250);"/>
                </g>
                <g transform="matrix(1,0,0,1,7.69505,49.9776)">
                    <g transform="matrix(126.633,0,0,126.633,277.225,949.331)">
                    </g>
                    <text x="192.761px" y="949.331px" style="font-family:'Arial-Black', 'Arial', sans-serif;font-weight:900;font-size:126.633px;fill:rgb(222,29,141);">£</text>
                </g>
            </g>
        </g>
    </g>
</svg>
