<?xml version="1.0" encoding="UTF-8" standalone="no"?>
<!DOCTYPE svg PUBLIC "-//W3C//DTD SVG 1.1//EN" "http://www.w3.org/Graphics/SVG/1.1/DTD/svg11.dtd">
<svg width="100%" height="100%" viewBox="0 0 1618 1618" version="1.1" xmlns="http://www.w3.org/2000/svg" xmlns:xlink="http://www.w3.org/1999/xlink" xml:space="preserve" xmlns:serif="http://www.serif.com/" style="fill-rule:evenodd;clip-rule:evenodd;stroke-linejoin:round;stroke-miterlimit:2;">
    <g transform="matrix(1,0,0,1,0,-1824.76)">
        <g transform="matrix(2,0,0,2,0,1822.5)">
            <g transform="matrix(1.61774,0,0,-1.61774,0,808.85)">
                <path d="M313.096,89.048C313.724,86.456 316.698,85.033 318.885,86.901C321.077,88.772 322.043,93.731 320.969,96.292C320.693,96.95 319.889,97.102 319.355,96.765C318.616,98.573 317.052,100.192 315.059,98.582C313.973,97.706 313.552,95.615 313.265,94.329C312.898,92.689 312.695,90.706 313.096,89.048ZM315.614,94.379C315.726,95.029 315.852,95.74 316.118,96.343C317.019,98.379 318.112,96.545 318.531,95.338C318.547,95.291 318.576,95.26 318.601,95.222C318.295,94.051 318.185,92.825 317.843,91.658C317.558,90.684 316.721,87.539 315.668,89.779C315.125,90.933 315.406,93.169 315.614,94.379ZM282.618,379.941C283.174,381.235 283.889,382.431 284.761,383.53C286.199,385.986 288.349,386.431 291.21,384.864C292.241,382.766 295.614,383.448 295.286,385.945C294.557,391.489 296.403,397.955 302.09,400.253C307.005,402.238 312.968,399.783 314.79,394.811C315.603,392.592 318.634,393.702 318.551,395.809C318.391,399.891 322.356,402.669 326.175,402.469C329.36,402.301 332.35,400.202 334.725,398.253C339.632,394.227 343.44,388.892 345.995,383.105C350.541,372.812 352.349,359.465 347.054,349.15C346.684,348.43 347.784,347.855 348.261,348.459C358.153,361.009 351.914,382.504 343.382,394.117C339.171,399.848 332.726,406.997 324.902,406.551C320.801,406.318 317.34,403.999 315.683,400.638C312.121,404.411 306.48,406.063 301.308,404.473C295.128,402.573 291.184,396.454 290.726,390.177C288.394,390.811 285.725,390.155 283.386,388.326C278.278,384.329 275.977,377.461 276.66,371.189C277,368.063 281.778,368.711 281.486,371.825C281.22,374.659 281.479,377.302 282.618,379.941ZM347.326,343.983C348.862,346.04 345.683,348.484 344.16,346.411C337.8,337.758 331.449,328.282 321.261,323.799C311.696,319.59 298.829,320.182 288.821,322.627C279.034,325.018 266.809,331.418 269.735,343.474C271.635,351.304 281.512,357.552 280.693,365.86C280.586,366.949 278.985,366.894 278.823,365.855C278.254,362.228 277.308,359.163 274.9,356.302C273.006,354.052 270.755,352.116 269.005,349.739C266.456,346.276 265.291,342.516 265.984,338.22C267.635,327.983 276.1,320.806 285.792,318.414C296.868,315.68 310.384,315.712 321.094,319.89C332.406,324.305 340.288,334.555 347.326,343.983ZM291.887,374.472C292.248,374.076 293.155,374.264 292.985,374.923C292.45,376.992 290.919,383.391 287.547,381.241C284.965,379.594 284.428,374.741 285.165,372.065C285.918,369.333 289.162,366.656 292.021,368.419C293.84,369.54 294.817,374.008 291.855,374.296C291.284,374.352 290.637,373.842 290.778,373.213C290.995,372.239 291.436,370.73 289.743,371.004C288.071,371.275 287.772,373.407 287.839,374.77C287.877,375.542 287.994,376.355 288.227,377.093C288.337,377.44 288.472,377.796 288.641,378.119C288.72,378.246 288.799,378.373 288.878,378.499C289.36,377.96 289.741,377.129 290.14,376.562C290.668,375.809 291.268,375.152 291.887,374.472ZM309.842,373.446C314.185,374.466 315.127,379.829 314.079,383.537C313.76,384.666 312.142,384.243 311.976,383.259C311.657,381.367 312.095,378.778 310.651,377.246C308.15,374.594 305.413,378 304.918,380.33C304.47,382.437 304.877,384.437 306.18,386.168C307.313,387.672 308.318,388.69 309.86,386.366C310.425,385.515 310.584,384.224 310.934,383.269C311.145,382.693 311.918,382.893 312.028,383.413C312.701,386.594 310.386,391.472 306.571,389.585C303.202,387.918 301.238,383.127 301.822,379.534C302.431,375.789 305.912,372.524 309.842,373.446ZM335.537,385.091C335.308,386.783 334.499,388.218 332.934,389.015C331.202,389.896 329.425,389.56 328.016,388.269C326.478,386.859 324.348,385.136 323.849,383.025C322.899,379.008 325.767,374.003 330.217,374.107C333.336,374.18 336.153,377.574 334.652,380.327C334.721,380.353 334.791,380.375 334.856,380.42C336.046,381.246 335.708,383.833 335.537,385.091ZM329.194,378.279C327.346,379.389 326.876,382.005 328.169,383.595C329.027,384.651 330.419,386.955 331.874,386.123C332.401,385.821 332.902,384.941 333.106,384.446C333.284,383.915 333.404,383.372 333.465,382.817C333.396,382.35 333.546,382.028 333.874,381.826C333.717,381.734 333.614,381.61 333.546,381.47C333.076,381.523 332.602,381.021 332.633,380.535C332.777,378.335 331.145,377.106 329.194,378.279ZM292.074,344.93C295.597,340.645 298.429,339.505 303.861,339.372C307.101,339.293 310.083,338.771 313.245,338.129C315.026,337.768 316.903,337.216 318.684,337.894C323.12,339.581 333.611,352.446 328.224,357.183C327.74,357.608 327.124,357.182 326.995,356.67C326.375,354.199 326.811,351.722 325.825,349.224C324.715,346.41 322.308,342.729 319.814,340.937C316.171,338.319 312.176,340.898 308.516,341.769C304.86,342.638 300.808,342.82 297.699,344.884C296.61,345.607 294.57,347.004 294.075,348.104C294.258,350.129 294.441,352.153 294.623,354.178C295.439,354.85 296.286,355.48 297.166,356.067C300.488,358.342 303.211,358.385 306.799,359.343C309.078,359.951 310.398,361.59 312.67,362.233C317.244,363.529 322.939,361.957 325.459,357.672C326.002,356.749 327.524,357.637 327.084,358.597C325.107,362.912 321.328,365.322 316.663,365.996C310.931,366.823 308.508,363.184 303.304,362.185C295.455,360.679 285.332,353.13 292.074,344.93ZM429.231,235.02C430.091,233.887 430.95,232.753 431.813,231.623C432.649,230.528 434.429,231.71 433.598,232.831C432.468,234.354 431.349,235.885 430.22,237.408C429.879,237.867 429.16,238.093 428.668,237.707C427.697,236.945 426.913,235.925 426.487,234.761C426.05,233.567 425.72,231.872 426.782,230.937C427.371,230.419 428.441,230.565 428.768,231.328C429.136,232.189 428.767,232.905 428.856,233.791C428.901,234.236 429.028,234.648 429.231,235.02ZM494.863,239.28C494.861,238.302 494.874,237.331 494.916,236.354C494.992,234.581 497.742,234.764 497.666,236.537C497.564,238.923 498.084,242.888 495.404,244.107C492.445,245.453 490.716,241.627 490.72,239.32C490.723,237.842 493.142,237.268 493.661,238.729C493.881,239.35 493.977,240.066 494.24,240.662C494.253,240.691 494.526,241.142 494.51,241.128C494.605,241.186 494.708,241.225 494.809,241.269C494.821,241.241 494.827,241.218 494.845,241.184C494.858,241 494.863,240.816 494.861,240.632C494.87,240.182 494.864,239.731 494.863,239.28ZM465.634,191.177C462.665,190.581 459.695,189.983 456.726,189.382C455.573,189.149 454.871,188.058 455.542,186.96C457.108,184.396 459.543,181.342 462.937,181.906C464.447,182.157 465.727,183.092 466.382,184.486C467.1,186.015 466.885,187.469 466.516,188.999C467.314,189.669 466.838,191.419 465.634,191.177ZM451.867,177.462C451.484,177.935 450.531,177.762 450.632,177.037C451.716,169.271 460.676,169.471 464.812,174.323C469.358,170.526 477.258,172.295 477.534,179.205C477.599,180.838 475.005,181.306 474.403,179.834C472.926,176.218 468.985,173.466 465.933,177.812C465.259,178.774 463.679,178.748 463.162,177.628C460.556,171.99 455.196,173.35 451.867,177.462ZM426.604,181.658C423.84,183.738 418.373,186.309 415.009,184.43C414.186,183.971 414.44,182.803 415.143,182.401C416.576,181.581 418.388,181.757 419.983,181.448C421.815,181.094 423.628,180.463 425.386,179.841C426.454,179.464 427.701,180.833 426.604,181.658ZM425.64,176.273C423.973,175.087 422.307,173.949 420.567,172.872C419.044,171.93 417.111,171.1 416.357,169.391C415.964,168.501 416.59,167.188 417.706,167.364C419.541,167.654 420.69,169.016 421.982,170.259C423.54,171.759 425.128,173.191 426.792,174.571C427.789,175.398 426.739,177.055 425.64,176.273ZM440.816,187.84C443.85,189.05 445.188,193.163 443.251,195.848C442.3,197.166 440.658,197.94 439.04,197.899C437.741,197.866 436.716,197.247 436.024,196.31C434.592,195.449 433.668,193.567 433.888,191.882C434.308,188.654 437.81,186.642 440.816,187.84ZM483.588,204.986C482.646,204.925 481.793,204.342 481.344,203.528C479.903,202.863 478.752,201.533 478.483,199.943C478.005,197.132 480.196,194.619 482.935,194.239C486.185,193.787 488.878,196.067 489.022,199.335C489.156,202.353 486.668,205.186 483.588,204.986ZM483.513,199.878C483.508,199.876 483.502,199.874 483.497,199.872C483.527,199.894 483.55,199.923 483.584,199.942C483.547,199.912 483.532,199.896 483.513,199.878ZM483.14,199.32C483.141,199.323 483.141,199.324 483.142,199.327C483.144,199.322 483.147,199.314 483.149,199.308C483.151,199.072 483.145,199.184 483.14,199.32ZM16.582,360.694C17.463,361.794 18.469,362.757 19.603,363.584C21.642,365.57 23.832,365.427 26.174,363.156C26.61,360.859 30.044,360.621 30.391,363.115C31.161,368.654 34.66,374.396 40.753,375.099C46.018,375.707 51.115,371.755 51.549,366.478C51.743,364.123 54.961,364.387 55.441,366.44C56.371,370.418 60.932,372.043 64.56,370.834C67.586,369.826 69.911,367.007 71.683,364.498C75.343,359.312 77.595,353.156 78.521,346.899C80.167,335.767 78.363,322.42 70.516,313.884C69.969,313.288 70.876,312.441 71.496,312.897C84.369,322.365 84.067,344.746 78.929,358.209C76.393,364.853 72.08,373.458 64.419,375.108C60.403,375.973 56.451,374.657 53.959,371.858C51.529,376.442 46.53,379.533 41.121,379.375C34.659,379.187 29.23,374.336 27.12,368.407C25.04,369.637 22.293,369.715 19.552,368.573C13.565,366.078 9.521,360.068 8.513,353.84C8.01,350.736 12.788,350.092 13.334,353.171C13.831,355.974 14.783,358.453 16.582,360.694ZM24.064,352.959C24.307,352.48 25.232,352.421 25.243,353.101C25.277,355.238 25.502,361.813 21.68,360.637C18.752,359.736 16.944,355.2 16.944,352.424C16.944,349.591 19.36,346.148 22.584,347.087C24.636,347.685 26.765,351.732 23.986,352.798C23.451,353.003 22.692,352.683 22.66,352.039C22.611,351.043 22.635,349.471 21.075,350.185C19.536,350.89 19.814,353.026 20.241,354.322C20.483,355.056 20.812,355.808 21.233,356.458C21.43,356.763 21.655,357.071 21.904,357.337C22.014,357.438 22.124,357.539 22.234,357.641C22.555,356.993 22.702,356.09 22.935,355.437C23.245,354.571 23.648,353.778 24.064,352.959ZM41.101,347.197C45.559,347.026 47.892,351.946 47.868,355.798C47.86,356.972 46.188,356.994 45.766,356.09C44.955,354.35 44.69,351.738 42.89,350.645C39.775,348.753 38.042,352.764 38.184,355.142C38.312,357.292 39.235,359.113 40.952,360.435C42.444,361.584 43.683,362.298 44.553,359.647C44.871,358.677 44.681,357.389 44.765,356.376C44.815,355.765 45.613,355.752 45.857,356.224C47.352,359.112 46.416,364.43 42.238,363.625C38.547,362.913 35.379,358.816 34.988,355.197C34.579,351.426 37.067,347.352 41.101,347.197ZM68.967,351.593C69.196,353.285 68.797,354.883 67.5,356.067C66.065,357.378 64.262,357.526 62.56,356.656C60.704,355.706 58.192,354.61 57.15,352.708C55.167,349.088 56.601,343.501 60.919,342.418C63.944,341.659 67.563,344.183 66.848,347.236C66.921,347.243 66.994,347.245 67.069,347.271C68.436,347.751 68.797,350.335 68.967,351.593ZM61.041,346.712C59.555,348.273 59.797,350.92 61.466,352.109C62.574,352.899 64.528,354.751 65.71,353.561C66.137,353.131 66.387,352.149 66.452,351.618C66.483,351.059 66.454,350.503 66.365,349.952C66.174,349.519 66.233,349.17 66.496,348.887C66.32,348.841 66.187,348.749 66.085,348.631C65.646,348.807 65.055,348.449 64.957,347.973C64.51,345.813 62.61,345.063 61.041,346.712ZM16.392,324.43C18.65,319.362 21.077,317.51 26.278,315.938C29.381,315 32.117,313.705 34.994,312.246C36.615,311.424 38.278,310.393 40.175,310.573C44.899,311.02 58.432,320.634 54.498,326.632C54.145,327.171 53.438,326.924 53.177,326.464C51.923,324.247 51.684,321.744 50.071,319.598C48.253,317.18 44.953,314.271 42.073,313.206C37.865,311.651 34.7,315.199 31.402,317.011C28.109,318.821 24.251,320.074 21.803,322.889C20.945,323.875 19.35,325.765 19.165,326.956C19.879,328.86 20.593,330.764 21.308,332.667C22.273,333.098 23.257,333.48 24.261,333.812C28.069,335.122 30.705,334.44 34.418,334.41C36.777,334.39 38.486,335.619 40.847,335.636C45.6,335.669 50.672,332.64 51.963,327.839C52.241,326.805 53.944,327.256 53.776,328.299C53.017,332.984 50.014,336.312 45.696,338.201C40.39,340.523 37.087,337.658 31.805,338.079C23.838,338.713 12.073,334.126 16.392,324.43ZM263.478,269.775C263.51,269.716 263.542,269.656 263.574,269.597C264.475,267.926 267.368,267.401 268.36,269.341C269.413,271.4 269.191,273.965 269.479,276.241C269.875,279.374 270.216,282.783 271.217,285.772C272.496,289.597 276.416,290.084 278.643,286.685C279.353,285.602 279.968,284.437 280.603,283.31C282.145,280.575 283.243,277.555 284.885,274.902C285.244,274.321 286.166,274.222 286.596,274.667C286.893,274.53 287.245,274.473 287.647,274.539C294.729,275.716 301.853,275.785 309.003,275.455C308.99,275.419 308.962,275.39 308.954,275.351C308.836,274.769 308.817,274.171 308.775,273.579C308.733,272.99 309.239,272.398 309.841,272.392C310.444,272.387 311.004,272.827 311.027,273.458C311.049,274.052 311.1,274.647 311.046,275.239C311.042,275.282 311.015,275.321 311.003,275.363C317.422,275.048 323.875,274.82 330.187,273.586C330.813,272.593 332.724,272.699 333.274,273.98C334.4,276.605 342.292,295.454 347.565,288.764C349.474,286.342 348.622,279.662 348.766,276.613C348.902,273.698 348.85,271.104 349.854,268.367C350.359,266.99 352.696,267.234 353.032,268.611C354.334,273.945 353.199,281.12 352.43,286.555C351.926,290.113 350.084,294.249 346.058,294.832C342.034,295.416 338.844,291.546 336.609,288.765C334.052,285.584 331.953,281.87 330.773,277.922C324.325,279.971 316.858,279.616 310.209,279.749C302.353,279.905 294.602,279.587 286.896,277.968C286.732,277.933 286.59,277.879 286.458,277.817C285.599,281.289 283.417,284.589 281.647,287.558C280.033,290.264 277.902,293.104 274.36,292.681C265.885,291.669 265.462,278.505 263.57,272.254C263.129,271.529 263.022,270.621 263.478,269.775ZM276.455,277.788C277.174,276.561 277.89,275.333 278.612,274.107C279.312,272.92 281.221,273.882 280.529,275.094C279.589,276.741 278.661,278.394 277.721,280.041C277.438,280.538 276.751,280.848 276.216,280.523C275.161,279.883 274.261,278.963 273.699,277.859C273.122,276.726 272.593,275.082 273.536,274.027C274.059,273.443 275.139,273.46 275.554,274.178C276.023,274.989 275.741,275.744 275.935,276.613C276.033,277.05 276.208,277.444 276.455,277.788ZM342.126,274.182C342.006,273.212 341.903,272.246 341.829,271.271C341.692,269.501 344.445,269.355 344.581,271.124C344.765,273.505 345.754,277.38 343.239,278.91C340.462,280.6 338.288,277.008 338.017,274.716C337.843,273.249 340.177,272.39 340.866,273.779C341.159,274.369 341.339,275.069 341.672,275.628C341.689,275.656 342.013,276.07 341.996,276.059C342.097,276.106 342.204,276.132 342.309,276.164C342.318,276.134 342.321,276.111 342.335,276.074C342.325,275.89 342.309,275.707 342.285,275.524C342.24,275.076 342.181,274.629 342.126,274.182ZM369.347,240.995C368.402,250.353 363.224,261.573 354.323,266.177C352.805,266.963 351.317,265.321 352.378,263.917C357.55,257.064 362.147,251.627 363.595,242.821C365.108,233.617 363.833,223.796 360.184,215.216C352.931,198.162 336.349,188.743 318.831,185.635C310.276,184.116 302.285,184.279 293.698,184.957C285.999,185.566 278.528,184.754 271.178,187.64C258.552,192.596 242.077,201.988 238.384,215.976C233.391,234.889 243.677,259.754 263.111,265.641C264.726,266.131 264.244,268.576 262.543,268.237C243.823,264.503 233.907,245.027 232.879,227.18C232.383,218.559 234.413,209.34 240.486,202.944C245.862,197.28 252.584,192.288 259.348,188.416C267.263,183.884 274.904,180.923 284.076,180.726C293.82,180.518 303.482,179.562 313.208,180.649C332.719,182.831 352.278,190.713 362.222,208.761C367.446,218.241 370.427,230.289 369.347,240.995ZM307.363,229.913C304.343,229.676 301.323,229.436 298.304,229.194C297.131,229.1 296.304,228.101 296.839,226.931C298.088,224.198 300.14,220.876 303.577,221.03C305.106,221.099 306.489,221.875 307.306,223.181C308.201,224.613 308.161,226.082 307.978,227.645C308.85,228.216 308.586,230.009 307.363,229.913ZM292.056,217.939C291.732,218.455 290.765,218.397 290.779,217.666C290.928,209.826 299.848,208.954 304.534,213.278C308.594,208.965 316.649,209.778 317.748,216.605C318.007,218.219 315.487,218.993 314.714,217.604C312.816,214.19 308.574,211.928 306.064,216.608C305.508,217.643 303.937,217.806 303.29,216.756C300.029,211.469 294.87,213.46 292.056,217.939ZM267.475,225.122C264.979,227.517 259.858,230.722 256.294,229.259C255.422,228.901 255.535,227.711 256.185,227.228C257.51,226.243 259.329,226.201 260.876,225.705C262.652,225.134 264.378,224.291 266.048,223.464C267.064,222.961 268.466,224.172 267.475,225.122ZM265.875,219.89C264.078,218.912 262.288,217.981 260.432,217.12C258.808,216.367 256.789,215.773 255.836,214.166C255.34,213.329 255.805,211.951 256.933,211.993C258.79,212.062 260.094,213.277 261.525,214.357C263.251,215.659 264.998,216.892 266.816,218.063C267.904,218.765 267.06,220.535 265.875,219.89ZM335.554,225.164C336.931,225.974 338.367,226.765 339.819,227.434C341.167,228.054 343.09,228.07 344.145,229.121C344.885,229.859 344.565,230.863 343.695,231.284C342.171,232.023 339.822,230.86 338.407,230.176C336.678,229.342 335.356,228.161 334.29,226.57C333.764,225.784 334.695,224.658 335.554,225.164ZM335.958,218.293C337.244,218.191 338.384,217.873 339.474,217.168C340.6,216.439 341.39,215.289 342.886,215.73C343.608,215.943 344.221,216.532 344.243,217.327C344.245,217.41 344.248,217.492 344.25,217.575C344.269,218.255 343.959,219.092 343.315,219.427C341.09,220.586 338.625,221.215 336.105,221.045C334.381,220.929 334.14,218.437 335.958,218.293ZM282.323,229.563C285.48,230.402 287.299,234.326 285.697,237.223C284.91,238.645 283.372,239.61 281.761,239.762C280.467,239.885 279.375,239.392 278.577,238.545C277.052,237.861 275.911,236.103 275.927,234.403C275.959,231.148 279.196,228.732 282.323,229.563ZM326.836,241.479C325.894,241.531 324.978,241.054 324.434,240.3C322.924,239.812 321.623,238.628 321.165,237.082C320.356,234.348 322.231,231.592 324.905,230.887C328.077,230.051 331.023,231.993 331.557,235.22C332.05,238.201 329.918,241.31 326.836,241.479ZM326.152,236.417C326.147,236.415 326.141,236.414 326.135,236.413C326.168,236.431 326.194,236.457 326.23,236.472C326.19,236.447 326.173,236.433 326.152,236.417ZM325.715,235.908C325.716,235.91 325.717,235.911 325.718,235.914C325.72,235.909 325.722,235.9 325.723,235.894C325.697,235.659 325.704,235.772 325.715,235.908ZM422.565,81.459C423.086,82.768 424.853,85.294 425.696,86.416C427.067,88.91 430.194,87.466 433.097,85.978C434.184,83.908 437.537,84.681 437.142,87.169C436.263,92.691 437.934,99.204 443.557,101.655C448.416,103.772 454.443,101.479 456.399,96.558C457.271,94.362 460.271,95.553 460.132,97.657C459.861,101.733 463.749,104.618 467.572,104.521C470.761,104.44 473.807,102.422 476.234,100.538C481.248,96.647 485.198,91.416 487.909,85.7C492.731,75.533 494.899,62.241 489.885,51.786C489.535,51.057 490.65,50.511 491.11,51.128C500.66,63.94 493.842,85.259 484.999,96.637C480.635,102.252 473.999,109.225 466.19,108.568C462.096,108.223 458.7,105.812 457.134,102.408C453.472,106.083 447.788,107.581 442.661,105.852C436.535,103.786 432.757,97.563 432.469,91.276C430.121,91.846 427.471,91.118 425.182,89.226C420.184,85.093 418.069,78.165 418.921,71.914C419.346,68.798 422.159,68.833 421.782,71.938C421.44,74.763 421.498,78.791 422.565,81.459ZM490.297,46.628C491.777,48.726 488.533,51.084 487.066,48.97C480.943,40.148 474.85,30.504 464.787,25.747C455.339,21.281 442.461,21.525 432.391,23.698C422.542,25.824 410.149,31.891 412.748,44.022C414.436,51.901 424.141,58.414 423.097,66.697C422.96,67.782 421.362,67.684 421.228,66.641C420.757,62.999 419.895,59.91 417.564,56.985C415.732,54.685 413.534,52.689 411.849,50.265C409.395,46.735 408.332,42.944 409.14,38.669C411.068,28.48 419.723,21.535 429.477,19.405C440.623,16.972 454.133,17.369 464.725,21.836C475.914,26.554 483.516,37.013 490.297,46.628ZM434.054,75.608C434.426,75.221 435.328,75.434 435.14,76.088C434.549,78.142 432.846,84.497 429.533,82.257C426.996,80.541 426.59,75.674 427.4,73.019C428.226,70.309 431.542,67.721 434.352,69.56C436.14,70.73 436.996,75.223 434.027,75.431C433.455,75.471 432.822,74.944 432.979,74.319C433.223,73.352 433.705,71.855 432.004,72.083C430.326,72.309 429.97,74.432 430,75.796C430.016,76.57 430.112,77.385 430.325,78.129C430.425,78.479 430.55,78.838 430.71,79.165C430.786,79.295 430.862,79.424 430.938,79.553C431.434,79.027 431.838,78.206 432.251,77.649C432.8,76.911 433.417,76.271 434.054,75.608ZM452.03,75.068C456.345,76.205 457.141,81.591 455.993,85.269C455.643,86.39 454.038,85.922 453.898,84.935C453.63,83.034 454.139,80.459 452.736,78.888C450.308,76.169 447.48,79.5 446.922,81.816C446.417,83.91 446.77,85.92 448.026,87.686C449.118,89.22 450.094,90.265 451.7,87.983C452.287,87.148 452.481,85.861 452.857,84.916C453.083,84.346 453.85,84.566 453.946,85.09C454.533,88.288 452.087,93.102 448.325,91.112C445.002,89.355 443.168,84.512 443.849,80.936C444.559,77.21 448.127,74.039 452.03,75.068ZM477.401,87.403C477.126,89.088 476.279,90.501 474.693,91.255C472.938,92.089 471.17,91.705 469.797,90.376C468.298,88.925 466.215,87.145 465.773,85.022C464.932,80.98 467.934,76.055 472.38,76.279C475.496,76.436 478.22,79.905 476.646,82.617C476.714,82.645 476.783,82.668 476.847,82.715C478.014,83.573 477.606,86.15 477.401,87.403ZM471.244,80.421C469.367,81.481 468.827,84.083 470.076,85.708C470.906,86.787 472.234,89.128 473.712,88.335C474.246,88.048 474.772,87.182 474.988,86.692C475.181,86.167 475.315,85.627 475.392,85.074C475.335,84.604 475.494,84.287 475.827,84.094C475.673,83.998 475.573,83.871 475.509,83.729C475.037,83.769 474.577,83.255 474.622,82.77C474.824,80.574 473.226,79.302 471.244,80.421ZM435.039,46.082C438.677,41.893 441.539,40.83 446.973,40.844C450.214,40.852 453.209,40.411 456.387,39.856C458.177,39.543 460.068,39.042 461.83,39.767C466.218,41.573 476.358,54.717 470.845,59.307C470.349,59.719 469.745,59.277 469.63,58.761C469.078,56.274 469.58,53.81 468.662,51.286C467.629,48.443 465.321,44.698 462.877,42.839C459.306,40.124 455.243,42.594 451.561,43.366C447.883,44.136 443.827,44.209 440.664,46.187C439.556,46.88 437.479,48.222 436.954,49.308C437.082,51.337 437.21,53.366 437.337,55.395C438.135,56.089 438.965,56.741 439.828,57.352C443.088,59.716 445.809,59.833 449.369,60.887C451.631,61.557 452.907,63.23 455.16,63.935C459.698,65.354 465.432,63.937 468.067,59.721C468.635,58.813 470.133,59.742 469.667,60.69C467.575,64.95 463.731,67.257 459.05,67.804C453.298,68.477 450.974,64.773 445.799,63.634C437.994,61.917 428.079,54.096 435.039,46.082ZM144.295,414.022C144.316,413.958 144.337,413.893 144.359,413.829C144.954,412.028 147.712,411.006 149.026,412.743C150.422,414.587 150.652,417.151 151.332,419.342C152.268,422.358 153.198,425.656 154.704,428.425C156.632,431.968 160.576,431.764 162.177,428.028C162.687,426.838 163.089,425.583 163.518,424.363C164.56,421.401 165.114,418.236 166.268,415.337C166.521,414.703 167.411,414.444 167.912,414.807C168.18,414.621 168.517,414.503 168.924,414.499C176.103,414.422 183.13,413.248 190.113,411.677C190.093,411.643 190.062,411.62 190.047,411.582C189.829,411.03 189.706,410.444 189.561,409.868C189.417,409.296 189.812,408.625 190.404,408.514C190.997,408.404 191.625,408.739 191.758,409.357C191.883,409.938 192.037,410.515 192.087,411.108C192.091,411.151 192.071,411.193 192.066,411.237C198.332,409.808 204.646,408.458 210.646,406.142C211.09,405.055 212.99,404.826 213.754,405.992C215.321,408.38 226.379,425.563 230.405,418.057C231.862,415.339 229.859,408.91 229.468,405.883C229.094,402.989 228.59,400.443 229.102,397.573C229.359,396.129 231.703,395.962 232.274,397.259C234.486,402.285 234.62,409.547 234.81,415.033C234.934,418.625 233.842,423.019 229.979,424.295C226.118,425.571 222.303,422.316 219.617,419.968C216.545,417.282 213.83,413.99 211.98,410.309C205.988,413.451 198.573,414.404 192.049,415.694C184.341,417.218 176.653,418.256 168.783,418.005C168.616,418 168.466,417.971 168.325,417.933C168.085,421.501 166.512,425.132 165.286,428.364C164.17,431.31 162.566,434.478 159.005,434.679C150.483,435.16 147.771,422.272 144.817,416.446C144.258,415.809 143.993,414.934 144.295,414.022ZM158.47,419.649C158.964,418.316 159.455,416.981 159.953,415.649C160.435,414.358 162.481,414.972 162.012,416.286C161.374,418.072 160.748,419.862 160.11,421.647C159.918,422.185 159.295,422.611 158.712,422.384C157.561,421.938 156.515,421.189 155.769,420.199C155.004,419.184 154.195,417.658 154.94,416.455C155.353,415.788 156.419,415.617 156.954,416.252C157.557,416.969 157.411,417.761 157.754,418.583C157.926,418.996 158.167,419.353 158.47,419.649ZM222.506,404.647C222.219,403.712 221.95,402.779 221.706,401.832C221.263,400.113 223.948,399.489 224.391,401.207C224.986,403.52 226.637,407.163 224.427,409.108C221.987,411.257 219.22,408.099 218.553,405.89C218.126,404.475 220.275,403.222 221.195,404.47C221.586,404.999 221.886,405.657 222.312,406.15C222.333,406.175 222.724,406.526 222.705,406.518C222.813,406.546 222.923,406.553 223.032,406.566C223.036,406.535 223.035,406.512 223.042,406.474C223,406.294 222.952,406.117 222.897,405.941C222.774,405.507 222.638,405.077 222.506,404.647ZM242.286,366.947C242.988,376.327 241.082,388.552 233.121,394.638C231.763,395.676 230.012,394.319 230.811,392.751C234.709,385.102 238.288,378.946 238.178,370.022C238.062,360.696 235.095,351.247 230.006,343.436C219.889,327.907 201.92,321.524 184.128,321.518C175.439,321.515 167.599,323.068 159.261,325.234C151.787,327.176 144.289,327.68 137.554,331.803C125.986,338.885 111.401,351.006 110.204,365.423C108.585,384.917 123.05,407.607 143.213,410.016C144.889,410.216 144.84,412.708 143.106,412.67C124.022,412.258 110.862,394.809 106.738,377.416C104.745,369.013 105.137,359.582 110.001,352.224C114.307,345.71 120.056,339.622 126.041,334.629C133.045,328.786 140.052,324.539 149.049,322.746C158.608,320.841 167.955,318.215 177.721,317.59C197.314,316.336 217.948,320.686 230.887,336.724C237.683,345.148 241.483,356.217 242.286,366.947ZM180.556,367.118C177.541,367.411 174.526,367.702 171.511,367.99C170.34,368.102 169.351,367.263 169.674,366.017C170.427,363.108 171.868,359.479 175.28,359.031C176.797,358.832 178.294,359.355 179.326,360.499C180.458,361.753 180.674,363.207 180.767,364.778C181.724,365.187 181.777,367 180.556,367.118ZM163.396,357.997C163.167,358.561 162.205,358.673 162.091,357.95C160.87,350.204 169.501,347.791 174.869,351.231C178.115,346.276 186.189,345.672 188.461,352.203C188.998,353.747 186.652,354.949 185.649,353.715C183.184,350.685 178.613,349.198 176.957,354.243C176.591,355.359 175.072,355.794 174.251,354.873C170.119,350.236 165.386,353.095 163.396,357.997ZM140.444,369.356C138.404,372.15 133.921,376.198 130.155,375.379C129.234,375.179 129.139,373.988 129.694,373.398C130.827,372.197 132.612,371.839 134.048,371.08C135.697,370.209 137.249,369.077 138.75,367.972C139.663,367.3 141.254,368.248 140.444,369.356ZM137.956,364.484C136.016,363.834 134.092,363.229 132.114,362.705C130.383,362.246 128.291,362.013 127.073,360.597C126.439,359.86 126.656,358.422 127.775,358.266C129.615,358.01 131.111,358.979 132.708,359.793C134.634,360.775 136.57,361.684 138.564,362.521C139.758,363.022 139.235,364.912 137.956,364.484ZM207.488,357.526C208.985,358.083 210.536,358.612 212.083,359.017C213.518,359.392 215.414,359.073 216.636,359.924C217.494,360.521 217.354,361.566 216.571,362.133C215.199,363.126 212.683,362.39 211.17,361.964C209.323,361.443 207.815,360.511 206.488,359.131C205.833,358.449 206.553,357.178 207.488,357.526ZM206.687,350.689C207.936,350.365 209.003,349.853 209.953,348.968C210.935,348.055 211.512,346.784 213.062,346.958C213.81,347.041 214.516,347.515 214.677,348.294C214.693,348.375 214.71,348.456 214.727,348.537C214.864,349.203 214.705,350.081 214.129,350.524C212.141,352.053 209.823,353.102 207.312,353.374C205.594,353.56 204.922,351.148 206.687,350.689ZM155.839,371.14C159.094,371.416 161.57,374.962 160.497,378.094C159.97,379.631 158.624,380.85 157.065,381.281C155.811,381.627 154.651,381.332 153.717,380.637C152.096,380.23 150.665,378.697 150.385,377.021C149.849,373.81 152.615,370.867 155.839,371.14ZM201.748,375.111C200.829,375.327 199.844,375.017 199.177,374.369C197.605,374.152 196.118,373.213 195.397,371.771C194.124,369.219 195.489,366.178 197.999,365.018C200.977,363.642 204.217,365.04 205.305,368.125C206.31,370.974 204.753,374.408 201.748,375.111ZM200.192,370.246C200.186,370.245 200.18,370.245 200.174,370.245C200.21,370.257 200.24,370.278 200.278,370.286C200.234,370.269 200.215,370.258 200.192,370.246ZM199.672,369.821C199.674,369.823 199.675,369.824 199.677,369.826C199.677,369.821 199.678,369.812 199.678,369.806C199.611,369.579 199.638,369.689 199.672,369.821ZM451.591,340.956C451.034,342.251 450.32,343.447 449.447,344.546C448.009,347.002 445.86,347.447 442.998,345.88C441.967,343.782 438.594,344.464 438.923,346.961C439.652,352.505 437.806,358.971 432.118,361.268C427.204,363.254 421.241,360.799 419.419,355.826C418.606,353.608 415.575,354.718 415.657,356.824C415.818,360.906 411.853,363.685 408.034,363.484C404.849,363.317 401.858,361.217 399.483,359.269C394.576,355.243 390.769,349.907 388.214,344.121C383.668,333.827 381.86,320.481 387.155,310.166C387.525,309.446 386.424,308.871 385.948,309.475C376.055,322.024 382.295,343.52 390.827,355.133C395.037,360.864 401.482,368.013 409.306,367.567C413.408,367.333 416.868,365.015 418.526,361.654C422.087,365.427 427.729,367.078 432.9,365.488C439.08,363.589 443.024,357.47 443.483,351.193C445.814,351.826 448.483,351.171 450.822,349.341C455.931,345.345 458.232,338.476 457.549,332.205C457.208,329.079 452.431,329.727 452.723,332.841C452.989,335.675 452.73,338.318 451.591,340.956ZM386.883,304.999C385.347,307.055 388.526,309.5 390.049,307.427C396.408,298.774 402.76,289.298 412.948,284.815C422.513,280.606 435.38,281.197 445.388,283.642C455.175,286.034 467.4,292.434 464.474,304.49C462.574,312.32 452.696,318.568 453.516,326.876C453.623,327.965 455.223,327.91 455.386,326.871C455.954,323.244 456.9,320.179 459.309,317.318C461.203,315.068 463.454,313.132 465.203,310.755C467.752,307.292 468.918,303.531 468.225,299.236C466.573,288.998 458.109,281.822 448.417,279.43C437.341,276.696 423.825,276.727 413.115,280.906C401.803,285.32 393.921,295.57 386.883,304.999ZM442.322,335.488C441.961,335.091 441.053,335.28 441.224,335.939C441.758,338.008 443.289,344.407 446.662,342.257C449.244,340.61 449.781,335.756 449.044,333.08C448.291,330.349 445.047,327.672 442.188,329.435C440.369,330.556 439.392,335.024 442.354,335.312C442.924,335.368 443.572,334.858 443.431,334.229C443.213,333.255 442.772,331.746 444.466,332.02C446.137,332.29 446.436,334.423 446.37,335.786C446.332,336.558 446.214,337.371 445.981,338.109C445.872,338.456 445.737,338.812 445.568,339.134C445.489,339.261 445.409,339.388 445.33,339.515C444.849,338.976 444.467,338.145 444.069,337.577C443.54,336.825 442.941,336.168 442.322,335.488ZM424.366,334.462C420.023,335.482 419.081,340.845 420.129,344.552C420.449,345.682 422.066,345.259 422.232,344.275C422.552,342.382 422.113,339.794 423.558,338.262C426.058,335.61 428.795,339.016 429.29,341.346C429.738,343.453 429.332,345.453 428.028,347.184C426.895,348.688 425.891,349.706 424.348,347.382C423.784,346.531 423.624,345.24 423.274,344.284C423.063,343.709 422.291,343.908 422.181,344.429C421.507,347.61 423.823,352.488 427.637,350.601C431.006,348.934 432.971,344.142 432.386,340.549C431.778,336.805 428.297,333.54 424.366,334.462ZM399.353,341.436C399.418,341.39 399.487,341.369 399.556,341.343C398.056,338.59 400.873,335.195 403.991,335.123C408.442,335.019 411.309,340.024 410.36,344.041C409.861,346.152 407.73,347.875 406.193,349.284C404.784,350.576 403.007,350.912 401.275,350.03C399.709,349.234 398.901,347.799 398.672,346.107C398.501,344.849 398.162,342.262 399.353,341.436ZM401.575,341.551C401.607,342.036 401.133,342.539 400.663,342.485C400.595,342.626 400.491,342.75 400.334,342.841C400.662,343.044 400.813,343.365 400.743,343.833C400.804,344.388 400.924,344.931 401.103,345.462C401.306,345.957 401.808,346.837 402.335,347.138C403.79,347.971 405.181,345.667 406.039,344.611C407.332,343.021 406.862,340.405 405.015,339.294C403.064,338.122 401.432,339.35 401.575,341.551ZM442.135,305.946C438.612,301.661 435.78,300.52 430.347,300.387C427.107,300.308 424.125,299.786 420.963,299.145C419.183,298.784 417.305,298.232 415.524,298.909C411.089,300.596 400.598,313.461 405.985,318.198C406.469,318.624 407.085,318.198 407.213,317.685C407.833,315.215 407.398,312.737 408.383,310.24C409.493,307.426 411.901,303.744 414.395,301.952C418.038,299.335 422.032,301.914 425.693,302.784C429.348,303.654 433.4,303.836 436.51,305.899C437.598,306.622 439.638,308.02 440.133,309.119C439.951,311.144 439.768,313.169 439.586,315.194C438.77,315.866 437.922,316.496 437.043,317.083C433.72,319.358 430.998,319.401 427.41,320.358C425.131,320.967 423.81,322.605 421.538,323.249C416.965,324.545 411.27,322.973 408.75,318.688C408.207,317.764 406.685,318.653 407.125,319.613C409.101,323.927 412.881,326.338 417.546,327.011C423.278,327.839 425.7,324.199 430.905,323.201C438.754,321.695 448.876,314.146 442.135,305.946ZM38.701,140.455C39.134,141.795 39.733,143.053 40.499,144.229C41.701,146.808 43.8,147.452 46.795,146.161C48.018,144.168 51.312,145.163 50.752,147.618C49.507,153.07 50.74,159.68 56.187,162.5C60.894,164.936 67.061,163.05 69.34,158.27C70.357,156.137 73.271,157.526 72.992,159.616C72.45,163.665 76.137,166.802 79.958,166.96C83.145,167.091 86.319,165.281 88.866,163.563C94.128,160.014 98.418,155.058 101.504,149.536C106.993,139.713 110.042,126.594 105.735,115.829C105.435,115.078 106.584,114.608 107.002,115.254C115.677,128.674 107.453,149.491 97.872,160.255C93.143,165.567 86.058,172.082 78.31,170.905C74.248,170.289 71.02,167.656 69.684,164.156C65.785,167.579 60.014,168.695 55.014,166.628C49.039,164.158 45.685,157.697 45.816,151.405C43.435,151.817 40.839,150.915 38.682,148.875C33.97,144.418 32.321,137.364 33.588,131.183C34.22,128.103 38.916,129.196 38.334,132.269C37.804,135.065 37.814,137.721 38.701,140.455ZM106.49,110.71C107.827,112.901 104.433,115.038 103.11,112.832C97.589,103.621 92.152,93.592 82.428,88.175C73.299,83.09 60.433,82.475 50.241,83.973C40.272,85.437 27.503,90.665 29.287,102.942C30.446,110.916 39.695,118.061 38.102,126.256C37.894,127.33 36.306,127.125 36.241,126.076C36.014,122.411 35.359,119.271 33.229,116.197C31.554,113.78 29.494,111.642 27.975,109.112C25.761,105.426 24.953,101.572 26.044,97.361C28.647,87.323 37.746,80.969 47.619,79.495C58.902,77.81 72.356,79.106 82.628,84.269C93.477,89.722 100.365,100.665 106.49,110.71ZM48.441,135.878C48.838,135.516 49.723,135.789 49.492,136.429C48.766,138.439 46.643,144.666 43.487,142.21C41.07,140.329 40.989,135.447 41.974,132.851C42.979,130.202 46.46,127.841 49.141,129.863C50.847,131.15 51.402,135.69 48.425,135.699C47.852,135.701 47.256,135.133 47.454,134.52C47.762,133.571 48.343,132.109 46.631,132.224C44.941,132.337 44.444,134.433 44.383,135.795C44.348,136.568 44.389,137.388 44.552,138.145C44.629,138.5 44.73,138.867 44.868,139.204C44.935,139.338 45.002,139.472 45.069,139.606C45.599,139.114 46.056,138.322 46.506,137.794C47.103,137.095 47.761,136.496 48.441,135.878ZM66.413,136.537C70.642,137.958 71.078,143.386 69.688,146.979C69.264,148.074 67.693,147.501 67.62,146.506C67.479,144.592 68.158,142.056 66.863,140.395C64.622,137.521 61.578,140.656 60.867,142.929C60.224,144.985 60.441,147.015 61.577,148.86C62.564,150.463 63.469,151.571 65.223,149.401C65.864,148.607 66.144,147.336 66.582,146.418C66.845,145.865 67.596,146.136 67.657,146.664C68.03,149.894 65.268,154.534 61.647,152.299C58.449,150.323 56.941,145.369 57.859,141.846C58.816,138.176 62.587,135.25 66.413,136.537ZM90.906,150.535C90.52,152.198 89.58,153.551 87.947,154.197C86.14,154.913 84.402,154.412 83.12,152.994C81.721,151.447 79.762,149.532 79.463,147.384C78.893,143.295 82.216,138.581 86.637,139.101C89.736,139.465 92.223,143.108 90.471,145.709C90.537,145.741 90.604,145.769 90.665,145.82C91.773,146.754 91.194,149.298 90.906,150.535ZM85.228,143.158C83.285,144.091 82.572,146.651 83.71,148.356C84.466,149.487 85.636,151.912 87.163,151.219C87.715,150.968 88.297,150.139 88.546,149.665C88.773,149.153 88.943,148.624 89.056,148.077C89.031,147.605 89.211,147.299 89.556,147.128C89.409,147.022 89.317,146.889 89.263,146.743C88.79,146.752 88.365,146.207 88.442,145.727C88.79,143.55 87.28,142.173 85.228,143.158ZM51.392,106.483C55.301,102.546 58.227,101.676 63.648,102.052C66.881,102.276 69.899,102.036 73.107,101.693C74.913,101.5 76.834,101.126 78.544,101.967C82.802,104.062 92.043,117.852 86.236,122.064C85.715,122.443 85.141,121.961 85.061,121.439C84.675,118.921 85.34,116.495 84.593,113.916C83.751,111.011 81.699,107.12 79.384,105.103C76.002,102.156 71.783,104.349 68.058,104.874C64.337,105.397 60.285,105.199 56.996,106.963C55.845,107.58 53.683,108.781 53.088,109.829C53.08,111.863 53.072,113.896 53.064,115.929C53.814,116.674 54.599,117.38 55.419,118.047C58.514,120.623 61.221,120.921 64.703,122.21C66.915,123.029 68.077,124.784 70.278,125.637C74.711,127.356 80.528,126.323 83.437,122.293C84.065,121.424 85.497,122.451 84.969,123.366C82.597,127.477 78.609,129.523 73.901,129.757C68.117,130.044 66.046,126.194 60.958,124.713C53.284,122.479 43.913,114.016 51.392,106.483ZM327.011,80.266C325.401,79.419 322.249,80.099 320.5,80.213C316.25,80.491 312.055,81.104 307.828,81.58C303.444,82.073 298.981,81.4 294.544,81.671C289.932,81.953 285.434,83.108 280.833,83.153C271.832,83.24 263.155,85.243 254.268,86.289C253.633,86.363 236.354,89.655 237.642,91.872C238.086,92.638 238.156,93.674 237.329,94.254C237.146,94.382 239.821,97.827 239.777,97.789C241.425,99.218 244.492,99.405 246.579,99.551C247.503,99.615 248.427,99.587 249.351,99.515C253.488,98.354 258.051,97.785 259.629,97.465C261.988,96.961 262.335,100.546 260.094,101.128C257.177,101.886 254.213,102.528 251.356,103.491C250.575,103.754 246.559,105.864 245.835,104.672C246.224,105.312 246.35,105.96 246.16,106.598C246.518,106.695 247.001,106.873 247.643,107.154C248.253,107.28 248.813,107.53 249.322,107.906C250.536,108.419 251.638,109.107 252.903,109.537C256.906,110.898 261.082,110.793 265.229,110.283C267.575,109.995 268.739,113.691 266.337,114.439C262.657,115.585 258.887,116.634 255.258,117.919C252.65,118.842 244.715,120.943 250.921,124.341C253.41,125.703 256.798,127.213 259.497,127.386C264.284,127.692 268.154,125.492 272.813,124.025C274.312,123.554 275.283,125.761 273.767,126.312C267.062,128.75 260.075,129.11 253.037,128.012C248.245,127.264 245.045,124.252 245.646,119.251C245.708,118.736 246.084,118.256 246.566,118.065C249.303,116.978 251.999,115.808 254.693,114.635C252.181,114.144 249.699,113.326 247.175,112.168C243.991,110.708 240.052,109.398 241.762,105.824C241.388,104.487 241.914,103.362 243.001,102.414C241.185,102.074 239.481,101.456 237.985,100.434C235.173,98.513 231.755,95.288 234.237,92.473C233.601,90.641 234.101,88.925 236.136,87.888C237.075,87.409 237.971,87.306 238.786,86.907C239.837,86.393 240.71,85.701 241.858,85.282C245.655,83.899 249.858,83.407 253.844,82.942C259.732,82.255 265.488,81.01 271.367,80.331C283.282,78.955 295.317,78.188 307.202,76.645C312.194,75.997 317.182,75.118 322.228,75.01C324.574,74.96 327.364,74.805 329.353,76.278C331.434,77.817 329.396,81.519 327.011,80.266ZM387.485,88.206C385.987,91.112 383.765,93.244 381.17,94.876C385.074,95.63 388.056,97.473 387.505,101.547C386.948,105.667 384.237,108.622 380.835,110.75C382.946,110.862 384.907,111.286 386.398,112.432C388.987,114.422 388.75,117.014 387.194,119.225C385.697,121.352 385.615,122.933 382.916,123.97C377.609,126.009 371.682,126.23 366.28,125.454C367.023,129.759 366.895,134.43 366.339,138.745C366.022,141.203 365.037,143.738 364.894,146.185C364.807,147.667 365.423,149.138 364.984,150.58C363.114,156.709 355.791,157.632 350.973,154.444C347.434,152.103 344.945,147.44 343.335,143.646C342.87,142.55 342.413,141.453 341.91,140.374C341.505,139.502 339.522,134.571 339.158,134.337C337.581,133.324 334.287,134.742 332.529,135.079C328.131,135.92 323.639,137.333 319.156,137.412C314.253,137.498 309.447,137.29 304.653,136.401C304.919,136.982 305.078,137.666 305.05,138.482C304.907,142.689 303.417,146.595 302.777,150.714C302.352,153.446 301.449,155.53 299.795,157.776C297.384,161.05 293.827,162.386 289.883,160.606C285.126,158.459 281.557,151.266 279.408,146.833C276.229,140.277 274.775,133.686 274.576,126.429C274.54,125.149 276.42,124.851 276.589,126.173C277.835,135.886 281.87,144.863 287.325,152.909C288.71,154.953 289.791,158.13 292.773,158.23C295.207,158.312 297.131,155.137 297.643,153.011C298.106,151.086 297.758,147.557 297.799,145.552C297.846,143.173 297.497,140.785 297.339,138.417C297.12,135.146 299.883,133.78 302.163,134.358C302.332,134.226 302.55,134.138 302.823,134.142C309.51,134.236 316.291,134.463 322.872,133.117C328.414,131.983 333.854,130.571 339.474,129.835C340.361,129.719 341.064,130.24 341.458,130.983C344.152,136.071 346.988,141.672 350.055,146.549C351.407,148.698 353.398,151.735 356.237,151.917C357.512,151.999 359.927,150.837 359.995,149.207C359.998,149.13 359.199,147.101 359.217,146.282C359.27,143.924 359.667,141.552 359.816,139.194C360.119,134.423 359.696,129.698 359.852,124.937C359.93,122.551 362.178,121.863 363.991,122.518C368.375,122.476 372.722,122.094 376.837,120.466C378.536,119.794 382.179,118.339 383.378,117.109C385.355,115.081 382.751,115.085 380.37,115.014C376.853,114.909 373.507,115.269 369.961,114.843C367.569,114.555 367.946,111.399 369.995,110.896C374.341,109.828 382.027,107.193 382.433,101.683C382.766,97.154 370.977,99.304 368.006,99.688C364.854,100.095 364.526,95.702 367.405,94.939C373.491,93.326 381.08,90.92 383.403,84.362C383.692,83.547 383.768,81.298 383.228,80.104C382.82,80.408 379.078,78.939 378.985,78.908C372.909,76.83 366.802,75.432 360.628,75.716C353.034,76.065 344.93,79.32 337.448,81.049C333.888,81.872 333.199,76.229 336.734,75.412C346.78,73.089 357.418,74.001 367.632,73.421C371.55,73.199 375.667,73.088 379.513,73.982C380.821,74.286 381.936,74.937 383.178,75.322C383.836,75.525 384.925,75.362 385.869,75.843C387.727,76.791 388.031,78.514 388.633,79.941C389.761,82.612 388.723,85.803 387.485,88.206ZM350.262,129.409C350.363,129.482 350.481,129.578 350.6,129.675C350.633,129.287 350.664,128.899 350.657,128.509C350.645,127.722 350.949,127.206 351.63,126.829C352.032,126.607 352.468,126.679 352.874,126.834C353.376,127.026 353.793,127.568 353.835,128.107C353.987,130.079 354.271,134.369 351.143,133.997C349.997,133.86 348.932,132.685 348.089,131.967C347.602,131.553 347.07,131.135 346.899,130.492C346.714,129.8 346.981,128.951 347.689,128.662C348.719,128.243 349.459,128.824 350.262,129.409ZM292.214,135.735C293.36,137.035 292.57,138.812 291.33,139.711C289.941,140.718 287.441,140.17 286.208,139.135C285.419,138.472 285.22,137.295 285.869,136.458C286.549,135.58 287.673,135.565 288.545,136.119C288.974,136.392 289.234,136.917 289.764,137.035C289.811,137.064 289.862,137.073 289.915,137.071C289.319,135.784 291.166,134.546 292.214,135.735ZM290.048,137.045C290.051,137.045 290.053,137.044 290.056,137.043C290.051,137.035 290.048,137.036 290.048,137.045ZM302.358,111.049C302.887,110.683 303.68,110.559 304.256,110.882C304.654,111.002 305.011,111.212 305.325,111.579C305.648,111.956 305.813,112.477 305.854,112.96C305.953,114.134 305.295,115.26 304.293,115.841C302.152,117.082 299.379,115.311 299.006,113.035C298.869,112.201 299.357,111.347 300.06,110.939C300.798,110.511 301.656,110.587 302.358,111.049ZM334.477,114.242C333.228,114.392 332.317,113.239 332.572,112.087C332.475,111.97 332.383,111.848 332.307,111.717C331.96,111.119 331.939,110.429 332.201,109.789C332.343,109.444 332.603,109.139 332.887,108.9C333.446,108.43 334.194,108.472 334.838,108.683C337.356,109.506 337.254,113.909 334.477,114.242ZM335.208,111.689C335.21,111.688 335.212,111.687 335.214,111.685C335.22,111.676 335.225,111.668 335.23,111.659C335.264,111.6 335.288,111.559 335.309,111.522C335.31,111.518 335.31,111.516 335.311,111.512C335.287,111.554 335.248,111.62 335.208,111.689ZM335.272,110.88C335.268,110.873 335.264,110.865 335.26,110.857C335.242,110.84 335.208,110.805 335.145,110.734C335.196,110.778 335.23,110.831 335.272,110.88ZM317.611,104.487C317.871,103.731 318.93,103.32 319.636,103.673C320.748,104.227 321.638,105.032 322.329,106.066C322.836,106.823 322.775,107.853 322.019,108.434C321.79,108.61 321.492,108.716 321.182,108.753C319.873,109.38 318.536,109.715 317.068,109.804C315.95,109.872 314.832,108.48 315.752,107.5C316.583,106.617 317.217,105.637 317.611,104.487ZM279.496,111.359C277.799,111.282 277.761,108.87 279.102,108.254C280.736,107.505 282.714,107.399 284.481,107.072C286.623,106.675 288.684,106.263 290.752,105.546C291.747,105.201 292.301,106.566 291.377,107.044C287.87,108.854 283.563,111.544 279.496,111.359ZM278.184,97.393C277.97,96.772 278.216,96.164 278.81,95.873C280.617,94.987 282.567,96.285 284.295,96.931C286.696,97.828 289.096,98.666 291.605,99.208C292.991,99.507 292.703,101.462 291.293,101.378C288.626,101.22 285.947,100.951 283.357,100.28C281.471,99.792 278.892,99.445 278.184,97.393ZM336.755,101.719C338.54,102.379 340.368,102.779 342.266,102.915C343.99,103.039 345.783,102.699 347.472,103.002C348.556,103.197 348.82,104.746 347.749,105.184C344.252,106.611 339.248,104.957 336.05,103.373C335.015,102.86 335.664,101.315 336.755,101.719ZM340.789,95.055C342.12,94.508 343.124,93.533 344.4,92.922C345.852,92.228 347.045,94.099 346.205,95.279C344.133,98.189 339.195,98.867 335.93,98.397C334.254,98.156 334.662,95.761 336.298,95.836C337.84,95.906 339.361,95.641 340.789,95.055ZM467.303,403.857C465.812,402.814 462.599,403.092 460.85,402.986C456.599,402.727 452.36,402.808 448.106,402.748C443.696,402.686 439.352,401.458 434.916,401.169C430.306,400.868 425.698,401.449 421.128,400.915C412.188,399.869 403.328,400.765 394.38,400.685C393.741,400.68 376.185,401.773 377.183,404.134C377.528,404.949 377.467,405.986 376.574,406.458C376.377,406.562 378.596,410.316 378.558,410.273C380.013,411.897 383.032,412.468 385.085,412.875C385.993,413.056 386.914,413.144 387.839,413.189C392.089,412.557 396.688,412.566 398.293,412.448C400.697,412.244 400.591,415.844 398.293,416.139C395.305,416.524 392.284,416.789 389.328,417.385C388.52,417.548 384.271,419.137 383.703,417.862C384.008,418.547 384.051,419.205 383.782,419.814C384.126,419.955 384.583,420.193 385.184,420.552C385.773,420.754 386.297,421.073 386.755,421.51C387.895,422.171 388.901,422.992 390.102,423.578C393.903,425.431 398.058,425.852 402.237,425.868C404.6,425.877 405.291,429.69 402.813,430.13C399.019,430.805 395.146,431.37 391.384,432.189C388.681,432.777 380.545,433.864 386.275,438.015C388.572,439.679 391.744,441.603 394.4,442.114C399.11,443.019 403.227,441.324 408.033,440.455C409.579,440.175 410.264,442.487 408.692,442.843C401.733,444.419 394.757,443.897 387.913,441.922C383.253,440.578 380.457,437.188 381.682,432.302C381.808,431.798 382.242,431.37 382.743,431.241C385.595,430.507 388.417,429.685 391.238,428.86C388.807,428.057 386.448,426.934 384.089,425.468C381.114,423.619 377.371,421.824 379.517,418.494C379.314,417.12 379.978,416.07 381.175,415.266C379.416,414.7 377.803,413.873 376.448,412.671C373.899,410.411 370.914,406.782 373.73,404.302C373.33,402.404 374.042,400.765 376.191,399.992C377.183,399.635 378.084,399.645 378.943,399.352C380.051,398.974 381.004,398.397 382.195,398.127C386.136,397.231 390.368,397.272 394.38,397.312C400.308,397.371 406.175,396.859 412.093,396.925C424.087,397.058 436.122,397.811 448.106,397.775C453.141,397.76 458.2,397.514 463.219,398.041C465.552,398.287 468.34,398.484 470.129,400.195C471.998,401.984 469.512,405.4 467.303,403.857ZM484.19,455.533C484.281,455.619 484.386,455.729 484.492,455.84C484.573,455.46 484.653,455.079 484.695,454.691C484.782,453.908 485.148,453.435 485.871,453.147C486.299,452.976 486.721,453.103 487.105,453.308C487.579,453.561 487.925,454.152 487.899,454.691C487.802,456.667 487.544,460.958 484.488,460.196C483.368,459.917 482.458,458.617 481.712,457.799C481.282,457.326 480.806,456.845 480.717,456.185C480.621,455.476 480.993,454.666 481.731,454.47C482.806,454.183 483.467,454.853 484.19,455.533ZM425.807,454.51C426.78,455.944 425.773,457.608 424.43,458.343C422.925,459.168 420.515,458.31 419.421,457.128C418.722,456.372 418.673,455.179 419.421,454.43C420.207,453.644 421.323,453.771 422.119,454.43C422.511,454.755 422.702,455.308 423.213,455.492C423.256,455.527 423.305,455.542 423.359,455.546C422.929,454.195 424.917,453.199 425.807,454.51ZM423.493,455.538C423.497,455.538 423.498,455.538 423.502,455.537C423.498,455.529 423.495,455.529 423.493,455.538ZM438.975,431.296C439.546,431 440.348,430.976 440.878,431.369C441.258,431.538 441.586,431.791 441.852,432.195C442.125,432.609 442.223,433.146 442.203,433.632C442.153,434.808 441.359,435.843 440.292,436.293C438.012,437.255 435.484,435.15 435.4,432.844C435.369,432 435.96,431.214 436.709,430.898C437.494,430.566 438.337,430.749 438.975,431.296ZM470.437,438.502C469.179,438.494 468.421,437.236 468.819,436.125C468.737,435.997 468.661,435.864 468.602,435.724C468.333,435.087 468.399,434.4 468.74,433.799C468.924,433.474 469.22,433.204 469.531,433.003C470.146,432.607 470.882,432.742 471.495,433.032C473.889,434.166 473.235,438.521 470.437,438.502ZM471.483,436.062C471.486,436.06 471.488,436.06 471.49,436.058C471.497,436.05 471.503,436.042 471.51,436.035C471.551,435.98 471.579,435.943 471.605,435.908C471.606,435.905 471.607,435.903 471.608,435.899C471.579,435.937 471.532,435.998 471.483,436.062ZM471.649,435.267C471.646,435.259 471.643,435.251 471.64,435.243C471.624,435.223 471.595,435.184 471.542,435.106C471.587,435.156 471.613,435.213 471.649,435.267ZM454.932,426.704C455.284,425.987 456.387,425.712 457.044,426.151C458.076,426.841 458.858,427.751 459.414,428.864C459.822,429.679 459.631,430.693 458.808,431.174C458.559,431.32 458.25,431.387 457.938,431.385C456.561,431.843 455.193,432.007 453.724,431.911C452.606,431.838 451.673,430.315 452.709,429.46C453.644,428.687 454.396,427.796 454.932,426.704ZM416.255,428.729C414.582,428.439 414.847,426.041 416.255,425.599C417.97,425.061 419.945,425.205 421.74,425.102C423.915,424.978 426.011,424.828 428.153,424.377C429.183,424.16 429.562,425.584 428.585,425.941C424.877,427.297 420.267,429.424 416.255,428.729ZM416.71,414.709C416.575,414.065 416.896,413.494 417.522,413.279C419.426,412.627 421.197,414.16 422.83,415.018C425.1,416.211 427.375,417.343 429.796,418.196C431.133,418.667 430.602,420.571 429.213,420.311C426.587,419.818 423.964,419.214 421.479,418.224C419.669,417.502 417.155,416.834 416.71,414.709ZM474.272,426.365C475.96,427.244 477.723,427.871 479.589,428.245C481.283,428.584 483.105,428.473 484.743,428.986C485.793,429.315 485.861,430.886 484.743,431.185C481.094,432.161 476.338,429.89 473.365,427.917C472.402,427.279 473.24,425.827 474.272,426.365ZM479.112,420.261C480.501,419.886 481.62,419.045 482.963,418.6C484.49,418.093 485.439,420.099 484.456,421.165C482.035,423.791 477.051,423.843 473.871,422.966C472.238,422.516 472.945,420.191 474.559,420.471C476.079,420.735 477.621,420.663 479.112,420.261ZM452.395,410.82C453.343,408.328 456.472,407.289 458.407,409.418C460.346,411.55 460.681,416.591 459.294,418.996C458.937,419.615 458.12,419.664 457.633,419.263C456.672,420.963 454.918,422.372 453.143,420.525C452.176,419.519 452.021,417.392 451.897,416.08C451.74,414.407 451.788,412.414 452.395,410.82ZM454.222,416.425C454.251,417.084 454.286,417.805 454.475,418.437C455.113,420.57 456.428,418.888 456.995,417.743C457.017,417.699 457.05,417.671 457.079,417.637C456.922,416.437 456.967,415.206 456.776,414.006C456.615,413.004 456.18,409.779 454.854,411.868C454.17,412.945 454.168,415.198 454.222,416.425ZM145.364,215.226C143.873,214.184 140.66,214.462 138.91,214.355C134.659,214.096 130.421,214.178 126.167,214.118C121.756,214.055 117.413,212.827 112.977,212.538C108.367,212.238 103.759,212.818 99.189,212.284C90.248,211.238 81.388,212.134 72.441,212.055C71.801,212.049 54.246,213.142 55.244,215.503C55.589,216.319 55.528,217.355 54.635,217.827C54.437,217.931 56.657,221.685 56.618,221.642C58.073,223.267 61.093,223.837 63.145,224.245C64.054,224.425 64.974,224.513 65.899,224.558C70.15,223.926 74.748,223.935 76.354,223.817C78.757,223.613 78.651,227.213 76.354,227.509C73.365,227.893 70.344,228.158 67.388,228.754C66.581,228.917 62.331,230.506 61.763,229.232C62.068,229.916 62.112,230.574 61.843,231.183C62.186,231.324 62.643,231.562 63.244,231.921C63.834,232.123 64.358,232.442 64.816,232.879C65.955,233.54 66.962,234.362 68.163,234.947C71.963,236.8 76.119,237.221 80.297,237.237C82.661,237.246 83.351,241.059 80.874,241.499C77.079,242.174 73.207,242.74 69.445,243.558C66.742,244.146 58.605,245.233 64.336,249.384C66.633,251.048 69.805,252.972 72.46,253.483C77.171,254.388 81.287,252.693 86.094,251.824C87.64,251.544 88.325,253.856 86.752,254.212C79.794,255.788 72.817,255.266 65.973,253.292C61.314,251.947 58.518,248.557 59.742,243.671C59.869,243.168 60.302,242.739 60.804,242.61C63.656,241.876 66.478,241.054 69.298,240.229C66.868,239.426 64.508,238.303 62.149,236.837C59.175,234.988 55.431,233.193 57.577,229.863C57.374,228.489 58.038,227.439 59.235,226.635C57.477,226.07 55.864,225.242 54.508,224.04C51.96,221.78 48.975,218.151 51.791,215.671C51.39,213.774 52.102,212.134 54.251,211.361C55.243,211.004 56.145,211.014 57.004,210.721C58.111,210.343 59.064,209.766 60.256,209.496C64.197,208.6 68.428,208.641 72.441,208.681C78.368,208.74 84.235,208.229 90.153,208.294C102.147,208.427 114.183,209.18 126.167,209.144C131.201,209.129 136.26,208.883 141.279,209.41C143.613,209.656 146.401,209.853 148.189,211.564C150.059,213.353 147.572,216.77 145.364,215.226ZM204.359,230.707C202.508,233.402 200.036,235.237 197.255,236.53C201.034,237.769 203.761,239.972 202.702,243.945C201.631,247.962 198.57,250.553 194.928,252.236C197.007,252.613 198.899,253.281 200.234,254.605C202.553,256.904 201.992,259.446 200.17,261.444C198.417,263.366 198.137,264.924 195.33,265.613C189.808,266.969 183.9,266.443 178.639,264.993C178.834,269.358 178.12,273.976 177.026,278.186C176.403,280.585 175.107,282.976 174.657,285.386C174.384,286.845 174.811,288.381 174.193,289.757C171.568,295.603 164.187,295.597 159.808,291.829C156.592,289.061 154.709,284.123 153.588,280.156C153.265,279.01 152.949,277.865 152.587,276.73C152.294,275.814 150.946,270.673 150.615,270.396C149.178,269.192 145.732,270.185 143.946,270.298C139.477,270.58 134.843,271.417 130.385,270.931C125.511,270.4 120.769,269.589 116.124,268.105C116.316,268.714 116.387,269.413 116.257,270.219C115.586,274.375 113.617,278.063 112.464,282.069C111.699,284.725 110.541,286.679 108.617,288.699C105.814,291.644 102.117,292.522 98.428,290.26C93.979,287.532 91.342,279.947 89.768,275.279C87.439,268.376 86.825,261.654 87.54,254.429C87.666,253.155 89.567,253.097 89.569,254.429C89.584,264.221 92.458,273.635 96.858,282.303C97.975,284.505 98.649,287.792 101.594,288.266C103.998,288.653 106.306,285.746 107.081,283.702C107.783,281.85 107.881,278.305 108.174,276.321C108.52,273.967 108.474,271.554 108.615,269.185C108.809,265.913 111.722,264.905 113.911,265.765C114.095,265.655 114.323,265.596 114.593,265.634C121.215,266.568 127.914,267.645 134.612,267.137C140.252,266.71 145.827,265.992 151.495,265.969C152.39,265.966 153.022,266.571 153.318,267.358C155.352,272.745 157.461,278.657 159.891,283.882C160.961,286.183 162.555,289.446 165.348,289.984C166.603,290.226 169.145,289.376 169.417,287.768C169.43,287.692 168.892,285.578 169.013,284.768C169.362,282.435 170.054,280.132 170.499,277.812C171.399,273.117 171.573,268.376 172.327,263.672C172.704,261.315 175.021,260.916 176.737,261.793C181.091,262.303 185.452,262.47 189.739,261.373C191.509,260.92 195.307,259.934 196.651,258.865C198.866,257.101 196.283,256.778 193.93,256.408C190.454,255.862 187.09,255.798 183.625,254.929C181.289,254.344 182.059,251.259 184.155,251.018C188.601,250.506 196.558,248.857 197.653,243.442C198.553,238.991 186.587,239.641 183.591,239.649C180.412,239.657 180.64,235.257 183.591,234.863C189.832,234.028 197.664,232.595 200.793,226.381C201.182,225.608 201.54,223.387 201.154,222.134C200.712,222.385 197.184,220.457 197.096,220.414C191.329,217.589 185.446,215.434 179.286,214.94C171.708,214.331 163.259,216.541 155.619,217.316C151.984,217.685 152.01,211.999 155.619,211.633C165.878,210.592 176.317,212.834 186.522,213.543C190.438,213.816 194.535,214.224 198.239,215.594C199.498,216.06 200.522,216.846 201.707,217.384C202.334,217.669 203.434,217.643 204.311,218.24C206.035,219.413 206.119,221.161 206.537,222.653C207.32,225.444 205.89,228.48 204.359,230.707ZM162.25,266.902C162.342,266.989 162.447,267.099 162.553,267.21C162.633,266.829 162.713,266.448 162.756,266.06C162.842,265.277 163.209,264.804 163.932,264.516C164.359,264.345 164.782,264.472 165.166,264.677C165.64,264.931 165.985,265.521 165.959,266.06C165.862,268.036 165.604,272.328 162.548,271.565C161.428,271.286 160.519,269.986 159.773,269.168C159.342,268.695 158.867,268.214 158.778,267.554C158.682,266.845 159.053,266.036 159.792,265.839C160.866,265.553 161.527,266.222 162.25,266.902ZM103.868,265.879C104.841,267.313 103.834,268.977 102.491,269.713C100.986,270.537 98.575,269.679 97.482,268.497C96.783,267.741 96.733,266.548 97.482,265.799C98.268,265.014 99.384,265.14 100.18,265.799C100.571,266.124 100.763,266.677 101.274,266.861C101.316,266.896 101.366,266.911 101.419,266.915C100.99,265.564 102.978,264.569 103.868,265.879ZM101.554,266.907C101.557,266.907 101.559,266.907 101.562,266.906C101.559,266.898 101.556,266.898 101.554,266.907ZM117.036,242.666C117.606,242.369 118.409,242.346 118.939,242.738C119.319,242.907 119.646,243.16 119.912,243.564C120.185,243.978 120.283,244.516 120.263,245.001C120.214,246.178 119.419,247.212 118.353,247.662C116.073,248.624 113.544,246.519 113.46,244.213C113.429,243.37 114.021,242.583 114.769,242.267C115.555,241.936 116.397,242.118 117.036,242.666ZM148.497,249.871C147.24,249.863 146.481,248.605 146.88,247.494C146.797,247.366 146.722,247.233 146.663,247.093C146.394,246.457 146.46,245.77 146.8,245.168C146.984,244.843 147.281,244.573 147.592,244.372C148.206,243.976 148.942,244.111 149.555,244.402C151.949,245.535 151.295,249.89 148.497,249.871ZM149.544,247.431C149.547,247.43 149.548,247.429 149.551,247.428C149.557,247.42 149.564,247.412 149.57,247.404C149.611,247.35 149.64,247.312 149.665,247.278C149.667,247.274 149.667,247.272 149.669,247.268C149.639,247.306 149.593,247.368 149.544,247.431ZM149.71,246.636C149.707,246.628 149.704,246.62 149.7,246.612C149.684,246.593 149.656,246.553 149.602,246.476C149.647,246.525 149.674,246.582 149.71,246.636ZM132.993,238.074C133.345,237.356 134.448,237.081 135.104,237.52C136.137,238.21 136.919,239.121 137.475,240.233C137.882,241.048 137.692,242.062 136.869,242.543C136.619,242.689 136.311,242.756 135.998,242.754C134.621,243.212 133.253,243.376 131.785,243.28C130.667,243.207 129.733,241.685 130.77,240.829C131.705,240.057 132.457,239.165 132.993,238.074ZM94.316,240.098C92.642,239.808 92.907,237.411 94.316,236.969C96.031,236.43 98.006,236.574 99.8,236.471C101.975,236.347 104.072,236.198 106.214,235.746C107.244,235.529 107.622,236.953 106.645,237.311C102.938,238.666 98.327,240.793 94.316,240.098ZM94.771,226.078C94.636,225.434 94.956,224.863 95.582,224.649C97.487,223.997 99.258,225.529 100.891,226.387C103.16,227.58 105.436,228.712 107.857,229.566C109.194,230.037 108.662,231.94 107.274,231.68C104.648,231.187 102.024,230.584 99.539,229.593C97.73,228.871 95.215,228.203 94.771,226.078ZM152.333,237.734C154.02,238.613 155.783,239.24 157.649,239.614C159.344,239.953 161.166,239.842 162.803,240.355C163.854,240.684 163.921,242.255 162.803,242.554C159.154,243.531 154.398,241.26 151.425,239.287C150.463,238.648 151.301,237.196 152.333,237.734ZM157.172,231.63C158.561,231.255 159.681,230.414 161.023,229.969C162.551,229.462 163.499,231.469 162.517,232.534C160.096,235.16 155.112,235.212 151.931,234.335C150.299,233.886 151.005,231.56 152.619,231.84C154.14,232.104 155.682,232.033 157.172,231.63ZM130.455,222.189C131.403,219.697 134.532,218.658 136.468,220.787C138.407,222.919 138.741,227.96 137.354,230.365C136.997,230.984 136.181,231.034 135.694,230.632C134.732,232.333 132.978,233.742 131.203,231.894C130.236,230.888 130.081,228.762 129.958,227.449C129.801,225.777 129.848,223.783 130.455,222.189ZM132.283,227.794C132.312,228.453 132.347,229.174 132.536,229.806C133.173,231.939 134.488,230.257 135.055,229.113C135.077,229.068 135.11,229.04 135.139,229.007C134.983,227.806 135.028,226.576 134.836,225.375C134.676,224.373 134.24,221.148 132.914,223.237C132.231,224.314 132.228,226.567 132.283,227.794ZM24.748,208.958C22.693,218.137 17.316,229.28 7.929,232.789C6.328,233.388 5.047,231.58 6.267,230.312C12.221,224.127 17.435,219.277 19.923,210.707C22.524,201.75 23.697,192.498 21.098,183.544C17.791,172.148 9.792,163.142 0,156.774L0,151.692C9.879,157.405 18.103,165.527 22.627,176.727C26.681,186.763 27.099,198.458 24.748,208.958ZM3.616,252.795C3.021,255.029 1.844,257.428 0,258.886L0,251.29C0.731,248.39 0.817,244.557 1.165,242.487C1.649,239.609 1.907,237.027 3.231,234.429C3.896,233.123 6.187,233.644 6.357,235.051C7.012,240.502 5.029,247.49 3.616,252.795ZM1.544,196.877C1.069,197.04 0.541,197.016 0,196.897L0,193.41C0.868,193.747 1.72,194.113 2.248,194.783C2.895,195.603 2.457,196.562 1.544,196.877ZM3.731,183.332C3.669,184.009 3.261,184.803 2.582,185.059C1.741,185.376 0.876,185.619 0,185.782L0,181.803C0.798,181.314 1.566,180.893 2.598,181.337C3.288,181.634 3.826,182.293 3.754,183.085C3.746,183.167 3.739,183.25 3.731,183.332ZM0,334.962C4.618,338.723 10.026,342.077 10.984,347.632C11.17,348.71 9.613,349.082 9.18,348.124C7.668,344.778 5.941,342.075 2.859,339.957C1.932,339.32 0.967,338.744 0,338.17L0,334.962ZM66.998,312.013C58.567,305.361 49.925,297.914 38.912,296.3C28.573,294.785 16.326,298.776 7.328,303.793C4.858,305.17 2.288,306.903 0,308.923L0,302.678C1.047,301.897 2.145,301.178 3.288,300.537C13.239,294.957 26.277,291.395 37.712,292.577C49.791,293.826 60.114,301.612 69.405,308.83C71.432,310.405 69.018,313.606 66.998,312.013ZM26.299,419.338C24.447,422.033 21.975,423.868 19.194,425.161C22.973,426.4 25.7,428.603 24.641,432.576C23.57,436.593 20.509,439.184 16.867,440.867C18.946,441.244 20.838,441.911 22.173,443.236C24.492,445.535 23.931,448.077 22.109,450.075C20.356,451.997 20.077,453.555 17.269,454.244C11.747,455.6 5.84,455.073 0.578,453.624C0.701,456.367 0.464,459.209 0,461.988L0,450.564C3.913,450.951 7.826,450.989 11.678,450.003C13.448,449.55 17.246,448.565 18.59,447.495C20.806,445.732 18.222,445.409 15.869,445.039C12.393,444.492 9.029,444.429 5.564,443.56C3.228,442.974 3.998,439.89 6.094,439.648C10.54,439.136 18.497,437.488 19.592,432.072C20.492,427.621 8.526,428.272 5.531,428.279C2.352,428.287 2.579,423.888 5.531,423.493C11.772,422.658 19.603,421.225 22.732,415.011C23.121,414.239 23.479,412.017 23.093,410.764C22.651,411.016 19.123,409.088 19.035,409.044C13.269,406.22 7.385,404.065 1.225,403.57C0.82,403.538 0.41,403.517 0,403.5L0,401.341C2.832,401.668 5.656,401.979 8.462,402.174C12.377,402.446 16.475,402.854 20.179,404.225C21.438,404.69 22.462,405.477 23.646,406.014C24.273,406.299 25.374,406.274 26.25,406.87C27.974,408.044 28.059,409.792 28.477,411.283C29.259,414.075 27.829,417.111 26.299,419.338ZM70.551,39.053C70.583,38.994 70.615,38.934 70.648,38.874C71.548,37.204 74.441,36.679 75.433,38.619C76.486,40.678 76.265,43.242 76.552,45.519C76.949,48.652 77.289,52.061 78.29,55.05C79.57,58.875 83.489,59.362 85.717,55.963C86.426,54.88 87.041,53.715 87.676,52.588C89.219,49.853 90.316,46.832 91.958,44.18C92.318,43.599 93.239,43.5 93.67,43.945C93.966,43.808 94.318,43.751 94.72,43.817C101.802,44.993 108.926,45.063 116.077,44.733C116.063,44.697 116.036,44.668 116.028,44.629C115.909,44.047 115.89,43.449 115.848,42.857C115.806,42.268 116.312,41.676 116.914,41.67C117.517,41.665 118.077,42.105 118.101,42.736C118.123,43.33 118.173,43.925 118.119,44.517C118.116,44.56 118.088,44.599 118.076,44.641C124.495,44.326 130.948,44.098 137.26,42.864C137.887,41.871 139.797,41.976 140.347,43.258C141.473,45.883 149.365,64.731 154.638,58.042C156.547,55.62 155.696,48.94 155.839,45.891C155.976,42.976 155.923,40.382 156.927,37.645C157.432,36.268 159.769,36.511 160.105,37.888C161.407,43.223 160.272,50.397 159.503,55.833C158.999,59.391 157.157,63.527 153.131,64.11C149.107,64.693 145.918,60.823 143.682,58.043C141.126,54.862 139.027,51.147 137.846,47.2C131.399,49.249 123.931,48.894 117.282,49.027C109.427,49.183 101.676,48.865 93.969,47.245C93.806,47.211 93.663,47.157 93.532,47.094C92.673,50.567 90.49,53.867 88.72,56.836C87.107,59.542 84.975,62.381 81.433,61.958C72.959,60.946 72.535,47.783 70.643,41.531C70.203,40.806 70.095,39.899 70.551,39.053ZM83.528,47.066C84.247,45.839 84.963,44.61 85.686,43.385C86.385,42.198 88.294,43.16 87.602,44.372C86.662,46.019 85.734,47.672 84.794,49.319C84.511,49.816 83.824,50.126 83.289,49.801C82.234,49.161 81.334,48.241 80.772,47.136C80.195,46.004 79.666,44.36 80.609,43.305C81.132,42.72 82.212,42.737 82.627,43.456C83.096,44.267 82.814,45.022 83.008,45.891C83.106,46.328 83.282,46.722 83.528,47.066ZM149.199,43.46C149.08,42.489 148.977,41.524 148.902,40.549C148.765,38.779 151.518,38.632 151.654,40.402C151.838,42.783 152.827,46.658 150.312,48.188C147.535,49.878 145.361,46.286 145.09,43.994C144.916,42.527 147.25,41.668 147.939,43.057C148.232,43.647 148.413,44.346 148.745,44.906C148.762,44.934 149.086,45.348 149.069,45.337C149.17,45.384 149.277,45.41 149.382,45.442C149.391,45.411 149.394,45.389 149.408,45.352C149.399,45.168 149.382,44.985 149.359,44.802C149.313,44.354 149.254,43.907 149.199,43.46ZM133.909,10.757C132.967,10.809 132.051,10.332 131.508,9.578C129.997,9.09 128.696,7.906 128.239,6.36C127.429,3.626 129.304,0.87 131.978,0.165C135.151,-0.671 138.096,1.271 138.63,4.498C139.123,7.479 136.992,10.588 133.909,10.757ZM133.225,5.695C133.22,5.693 133.214,5.692 133.208,5.691C133.241,5.709 133.268,5.735 133.304,5.75C133.263,5.725 133.246,5.711 133.225,5.695ZM132.788,5.185C132.789,5.188 132.79,5.189 132.791,5.192C132.793,5.186 132.795,5.178 132.796,5.172C132.77,4.937 132.777,5.05 132.788,5.185ZM114.436,499.191C111.416,498.954 108.396,498.714 105.377,498.472C104.205,498.378 103.377,497.379 103.912,496.209C105.161,493.476 107.213,490.154 110.651,490.308C112.18,490.377 113.562,491.153 114.379,492.459C115.274,493.891 115.234,495.36 115.051,496.924C115.923,497.493 115.659,499.287 114.436,499.191ZM99.13,487.217C98.806,487.733 97.838,487.675 97.852,486.944C98.001,479.103 106.921,478.232 111.607,482.556C115.667,478.243 123.722,479.056 124.821,485.883C125.081,487.497 122.561,488.271 121.788,486.882C119.889,483.468 115.648,481.206 113.137,485.886C112.582,486.921 111.01,487.084 110.363,486.034C107.103,480.747 101.944,482.738 99.13,487.217ZM74.549,494.4C72.052,496.795 66.931,500 63.367,498.537C62.495,498.179 62.608,496.989 63.258,496.506C64.583,495.52 66.403,495.479 67.949,494.983C69.725,494.412 71.451,493.569 73.122,492.742C74.137,492.239 75.539,493.45 74.549,494.4ZM72.948,489.168C71.151,488.19 69.362,487.259 67.506,486.398C65.881,485.645 63.862,485.051 62.909,483.444C62.413,482.607 62.878,481.229 64.007,481.271C65.864,481.34 67.167,482.555 68.598,483.635C70.324,484.937 72.071,486.17 73.889,487.341C74.978,488.043 74.133,489.813 72.948,489.168ZM143.031,487.57C144.317,487.469 145.457,487.15 146.547,486.446C147.673,485.717 148.464,484.567 149.96,485.008C150.681,485.221 151.294,485.81 151.316,486.605C151.319,486.688 151.321,486.77 151.323,486.853C151.343,487.533 151.032,488.37 150.389,488.705C148.164,489.864 145.699,490.493 143.178,490.323C141.454,490.207 141.213,487.714 143.031,487.57ZM307.807,485.277C304.787,485.039 301.767,484.8 298.748,484.558C297.575,484.464 296.748,483.465 297.283,482.294C298.532,479.562 300.584,476.239 304.021,476.394C305.55,476.462 306.933,477.238 307.75,478.544C308.645,479.976 308.605,481.446 308.422,483.009C309.294,483.579 309.03,485.373 307.807,485.277ZM292.5,473.303C292.176,473.819 291.209,473.76 291.223,473.029C291.372,465.189 300.292,464.317 304.978,468.641C309.038,464.328 317.093,465.141 318.192,471.969C318.451,473.583 315.932,474.357 315.159,472.967C313.26,469.554 309.019,467.292 306.508,471.972C305.952,473.007 304.381,473.17 303.734,472.12C300.473,466.833 295.315,468.823 292.5,473.303ZM267.919,480.485C265.423,482.881 260.302,486.086 256.738,484.622C255.866,484.264 255.979,483.075 256.629,482.591C257.954,481.606 259.774,481.565 261.32,481.068C263.096,480.498 264.822,479.654 266.493,478.828C267.508,478.325 268.91,479.535 267.919,480.485ZM266.319,475.254C264.522,474.276 262.732,473.344 260.876,472.484C259.252,471.73 257.233,471.136 256.28,469.53C255.784,468.693 256.249,467.314 257.378,467.356C259.234,467.425 260.538,468.64 261.969,469.72C263.695,471.023 265.442,472.255 267.26,473.427C268.349,474.129 267.504,475.899 266.319,475.254ZM335.998,480.527C337.376,481.338 338.811,482.129 340.263,482.797C341.611,483.417 343.534,483.434 344.589,484.485C345.329,485.222 345.009,486.226 344.14,486.648C342.615,487.387 340.266,486.223 338.851,485.54C337.122,484.705 335.801,483.524 334.735,481.934C334.208,481.148 335.139,480.022 335.998,480.527ZM336.402,473.656C337.688,473.554 338.828,473.236 339.918,472.531C341.044,471.803 341.834,470.652 343.331,471.094C344.052,471.306 344.665,471.895 344.687,472.691C344.69,472.773 344.692,472.856 344.694,472.939C344.714,473.618 344.403,474.455 343.76,474.791C341.535,475.95 339.069,476.579 336.549,476.409C334.825,476.292 334.584,473.8 336.402,473.656ZM282.768,484.927C285.925,485.766 287.744,489.689 286.141,492.586C285.354,494.008 283.816,494.973 282.206,495.126C280.911,495.248 279.82,494.755 279.021,493.908C277.496,493.225 276.355,491.466 276.371,489.766C276.403,486.512 279.64,484.096 282.768,484.927ZM327.28,496.843C326.338,496.895 325.422,496.418 324.878,495.663C323.368,495.175 322.067,493.992 321.61,492.446C320.8,489.711 322.675,486.955 325.349,486.251C328.522,485.414 331.467,487.356 332.001,490.583C332.494,493.564 330.362,496.674 327.28,496.843ZM326.596,491.78C326.591,491.779 326.585,491.778 326.579,491.776C326.612,491.794 326.639,491.82 326.675,491.835C326.634,491.81 326.617,491.796 326.596,491.78ZM326.159,491.271C326.16,491.274 326.161,491.275 326.162,491.278C326.164,491.272 326.166,491.264 326.167,491.258C326.141,491.023 326.148,491.136 326.159,491.271ZM263.922,25.139C263.954,25.079 263.986,25.02 264.018,24.96C264.919,23.29 267.812,22.765 268.804,24.704C269.857,26.763 269.636,29.328 269.923,31.604C270.319,34.738 270.66,38.147 271.661,41.136C272.94,44.961 276.86,45.448 279.087,42.048C279.797,40.965 280.412,39.8 281.047,38.674C282.59,35.939 283.687,32.918 285.329,30.265C285.688,29.684 286.61,29.585 287.04,30.03C287.337,29.893 287.689,29.836 288.091,29.903C295.173,31.079 302.297,31.149 309.448,30.819C309.434,30.783 309.406,30.754 309.398,30.715C309.28,30.132 309.261,29.535 309.219,28.942C309.177,28.354 309.683,27.761 310.285,27.756C310.888,27.751 311.448,28.19 311.471,28.822C311.493,29.416 311.544,30.01 311.49,30.603C311.486,30.646 311.459,30.684 311.447,30.726C317.866,30.412 324.319,30.184 330.631,28.95C331.257,27.957 333.168,28.062 333.718,29.343C334.844,31.968 342.736,50.817 348.009,44.127C349.918,41.705 349.067,35.025 349.21,31.977C349.346,29.062 349.294,26.467 350.298,23.73C350.803,22.354 353.14,22.597 353.476,23.974C354.778,29.308 353.643,36.483 352.874,41.919C352.37,45.476 350.528,49.613 346.502,50.196C342.478,50.779 339.288,46.909 337.053,44.128C334.496,40.948 332.397,37.233 331.217,33.286C324.769,35.335 317.302,34.98 310.653,35.112C302.798,35.269 295.046,34.951 287.34,33.331C287.176,33.297 287.034,33.243 286.902,33.18C286.043,36.652 283.861,39.953 282.091,42.922C280.478,45.628 278.346,48.467 274.804,48.044C266.33,47.032 265.906,33.869 264.014,27.617C263.574,26.892 263.466,25.984 263.922,25.139ZM276.899,33.152C277.618,31.925 278.334,30.696 279.056,29.471C279.756,28.284 281.664,29.245 280.973,30.458C280.033,32.104 279.105,33.758 278.165,35.405C277.882,35.901 277.195,36.211 276.66,35.887C275.605,35.246 274.705,34.327 274.143,33.222C273.566,32.089 273.037,30.445 273.98,29.391C274.503,28.806 275.583,28.823 275.998,29.542C276.467,30.353 276.185,31.107 276.379,31.977C276.477,32.413 276.653,32.807 276.899,33.152ZM342.57,29.545C342.45,28.575 342.348,27.609 342.273,26.634C342.136,24.865 344.889,24.718 345.025,26.487C345.208,28.869 346.198,32.743 343.683,34.274C340.906,35.963 338.732,32.371 338.461,30.08C338.287,28.613 340.621,27.754 341.31,29.142C341.603,29.732 341.783,30.432 342.116,30.992C342.133,31.019 342.457,31.434 342.44,31.422C342.541,31.469 342.648,31.495 342.753,31.527C342.762,31.497 342.765,31.474 342.779,31.438C342.769,31.254 342.753,31.071 342.729,30.888C342.684,30.44 342.625,29.993 342.57,29.545ZM369.356,499.289L363.828,499.289C363.901,498.924 363.977,498.561 364.039,498.184C365.552,488.981 364.277,479.159 360.628,470.58C353.375,453.525 336.794,444.107 319.275,440.998C310.72,439.48 302.729,439.642 294.142,440.321C286.443,440.929 278.972,440.118 271.622,443.004C258.996,447.96 242.521,457.352 238.828,471.339C236.488,480.204 237.504,490.376 241.246,499.289L236.915,499.289C234.845,493.905 233.646,488.144 233.324,482.544C232.827,473.923 234.858,464.704 240.93,458.307C246.306,452.644 253.028,447.652 259.792,443.779C267.708,439.247 275.348,436.286 284.52,436.09C294.264,435.881 303.926,434.925 313.652,436.013C333.163,438.195 352.723,446.076 362.667,464.125C367.89,473.605 370.871,485.653 369.791,496.359C369.694,497.318 369.541,498.3 369.356,499.289ZM171.031,499.289C170.517,494.19 169.241,489.158 167.257,484.494C160.004,467.44 143.423,458.021 125.904,454.913C117.349,453.394 109.358,453.557 100.771,454.235C93.072,454.844 85.601,454.032 78.251,456.918C65.625,461.874 49.15,471.266 45.457,485.254C44.281,489.71 43.963,494.498 44.403,499.289L40.195,499.289C40.091,498.343 40.007,497.398 39.953,496.458C39.456,487.837 41.487,478.618 47.559,472.222C52.935,466.558 59.657,461.566 66.421,457.694C74.337,453.162 81.977,450.201 91.149,450.004C100.894,449.796 110.555,448.84 120.281,449.927C139.792,452.109 159.352,459.991 169.296,478.039C172.782,484.366 175.26,491.837 176.208,499.289L171.031,499.289ZM85.742,499.289C86.829,498.71 88.12,498.502 89.397,498.841C89.789,498.945 90.16,499.098 90.507,499.289L85.742,499.289ZM481.83,472.512C482.9,474.813 484.494,478.076 487.287,478.615C488.542,478.856 491.084,478.006 491.356,476.398C491.369,476.322 490.831,474.209 490.953,473.398C491.301,471.066 491.993,468.763 492.438,466.443C493.338,461.747 493.512,457.006 494.266,452.302C494.643,449.945 496.96,449.546 498.676,450.423C499.118,450.475 499.559,450.52 500,450.564L500,461.988C499.726,463.632 499.372,465.252 498.966,466.817C498.342,469.216 497.046,471.607 496.596,474.016C496.324,475.476 496.75,477.012 496.133,478.388C493.508,484.233 486.127,484.227 481.748,480.459C478.531,477.692 476.648,472.753 475.528,468.786C475.204,467.641 474.888,466.495 474.526,465.361C474.233,464.445 472.886,459.304 472.555,459.027C471.118,457.823 467.671,458.816 465.885,458.929C461.416,459.211 456.782,460.047 452.324,459.561C447.45,459.03 442.708,458.22 438.064,456.735C438.255,457.345 438.326,458.044 438.196,458.85C437.525,463.005 435.556,466.693 434.403,470.699C433.638,473.356 432.48,475.31 430.557,477.33C427.753,480.275 424.056,481.152 420.368,478.891C415.919,476.163 413.282,468.578 411.707,463.91C409.378,457.006 408.764,450.285 409.479,443.06C409.605,441.786 411.507,441.727 411.509,443.06C411.524,452.852 414.398,462.265 418.797,470.934C419.915,473.135 420.588,476.423 423.533,476.897C425.937,477.284 428.246,474.377 429.021,472.332C429.723,470.48 429.821,466.936 430.113,464.951C430.46,462.598 430.413,460.185 430.554,457.816C430.749,454.543 433.661,453.536 435.851,454.396C436.034,454.286 436.262,454.226 436.533,454.264C443.154,455.198 449.853,456.276 456.551,455.768C462.192,455.34 467.766,454.623 473.435,454.6C474.329,454.596 474.961,455.201 475.258,455.988C477.291,461.375 479.4,467.287 481.83,472.512ZM500,403.5C492.744,403.198 484.789,405.213 477.559,405.946C473.924,406.315 473.949,400.63 477.559,400.264C484.997,399.509 492.53,400.48 500,401.341L500,403.5ZM500,308.923C494.137,314.099 490.136,321.162 494.469,328.963C495.74,331.251 497.779,333.153 500,334.962L500,338.17C498.436,337.243 496.864,336.326 495.432,335.197C492.054,332.536 489.931,329.221 489.457,324.896C488.476,315.941 493.069,307.85 500,302.678L500,308.923L500,308.923ZM500,258.886C498.977,259.694 497.753,260.217 496.302,260.252C492.237,260.351 489.532,256.128 487.645,253.1C485.486,249.637 483.846,245.698 483.145,241.638C476.499,242.903 469.127,241.658 462.51,240.996C454.692,240.214 447.034,238.972 439.577,236.444C439.418,236.39 439.284,236.32 439.16,236.242C437.893,239.587 435.332,242.603 433.22,245.339C431.295,247.833 428.84,250.398 425.374,249.555C417.08,247.539 418.231,234.419 417.099,227.986C416.749,227.214 416.75,226.3 417.304,225.514C417.343,225.459 417.382,225.404 417.421,225.349C418.515,223.798 421.45,223.622 422.203,225.666C423.002,227.836 422.477,230.356 422.491,232.65C422.51,235.809 422.441,239.234 423.077,242.321C423.891,246.271 427.724,247.223 430.342,244.114C431.176,243.123 431.926,242.04 432.691,240.997C434.549,238.466 435.999,235.598 437.946,233.16C438.372,232.627 439.299,232.638 439.673,233.131C439.984,233.031 440.34,233.016 440.731,233.13C447.623,235.144 454.687,236.064 461.826,236.59C461.816,236.552 461.793,236.52 461.79,236.48C461.742,235.888 461.794,235.292 461.823,234.699C461.852,234.11 462.425,233.582 463.023,233.649C463.623,233.716 464.126,234.219 464.074,234.849C464.025,235.441 464.004,236.037 463.88,236.619C463.871,236.661 463.839,236.696 463.822,236.736C470.232,237.19 476.667,237.735 483.081,237.263C483.822,236.352 485.706,236.685 486.099,238.023C486.903,240.763 492.489,260.419 498.523,254.407C499.204,253.728 499.669,252.605 500,251.29L500,258.886L500,258.886ZM500,156.774C494.498,153.196 488.431,150.448 482.308,148.585C473.995,146.056 466.042,145.263 457.435,144.912C449.719,144.597 442.398,142.899 434.756,144.886C421.629,148.3 402.782,152.619 397.446,166.066C390.23,184.247 398.841,213.201 417.433,221.367C418.979,222.045 418.208,224.416 416.559,223.876C398.419,217.933 390.9,197.412 392.01,179.571C392.547,170.952 395.663,162.042 402.456,156.416C408.47,151.435 415.74,147.281 422.918,144.244C431.318,140.689 439.257,138.662 448.387,139.562C458.086,140.519 467.793,140.723 477.32,142.964C485.228,144.824 493.026,147.659 500,151.692L500,156.774L500,156.774ZM500,196.897C498.716,196.616 497.356,195.742 496.425,195.145C494.808,194.11 493.637,192.78 492.769,191.074C492.339,190.23 493.399,189.224 494.191,189.828C495.462,190.797 496.793,191.754 498.155,192.591C498.695,192.923 499.352,193.159 500,193.41L500,196.897L500,196.897ZM500,185.782C498.431,186.075 496.822,186.106 495.23,185.805C493.532,185.483 493.59,182.98 495.413,183.054C496.702,183.106 497.872,182.927 499.038,182.357C499.375,182.192 499.69,181.993 500,181.803L500,185.782ZM170.668,12.099C171.359,7.898 171.462,3.57 171.031,-0.711L176.208,-0.711C176.681,3.003 176.779,6.712 176.42,10.273C175.476,19.631 170.297,30.851 161.397,35.455C159.878,36.241 158.391,34.599 159.451,33.195C164.623,26.342 169.221,20.905 170.668,12.099ZM44.403,-0.711C45.83,14.832 55.33,30.419 70.185,34.919C71.8,35.409 71.317,37.854 69.616,37.515C51.882,33.978 42.055,16.313 40.195,-0.711L44.403,-0.711L44.403,-0.711ZM151.629,-0.711C151.643,-0.197 151.315,0.298 150.769,0.562C149.244,1.301 146.895,0.137 145.48,-0.546C145.377,-0.596 145.288,-0.659 145.188,-0.711L151.629,-0.711ZM85.742,-0.711L90.507,-0.711C92.952,0.639 94.174,3.964 92.77,6.501C91.983,7.923 90.446,8.888 88.835,9.04C87.54,9.163 86.449,8.67 85.65,7.823C84.126,7.139 82.984,5.381 83.001,3.681C83.019,1.755 84.164,0.129 85.742,-0.711ZM363.828,-0.711L369.356,-0.711C367.734,7.951 362.755,17.408 354.767,21.541C353.249,22.326 351.761,20.685 352.822,19.28C357.772,12.721 362.189,7.451 363.828,-0.711ZM241.246,-0.711C245.487,9.392 253.23,17.877 263.555,21.005C265.171,21.494 264.688,23.94 262.987,23.6C250.142,21.038 241.443,11.063 236.916,-0.711L241.246,-0.711L241.246,-0.711ZM145.188,499.289C143.608,498.465 142.366,497.344 141.364,495.848C140.837,495.062 141.768,493.936 142.628,494.442C144.005,495.252 145.44,496.043 146.892,496.711C148.24,497.332 150.163,497.348 151.218,498.399C151.493,498.673 151.621,498.985 151.629,499.289L145.188,499.289L145.188,499.289ZM216.11,133.531C216.464,134.894 216.633,136.278 216.618,137.68C216.988,140.502 215.563,142.172 212.342,142.689C210.241,141.664 207.995,144.272 209.786,146.043C213.761,149.975 216.268,156.214 213.185,161.517C210.52,166.098 204.304,167.816 199.816,165.006C197.813,163.751 196.099,166.487 197.457,168.101C200.087,171.227 198.659,175.853 195.519,178.036C192.901,179.857 189.251,180.033 186.18,179.95C179.835,179.779 173.556,177.899 167.988,174.895C158.086,169.552 148.473,160.119 146.33,148.724C146.181,147.929 144.959,148.149 144.953,148.918C144.834,164.898 162.945,178.05 176.806,181.991C183.646,183.936 193.121,185.631 199.028,180.481C202.124,177.781 203.436,173.828 202.684,170.157C207.811,170.953 213.28,168.798 216.39,164.37C220.107,159.08 219.47,151.828 215.983,146.589C218.213,145.659 219.919,143.505 220.644,140.626C222.229,134.336 219.835,127.499 215.449,122.964C213.263,120.704 209.887,124.146 212.027,126.426C213.975,128.502 215.391,130.748 216.11,133.531ZM142.946,144.809C142.995,147.375 147.005,147.357 146.937,144.786C146.654,134.051 145.86,122.67 151.158,112.881C156.132,103.691 166.659,96.268 176.063,92.063C185.261,87.949 198.841,85.508 203.924,96.825C207.225,104.175 203.254,115.168 208.996,121.228C209.748,122.023 210.979,120.998 210.47,120.077C208.695,116.864 207.562,113.862 207.71,110.125C207.827,107.187 208.418,104.278 208.342,101.327C208.232,97.029 206.846,93.343 203.665,90.375C196.082,83.301 184.995,82.823 175.873,86.877C165.447,91.51 154.79,99.823 148.893,109.692C142.664,120.116 142.724,133.046 142.946,144.809ZM205.435,134.895C204.907,134.803 204.306,135.509 204.844,135.925C206.535,137.231 211.668,141.347 213.014,137.581C214.044,134.696 211.492,130.533 209.268,128.872C206.998,127.175 202.794,127.051 201.617,130.196C200.868,132.197 202.836,136.326 205.353,134.737C205.837,134.431 206.036,133.631 205.539,133.22C204.77,132.585 203.496,131.663 205.002,130.841C206.488,130.03 208.032,131.531 208.815,132.648C209.259,133.282 209.665,133.996 209.933,134.721C210.059,135.063 210.171,135.427 210.236,135.785C210.251,135.934 210.266,136.083 210.281,136.232C209.57,136.101 208.759,135.678 208.096,135.475C207.217,135.204 206.341,135.053 205.435,134.895ZM190.623,145.096C187.818,148.565 190.363,153.379 193.464,155.664C194.409,156.361 195.427,155.034 194.955,154.156C194.046,152.465 192.113,150.689 192.314,148.593C192.663,144.965 196.914,145.977 198.734,147.514C200.38,148.903 201.285,150.733 201.317,152.899C201.345,154.782 201.175,156.202 198.531,155.312C197.564,154.987 196.646,154.064 195.784,153.524C195.264,153.199 194.776,153.83 195.008,154.309C196.427,157.235 201.248,159.668 203.103,155.838C204.742,152.455 203.356,147.466 200.691,144.986C197.914,142.402 193.162,141.957 190.623,145.096ZM175.141,165.944C175.165,165.868 175.207,165.808 175.245,165.746C172.371,164.491 172.515,160.082 174.933,158.112C178.385,155.301 183.719,157.496 185.433,161.252C186.333,163.225 185.707,165.893 185.357,167.949C185.036,169.833 183.838,171.188 181.929,171.554C180.205,171.885 178.686,171.247 177.467,170.051C176.561,169.162 174.707,167.326 175.141,165.944ZM176.967,164.672C177.29,165.036 177.223,165.723 176.819,165.97C176.852,166.122 176.846,166.284 176.778,166.452C177.162,166.411 177.477,166.573 177.709,166.985C178.098,167.386 178.526,167.741 178.992,168.051C179.457,168.317 180.393,168.705 180.993,168.62C182.654,168.385 182.339,165.711 182.37,164.351C182.416,162.302 180.441,160.524 178.3,160.78C176.04,161.05 175.505,163.022 176.967,164.672ZM187.171,111.675C181.76,110.45 178.824,111.286 174.451,114.513C171.843,116.437 169.168,117.854 166.277,119.286C164.649,120.093 162.828,120.808 161.837,122.435C159.367,126.488 158.97,143.083 166.13,143.521C166.773,143.561 166.999,142.846 166.786,142.363C165.76,140.031 163.897,138.341 163.144,135.764C162.295,132.86 161.939,128.476 162.81,125.531C164.083,121.23 168.819,120.817 172.245,119.26C175.665,117.705 178.978,115.364 182.699,115.088C184.003,114.991 186.471,114.844 187.536,115.409C188.634,117.12 189.731,118.832 190.829,120.543C190.597,121.574 190.313,122.591 189.979,123.594C188.749,127.429 186.625,129.132 184.378,132.089C182.951,133.967 182.913,136.071 181.513,137.973C178.695,141.801 173.233,144.052 168.614,142.212C167.619,141.816 166.961,143.451 167.898,143.94C172.105,146.136 176.569,145.722 180.667,143.393C185.702,140.532 185.383,136.171 188.882,132.191C194.158,126.189 197.525,114.018 187.171,111.675Z" style="fill:rgb(255,115,92);fill-rule:nonzero;"/>
            </g>
        </g>
    </g>
</svg>
