<?xml version="1.0" encoding="UTF-8" standalone="no"?>
<!DOCTYPE svg PUBLIC "-//W3C//DTD SVG 1.1//EN" "http://www.w3.org/Graphics/SVG/1.1/DTD/svg11.dtd">
<svg width="100%" height="100%" viewBox="0 0 785 552" version="1.1" xmlns="http://www.w3.org/2000/svg" xmlns:xlink="http://www.w3.org/1999/xlink" xml:space="preserve" xmlns:serif="http://www.serif.com/" style="fill-rule:evenodd;clip-rule:evenodd;stroke-linecap:round;stroke-linejoin:round;stroke-miterlimit:1.5;">
    <g transform="matrix(1,0,0,1,-147.515,-363.681)">
        <g transform="matrix(1,0,0,1,-12.528,0)">
            <g transform="matrix(0.946007,-0.431631,0.490828,1.07575,-260.365,189.499)">
                <path d="M461.512,347.093C489.031,374.78 510.302,404.195 524.678,435.516C531.245,449.824 536.373,464.53 540,479.651C489.928,453.823 437.509,451.324 383.023,479.651C397.942,429.938 424.538,385.965 461.512,347.093Z" style="fill:#DE1D8D;"/>
            </g>
            <g transform="matrix(-0.946007,-0.431631,-0.490828,1.07575,1365.42,189.499)">
                <path d="M461.512,347.093C489.031,374.78 510.302,404.195 524.678,435.516C531.245,449.824 536.373,464.53 540,479.651C489.928,453.823 437.509,451.324 383.023,479.651C397.942,429.938 424.538,385.965 461.512,347.093Z" style="fill:#DE1D8D;"/>
            </g>
        </g>
        <g transform="matrix(1,0,0,1,-24.5738,0)">
            <g transform="matrix(1,0,0,1,-67.1553,-2.85767)">
                <g transform="matrix(0.995401,0.000237374,0.000237374,0.999988,2.18409,-0.11384)">
                    <path d="M472.44,720.757C383.636,711.7 306.019,716.963 241.998,739.627" style="fill:none;stroke:#DE1D8D;stroke-width:8.02px;"/>
                </g>
                <g transform="matrix(0.949294,-0.299441,0.301274,0.953525,-191.836,188.681)">
                    <path d="M472.467,723.458C392.517,720.313 315.531,725.259 241.998,739.627" style="fill:none;stroke:#DE1D8D;stroke-width:8.02px;"/>
                </g>
                <g transform="matrix(-0.949294,-0.299441,-0.301274,0.953525,964.572,93.2344)">
                    <path d="M512.346,725.674C438.429,714.822 362.067,718.669 284.173,731.722" style="fill:none;stroke:#DE1D8D;stroke-width:8.02px;"/>
                </g>
            </g>
            <g transform="matrix(-1,0,0,1,1196.3,-2.85767)">
                <g transform="matrix(0.995401,0.000237374,0.000237374,0.999988,2.18409,-0.11384)">
                    <path d="M472.44,720.757C383.636,711.7 306.019,716.963 241.998,739.627" style="fill:none;stroke:#DE1D8D;stroke-width:8.02px;"/>
                </g>
                <g transform="matrix(0.949294,-0.299441,0.301274,0.953525,-191.836,188.681)">
                    <path d="M472.467,723.458C392.517,720.313 315.531,725.259 241.998,739.627" style="fill:none;stroke:#DE1D8D;stroke-width:8.02px;"/>
                </g>
                <g transform="matrix(-0.949294,-0.299441,-0.301274,0.953525,964.572,93.2344)">
                    <path d="M512.346,725.674C438.429,714.822 362.067,718.669 284.173,731.722" style="fill:none;stroke:#DE1D8D;stroke-width:8.02px;"/>
                </g>
            </g>
        </g>
    </g>
</svg>
