<?xml version="1.0" encoding="UTF-8" standalone="no"?>
<!DOCTYPE svg PUBLIC "-//W3C//DTD SVG 1.1//EN" "http://www.w3.org/Graphics/SVG/1.1/DTD/svg11.dtd">
<svg width="100%" height="100%" viewBox="0 0 285 261" version="1.1" xmlns="http://www.w3.org/2000/svg" xmlns:xlink="http://www.w3.org/1999/xlink" xml:space="preserve" xmlns:serif="http://www.serif.com/" style="fill-rule:evenodd;clip-rule:evenodd;stroke-linejoin:round;stroke-miterlimit:2;">
    <g transform="matrix(1,0,0,1,-667.245,-751.374)">
        <g transform="matrix(0.965926,-0.258819,0.258819,0.965926,303.943,160.412)">
            <g transform="matrix(0.799209,3.05733e-16,-6.89785e-17,0.594377,-19.765,294.491)">
                <rect x="265.236" y="754.218" width="345.46" height="20.189" style="fill:rgb(46,38,109);"/>
            </g>
            <g transform="matrix(1.14421,2.82788e-16,-1.15713e-16,0.891566,-285.639,-113.654)">
                <path d="M658.926,960.036C658.926,956.012 656.38,952.746 653.245,952.746L624.228,952.746C621.093,952.746 618.547,956.012 618.547,960.036L618.547,974.617C618.547,978.641 621.093,981.908 624.228,981.908L653.245,981.908C656.38,981.908 658.926,978.641 658.926,974.617L658.926,960.036Z" style="fill:rgb(46,38,109);"/>
            </g>
            <g transform="matrix(0.514157,-6.24943e-17,-2.56486e-16,1.1258,144.45,-89.8071)">
                <path d="M610.215,753.827C610.244,753.426 610.982,753.111 611.861,753.124C612.74,753.137 613.43,753.474 613.401,753.876C614.121,774.226 606.474,786.366 593.831,794.149C579.064,803.24 557.39,806.567 532.53,809.471C520.513,810.875 507.717,812.181 494.567,814.118C486.856,815.253 478.996,816.58 471.137,818.341C466.981,819.229 462.001,821.24 456.121,823.834C449.275,826.853 441.539,830.65 433.175,834.786C414.842,843.852 393.822,854.528 373.692,862.65C353.442,870.82 334.056,876.327 319.271,875.405C318.394,875.373 317.74,875.021 317.81,874.621C317.881,874.221 318.65,873.922 319.527,873.954C329.553,874.065 340.815,870.788 352.822,865.817C361.341,862.289 370.049,857.884 378.879,853.133C391.197,846.506 403.472,839.194 415.056,832.54C424.07,827.362 432.653,822.593 440.366,818.817C448.887,814.647 456.683,811.697 462.723,810.336C471.565,808.44 480.346,806.961 489.037,805.823C502.796,804.022 516.198,802.967 528.822,801.87C550.772,799.962 570.225,798.08 584.549,790.707C597.76,783.907 606.775,772.854 610.215,753.827Z" style="fill:rgb(46,38,109);"/>
            </g>
            <g transform="matrix(0.845325,4.69249e-17,-4.69249e-17,0.845325,78.9908,142.17)">
                <g transform="matrix(0.00462958,-0.999989,0.999989,0.00462958,-767.617,996.716)">
                    <path d="M116.661,917.09C125.305,838.954 142.593,838.954 151.238,847.912C159.882,856.871 159.882,874.788 151.238,892.705C145.187,906.143 129.627,919.581 116.661,928.54C103.694,919.581 88.134,906.143 82.083,892.705C73.439,874.788 73.439,856.871 82.083,847.912C90.728,838.954 108.016,838.954 116.661,917.09Z" style="fill:rgb(222,29,141);"/>
                </g>
                <g transform="matrix(1,0,0,1,-9.33189,-15.0746)">
                    <path d="M162.635,899.375C162.635,899.375 205.554,868.3 239.738,868.059C256.765,867.939 272.146,871.765 283.076,877.715C293.412,883.341 299.767,890.974 299.767,899.375C299.767,907.776 293.412,915.408 283.076,921.035C272.146,926.984 256.764,930.88 239.738,930.69C207.24,930.329 162.635,899.375 162.635,899.375Z" style="fill:rgb(222,29,141);"/>
                </g>
                <g transform="matrix(1,0,0,1,14.452,5.72058)">
                    <ellipse cx="258.715" cy="867.389" rx="3.675" ry="4.135" style="fill:white;"/>
                </g>
            </g>
        </g>
    </g>
</svg>
