<?xml version="1.0" encoding="UTF-8" standalone="no"?>
<!DOCTYPE svg PUBLIC "-//W3C//DTD SVG 1.1//EN" "http://www.w3.org/Graphics/SVG/1.1/DTD/svg11.dtd">
<svg width="100%" height="100%" viewBox="0 0 455 416" version="1.1" xmlns="http://www.w3.org/2000/svg" xmlns:xlink="http://www.w3.org/1999/xlink" xml:space="preserve" xmlns:serif="http://www.serif.com/" style="fill-rule:evenodd;clip-rule:evenodd;stroke-linecap:round;stroke-linejoin:round;stroke-miterlimit:10;">
    <g transform="matrix(1,0,0,1,-82.9244,-515.48)">
        <g transform="matrix(2,0,0,2,-617.666,83.2131)">
            <g transform="matrix(0.275588,0,0,-0.275663,350.295,470.111)">
                <path d="M464.941,703.574C464.508,705.484 463.594,699.891 462.781,698.105C461.227,694.691 459.621,691.305 457.953,687.945C453.266,678.516 448.055,669.348 443.059,660.082C433.906,643.098 398.863,575.441 418.57,557.672C425.945,551.02 438.363,572.512 441.055,576.625C457.824,602.227 469.637,631.133 495.781,648.563L464.941,703.574ZM514.285,622.543L514.23,622.605C514.262,622.609 514.281,622.586 514.285,622.543L546.867,584.137C534.249,584.137 520.634,565.219 509.657,546.61C501.859,533.389 495.393,520.325 491.563,514.309C488.82,510 476.891,487.777 468.996,494.645C449.652,511.465 486.805,575.383 496.098,590.594C500.176,597.273 504.418,603.848 508.539,610.496C508.77,610.871 514.387,621.605 514.285,622.543ZM568.777,558.641L568.352,559.059C568.949,560.066 569.016,559.707 568.777,558.641L621.344,507.34C601.703,519.809 536.609,364.352 509.766,386.426C487,405.141 538.277,489.793 547.703,508.508C550.473,514.004 550.211,513.492 552.777,518.953C557.312,528.598 561.984,538.25 565.531,548.313C566.371,550.699 568.27,556.332 568.777,558.641ZM652,467.602L651.992,467.613C652,467.617 652.004,467.613 652,467.602L694.59,402.926C694.086,403.59 691.633,403.145 691.004,402.934C665.707,394.395 610.555,292.098 586.883,313.652C563.281,335.145 618.937,405.402 629.734,423.91C634.441,431.98 651.863,466.836 652,467.602ZM760.801,299.449C759.82,300.031 752.246,298.855 752.16,298.832C743.066,296.543 736.84,291.066 730.242,284.59C719.703,274.234 678.406,215.852 662.805,228.566C643.68,244.152 689.18,305.402 697.422,319.277C704.121,330.555 710.059,342.262 714.457,354.629C715.629,357.926 716.809,361.25 717.379,364.715C717.68,366.535 715.809,371.246 717.363,370.254L760.801,299.449C760.879,299.402 760.914,299.348 760.906,299.281L760.801,299.449" style="fill:rgb(255,115,92);"/>
            </g>
            <g transform="matrix(0.0275588,0,0,0.0275663,350.295,215.981)">
                <path d="M333.555,5297.51C336.953,5275.72 431.211,5255.83 444.922,5251.89C573.164,5215.05 708.203,5191.85 841.719,5188.92M195.977,5131.42C196.094,5132.4 195,5129.39 195.469,5128.53C202.07,5116.46 224.609,5108.92 235.82,5103.45C272.813,5085.52 311.563,5071.57 350.742,5059.23C466.445,5022.71 586.797,4999.11 707.93,4992.08M256.641,4633.33C255.586,4632.63 290.039,4612.98 291.563,4612.28C319.609,4599.47 349.102,4590.01 378.555,4580.99C465.156,4554.47 554.219,4538.92 644.414,4531.5M81.328,4461.65C196.953,4425.01 392.031,4379.15 513.828,4373.02M3037.5,5421.34C3036.02,5419 3058.98,5460.95 3064.02,5468.22C3141.29,5580.13 3230.43,5681.85 3328.67,5775.87C3547.03,5984.9 4552.54,7386.42 4831.88,7497.71M2926.02,3447.9C2690.98,3722.16 2585.43,4376.15 2585.43,4376.15M2536.56,3119.04C2409.18,3107.63 1875.31,3847.04 1635.08,3983.14C1216.25,4220.4 361.406,4136.77 142.539,4251.97C7.148,4323.26 -39.531,4528.49 321.992,4674.43C781.992,4860.17 1589.57,4615.56 2347.77,4580.32M3756.64,3381.34C3516.33,3329.86 2643.09,4438.69 2306.88,4617.16C1619.49,4982.12 448.164,4724.39 154.844,4851.57C-46.445,4938.8 276.758,5349.39 546.992,5380.09C772.227,5405.68 2463.24,5550.95 2626.48,5533.22C3044.53,5487.79 3672.97,4927.9 4018.44,4696.69M3160.94,687.552C3173.87,645.364 3192.5,604.388 3211.68,564.739C3280.27,423.02 3370.94,289.778 3461.99,161.575C3463.12,159.973 3477.03,137.356 3480.12,137.981C3491.91,140.325 4063.71,586.927 4211.13,1058.49C4257.31,1206.22 4714.38,2355.05 5096.91,2929.27C5519.88,3564.19 6044.45,3797.43 6748.98,4867.98C7827.15,6506.19 7676.95,6449.9 8203.94,7078.76M2728.32,2747.47C2739.92,2737.67 2866.33,2764.39 2904.96,2769.08C3094.18,2792.01 3275.35,2830.83 3456.13,2891.11M2603.12,2548.41C2599.65,2544.97 2618.05,2544.31 2619.02,2544.23C2641.09,2542.51 2663.24,2541.54 2685.35,2540.09C2747.03,2535.95 2808.67,2531.22 2870.43,2527.98C3055.78,2518.14 3241.8,2516.22 3425.66,2545.17M2457.62,2448.64C2447.07,2455.56 2480.35,2437.75 2491.64,2432.2C2510.55,2422.94 2529.3,2413.45 2548.32,2404.54C2617.81,2372.08 2689.38,2343.53 2761.09,2316.54C2975.39,2235.95 3199.61,2176.54 3427.81,2153.53M2099.34,2853.84C2447.73,2945.25 2334.3,2600.72 2334.3,2600.72M3212.34,510.872C3208.91,516.927 3194.77,516.927 3189.02,518.411C2867.73,601.966 2500.35,684.973 2267.23,937.552C1994.65,1232.83 2032.34,1614.66 2015.7,1984.19C2006.52,2187.94 1880.51,2366.38 1874.45,2541.18C1865.51,2801.07 2472.77,3122.51 2692.27,3151.81M2491.56,751.653C2485.2,772.356 2493.44,708.294 2496.8,686.888C2501.8,654.661 2508.95,622.747 2516.72,591.106C2522.89,566.028 2529.61,541.067 2536.37,516.145C2571.72,385.989 2621.64,150.403 2722.93,49.114C2729.53,42.513 2766.45,68.02 2771.21,70.755C2942.73,169.7 3048.48,339.973 3209.3,447.161" style="fill:none;fill-rule:nonzero;stroke:rgb(46,38,109);stroke-width:85px;"/>
            </g>
            <g transform="matrix(-0.00462218,0.275624,-0.275549,-0.00462343,478.696,211.031)">
                <path d="M243.566,210.116C245.712,215.323 247.215,221.08 246.419,226.738C246.164,228.54 245.617,231.799 243.566,232.475C241.779,233.067 237.658,229.886 237.271,220.559C236.699,206.684 242.279,206.989 243.566,210.116" style="fill:rgb(46,38,109);"/>
            </g>
            <g transform="matrix(0.275588,0,0,-0.275663,350.295,300.227)">
                <path d="M274.937,283.434C269.426,283.492 262.969,247.621 266.402,242.844C266.402,242.844 291.832,249.797 296.652,251.402C299.684,252.41 279.664,283.387 274.937,283.434ZM351.773,269.758C344.734,273.668 327.852,237.266 332.398,231.863C339.367,223.586 371.48,221.844 376.313,225.703C378.84,227.727 356.473,267.145 351.773,269.758ZM188.238,49.004C186.016,54.457 195.129,57.051 197.539,57.703C215.531,62.559 199.434,21.566 188.238,49.004" style="fill:rgb(222,29,141);"/>
            </g>
        </g>
    </g>
</svg>
