<?xml version="1.0" encoding="UTF-8" standalone="no"?>
<!DOCTYPE svg PUBLIC "-//W3C//DTD SVG 1.1//EN" "http://www.w3.org/Graphics/SVG/1.1/DTD/svg11.dtd">
<svg width="100%" height="100%" viewBox="0 0 481 375" version="1.1" xmlns="http://www.w3.org/2000/svg" xmlns:xlink="http://www.w3.org/1999/xlink" xml:space="preserve" xmlns:serif="http://www.serif.com/" style="fill-rule:evenodd;clip-rule:evenodd;stroke-linejoin:round;stroke-miterlimit:2;">
    <g transform="matrix(1,0,0,1,-2557.12,-1094.66)">
        <g transform="matrix(2,0,0,2,1822.5,0)">
            <g transform="matrix(1,0,0,1,-119.022,5.5528)">
                <g transform="matrix(0.425884,0,0,-0.426582,486.33,738.954)">
                    <path d="M270.902,311.004C269.953,312.672 257.977,312.418 256.527,310.695C255.078,308.977 262.215,300.676 262.215,300.676C262.215,300.676 271.852,309.332 270.902,311.004ZM387.961,30.773L384.375,31.168C384.273,30.637 386.004,30.621 387.961,30.773ZM450.289,110.012C447.035,94.066 448.586,77.398 439.434,63.082C429.41,47.395 411.355,35.316 393.191,31.414C393.059,31.387 390.34,30.957 387.961,30.773L398.555,29.602C462.703,35.914 498.52,52.801 531.867,108.457C540.199,122.363 558.156,154.336 542.926,169.633C515.883,196.797 455.563,135.855 450.289,110.012ZM322.492,388.656C318.25,390.922 303.617,375.102 307.063,371.641C313.453,365.219 328.461,370.098 329.652,372.941C330.578,375.137 324.988,387.324 322.492,388.656ZM560.004,300.277C556.629,315.32 546.012,319.18 541.16,307.133C529.855,311.598 523.645,293.965 528.691,284.359C525.043,279.441 521.797,273.965 520.762,268.125C519.164,259.117 526.648,253.148 529.195,245.16C532.953,233.391 525.66,195.793 549.656,199.703C557.828,201.035 558.887,217.195 559.816,223.301C563.574,248.016 565.52,275.684 560.004,300.277ZM308.684,206.793C300.887,220.32 270.23,211.633 268.832,198.777L267.391,184.59C261.742,165.781 262.684,139.242 272.969,121.457C280.699,108.094 302.184,107.41 307.09,124.215C309.758,133.363 302.215,142.961 302.477,152.285C302.984,170.449 319.297,188.387 308.684,206.793ZM421.41,201.535C424.777,196.063 425.734,189.023 429.898,184.066C446.719,164.051 467.777,204.113 465.395,219.914C462.156,241.387 440.621,231.941 435.262,242.082L433.52,243.918C424.352,249.891 406.078,231.082 405.523,222.707C404.914,213.523 417.109,208.52 421.41,201.535ZM469.27,357.563C480.109,352.223 487.809,365.809 497.711,365.691C504.785,365.602 510.328,357.359 517.746,361.793C521.988,364.332 524.332,369.215 525.074,373.945C528.379,395.055 507.898,406.652 494.41,418.227C491.141,421.027 482.172,432.625 477.313,431.082L473.305,429.613C490.961,421.191 450.086,367.012 469.27,357.563ZM236.195,394.098C237.387,391.254 228.082,379.207 224.781,379.84C221.484,380.469 213.645,395.301 216.395,397.883C219.68,400.969 234.34,398.523 236.195,394.098" style="fill:rgb(255,115,92);"/>
                </g>
                <g transform="matrix(0.425884,0,0,-0.426582,486.33,738.954)">
                    <path d="M270.902,311.004C269.953,312.672 257.977,312.418 256.527,310.695C255.078,308.977 262.215,300.676 262.215,300.676C262.215,300.676 271.852,309.332 270.902,311.004ZM322.492,388.656C318.25,390.922 303.617,375.102 307.063,371.641C313.453,365.219 328.461,370.098 329.652,372.941C330.578,375.137 324.988,387.324 322.492,388.656ZM236.195,394.098C237.387,391.254 228.082,379.207 224.781,379.84C221.484,380.469 213.645,395.301 216.395,397.883C219.68,400.969 234.34,398.523 236.195,394.098" style="fill:rgb(222,29,141);"/>
                </g>
                <g transform="matrix(0.425884,0,0,-0.426582,486.33,727.248)">
                    <path d="M254.707,301.805C255.031,300.32 254.09,298.855 252.609,298.531C251.082,298.199 249.449,297.84 247.699,297.84C246.094,297.84 244.391,298.141 242.574,299.027C240.047,300.258 238.641,301.609 238.398,303.035C238.238,303.969 238.539,304.93 239.203,305.602C240.27,306.684 242.012,306.691 243.094,305.625C243.352,305.371 243.551,305.074 243.684,304.758C244.086,304.48 244.676,304.129 245.016,303.953C246.98,302.996 248.566,303.277 251.434,303.906C252.918,304.23 254.383,303.289 254.707,301.805ZM292.957,303.973C293.621,302.605 293.051,300.961 291.684,300.301C289.813,299.391 285.941,297.516 282.008,297.516C279.836,297.516 277.648,298.086 275.766,299.707C274.613,300.695 274.484,302.43 275.477,303.582C276.465,304.734 278.199,304.863 279.352,303.875C281.074,302.395 284.324,302.844 289.285,305.25C290.648,305.91 292.297,305.34 292.957,303.973ZM345.219,349.383C345.352,347.039 343.563,345.031 341.219,344.895C341.137,344.891 341.055,344.891 340.973,344.891C338.734,344.891 336.863,346.637 336.734,348.898C336.605,351.145 335.348,358.238 332.887,365.211C329.801,373.965 327.102,375.945 326.547,375.996C320.645,374.766 313.23,367.195 308.324,362.188C307.59,361.438 306.895,360.723 306.242,360.07C304.742,358.57 301.48,354.102 299.777,351.637C298.445,349.707 295.797,349.223 293.867,350.559C291.934,351.895 291.453,354.543 292.785,356.473C293.281,357.188 297.703,363.547 300.227,366.074C300.863,366.715 301.539,367.406 302.254,368.133C308.215,374.223 316.379,382.559 324.805,384.313C326.602,384.688 329.371,384.664 332.313,382.406C340.84,375.863 344.977,353.648 345.219,349.383ZM515.844,66.727C491.168,30.605 454.816,11.887 397.977,6.035C381.434,4.328 365.426,3.191 351.434,7.953C339.379,12.055 327.203,20.187 314.32,32.75C319.57,33.398 324.676,33.75 329.641,33.672C329.664,33.668 329.688,33.668 329.711,33.668C332.027,33.668 333.922,35.527 333.961,37.852C334,40.195 332.129,42.129 329.781,42.168C313.613,42.453 295.734,38.355 278.441,34.414C258.797,29.934 238.477,25.301 220.648,26.965C184.883,30.309 156.734,47.77 136.992,78.871C115.098,113.355 103.914,163.984 103.746,229.359C103.738,232.914 103.137,316.414 69.793,316.414L69.742,316.414C41.395,316.34 37.754,288.848 35.098,268.773C33.738,258.484 32.332,247.848 28.215,245.152C27.719,244.832 26.207,243.84 22.344,244.953C15.746,246.855 11.609,251.148 9.691,258.074C4.129,278.148 19.191,313.941 31.672,327.352C43.234,339.777 60.156,345.02 78.098,341.742C97.043,338.277 113.043,325.781 119.852,309.129C126.938,291.785 125.941,272.137 124.98,253.137C124.648,246.637 124.309,239.922 124.301,233.414C124.277,214.699 126.098,185.809 134.902,154.422C143.121,125.129 155.324,101.172 171.172,83.211C190.699,61.074 211.398,50.34 236.309,49.43C258.59,48.617 281.543,55.535 308.117,63.555L308.309,63.609C310.023,64.129 311.738,64.648 313.453,65.172C324.82,68.629 336.574,72.203 348.328,74.352C350.637,74.773 352.164,76.992 351.742,79.301C351.32,81.609 349.105,83.133 346.797,82.715C334.566,80.477 322.574,76.832 310.98,73.305C309.27,72.785 307.563,72.262 305.852,71.75L305.664,71.691C299.563,69.852 293.66,68.07 287.934,66.434C275.508,90.449 268.043,114.277 266.855,133.809C263.121,195.344 307.508,258.367 367.91,277.289C401.23,287.727 435.559,286.063 459.738,272.824C470.527,266.922 482,257.016 481.695,249.215C481.605,246.871 483.434,244.895 485.777,244.805C488.133,244.738 490.098,246.539 490.191,248.887C490.805,264.695 468.332,277.813 463.82,280.281C450.102,287.793 433.453,291.883 415.605,292.48C426.289,296.883 437.309,301.246 448.379,300.793C450.703,300.703 452.699,302.523 452.797,304.867C452.891,307.215 451.066,309.191 448.723,309.289C435.355,309.84 422.461,304.508 411.086,299.813L409.117,299C405.113,297.352 401.113,295.691 397.125,294.012L396.195,293.625C395.199,293.207 394.211,292.793 393.227,292.363C392.73,292.148 392.219,291.852 391.684,291.535C391.273,291.449 390.887,291.289 390.516,291.086C382.164,289.906 373.73,288.02 365.367,285.402C334.488,275.727 306.527,255.031 286.637,227.125C286.586,227.055 286.539,226.988 286.492,226.922C285.73,227.098 284.91,227.07 284.117,226.789C270.441,221.902 257.52,217.289 238.176,233.207C233.617,236.957 226.105,245.32 222.34,250.504C230.09,249.59 237.738,249.527 245.141,249.602C246.34,249.613 247.504,249.617 248.641,249.625C265.246,249.711 277.246,249.77 285.766,269.02C285.906,269.344 285.992,269.676 286.051,270.008C288.852,270.141 291.797,270.563 295.098,271.949C301.469,274.625 308.234,278.383 314.633,282.965C317.883,281.961 321.02,280.793 324.02,279.441C324.383,279.277 324.77,279.199 325.145,279.199C326.195,279.199 327.195,279.805 327.656,280.82C328.277,282.207 327.66,283.836 326.277,284.457C324.211,285.387 322.086,286.234 319.91,287.012C321.973,288.703 323.969,290.48 325.871,292.336C327.012,292.137 328.156,291.934 329.324,291.699C329.504,291.664 329.684,291.648 329.863,291.648C331.148,291.648 332.297,292.555 332.559,293.859C332.852,295.352 331.887,296.797 330.395,297.094C330.391,297.098 330.383,297.098 330.375,297.098C331.516,298.41 332.609,299.75 333.637,301.121C336.059,302.012 337.836,302.441 339.41,302.813C342.32,303.508 344.836,304.105 347.703,306.941C350.539,309.75 352.371,313.66 354.488,318.191C358.422,326.598 362.879,336.129 375.129,342.355C377.223,343.418 378.055,345.977 376.992,348.066C375.926,350.16 373.371,350.996 371.277,349.93C356.422,342.379 350.855,330.48 346.789,321.793C345.016,318 343.484,314.723 341.727,312.984C341.133,312.398 340.672,312.07 340.008,311.805C340.484,312.871 340.926,313.949 341.313,315.039C342.098,317.25 340.945,319.68 338.734,320.465C336.523,321.254 334.09,320.098 333.305,317.887C330.848,310.98 326.148,304.469 320.336,298.719C312.41,299.711 304.965,299.902 297.805,299.281C294.961,299.031 292.391,298.676 289.957,298.195C287.293,297.68 286.242,297.273 285.652,296.031C285.277,295.238 285.301,294.301 285.715,293.531C286.43,292.191 288.098,291.691 289.437,292.41C289.453,292.418 289.473,292.43 289.488,292.438C289.895,292.551 290.656,292.727 291.016,292.797C293.262,293.242 295.637,293.57 298.281,293.801C303.59,294.262 309.082,294.238 314.84,293.762C313.227,292.434 311.563,291.16 309.863,289.949C306.871,290.648 303.809,291.227 300.672,291.66C300.148,291.734 299.574,291.832 298.969,291.934C296.355,292.375 293.102,292.926 290.402,292.191C288.937,291.793 288.074,290.281 288.473,288.816C288.871,287.352 290.387,286.484 291.848,286.887C293.379,287.301 295.969,286.863 298.051,286.512C298.711,286.398 299.344,286.293 299.918,286.211C301.07,286.055 302.215,285.871 303.348,285.672C299.48,283.352 295.566,281.367 291.805,279.785C288.574,278.43 285.656,278.441 282.273,278.441C280.023,278.449 277.691,278.453 275.051,278.086C273.051,277.809 271.059,277.211 269.133,276.633C266.242,275.766 263.254,274.867 261.203,275.426C260.133,275.719 258.914,277.316 257.738,278.859C256.465,280.531 255.02,282.426 253.016,283.793C251.48,284.84 249.824,285.586 248.121,286.176C247.93,286.313 247.727,286.434 247.496,286.52C247.188,286.633 246.867,286.68 246.555,286.68C245.066,287.117 243.555,287.469 242.063,287.813C241.051,288.043 240.105,288.266 239.23,288.496C240.848,288.656 242.531,288.77 244.215,288.789C245.266,288.801 246.074,288.777 246.82,288.711C247.133,288.625 247.691,288.445 247.813,288.406L248.711,291.004L251.41,291.512C251.02,293.617 248.57,294.07 247.543,294.168C246.559,294.266 245.48,294.301 244.156,294.289C240.504,294.25 236.945,293.809 233.949,293.379C233.23,293.277 232.535,293.16 231.828,293.051C231.77,293.172 231.707,293.293 231.652,293.426C230.379,296.461 230.77,300.477 231.18,304.727C231.496,308.043 231.828,311.473 231.402,314.824C230.695,320.359 224.965,336.613 224.313,338.449C223.926,339.531 223.125,340.41 222.09,340.887C217.422,344.309 202.785,373.301 201.887,380.535C204.23,381.773 212.473,383.734 240.18,378.117L240.48,378.059C242.781,377.59 245.023,379.078 245.488,381.379C245.957,383.68 244.469,385.922 242.168,386.387L241.867,386.449C240.906,386.645 239.965,386.832 239.035,387.012C240.645,388.895 242.465,391 243.898,392.664C245.012,393.953 245.965,395.055 246.543,395.734C252.301,402.48 259.523,410.086 269.437,415.316C284.77,423.41 300.789,422.813 317.742,422.184C328.352,421.789 339.316,421.383 350.387,423.172C438.699,437.441 504.949,402.953 536.93,326.059C568.941,249.082 559.285,130.324 515.844,66.727ZM202.309,264.289C185.754,271.254 183.172,274.008 182.828,274.484C182.02,275.676 182.199,279.988 183.898,285.133C187.227,295.211 194.957,303.938 202.43,312.379C203.457,313.539 204.477,314.688 205.469,315.828L206.832,317.387C209.848,320.84 212.965,324.406 215.977,327.996L216.945,329.152C217.32,329.598 217.695,330.047 218.066,330.492C220.223,324.105 222.625,316.445 222.969,313.75C223.277,311.34 223.004,308.523 222.719,305.547C222.289,301.094 221.813,296.102 223.328,291.453C216.449,289.93 210.34,287.965 204.867,285.488C203.484,284.863 202.867,283.234 203.492,281.852C203.953,280.836 204.953,280.234 206.004,280.234C206.379,280.234 206.766,280.313 207.133,280.477C212.652,282.973 218.898,284.93 226.035,286.414C227.551,284.57 229.406,283.266 231.398,282.289C222.945,278.996 216.621,275.563 211.727,271.625C210.543,270.676 210.355,268.945 211.305,267.762C211.848,267.086 212.648,266.734 213.449,266.734C214.055,266.734 214.664,266.934 215.172,267.34C220.375,271.523 227.496,275.141 237.586,278.727C238.348,278.996 239.168,279.277 240.016,279.559C240.063,279.551 240.113,279.539 240.16,279.527C243.281,278.809 246.227,278.133 248.227,276.77C249.094,276.18 250.008,274.98 250.977,273.707C252.82,271.289 255.117,268.273 258.973,267.227C263.367,266.027 267.727,267.336 271.574,268.492C273.27,269 274.867,269.48 276.215,269.668C276.367,269.688 276.52,269.695 276.672,269.715C270.656,258.242 263.363,258.199 248.598,258.125C247.449,258.117 246.27,258.109 245.055,258.102C230.613,257.953 216.492,258.316 202.309,264.289ZM544.777,329.32C527.777,370.199 501.379,399.785 466.313,417.258C432.875,433.922 393.414,438.73 349.031,431.563C338.789,429.906 328.25,430.301 318.059,430.676C300.727,431.32 282.813,431.984 265.469,422.836C254.289,416.934 246.359,408.613 240.078,401.254C239.504,400.582 238.566,399.492 237.465,398.215C234.738,395.059 231.082,390.824 229.359,388.715C210.34,391.68 199.535,390.719 194.922,385.809C192.824,383.57 193.234,380.293 193.828,377.68C195.355,370.957 200.402,360.141 204.613,352.262C208.305,345.352 211.105,340.984 213.227,338.191C213.129,338.047 213.039,337.91 212.965,337.797C212.785,337.516 212.605,337.223 212.488,337.066C211.813,336.25 211.129,335.438 210.445,334.629L209.465,333.461C206.508,329.938 203.418,326.398 200.43,322.977L199.066,321.418C198.086,320.289 197.078,319.156 196.066,318.012C188.398,309.352 179.703,299.535 175.828,287.797C174.324,283.25 172.32,274.848 175.781,269.727C178.098,266.301 185.043,262.332 199.102,256.418C203.324,254.637 207.563,253.312 211.785,252.324C212.258,250.336 214.035,246.867 219.973,239.828C224.355,234.637 229.5,229.336 232.777,226.641C244.727,216.809 255.113,213.727 264.285,213.727C269.785,213.727 274.844,214.84 279.535,216.266C264.129,190.488 256.66,161.461 258.371,133.293C259.973,106.937 271.48,80.066 279.57,64.125C240.637,53.805 209.578,52.52 177.543,88.832C144.465,126.324 132.742,188.094 132.801,233.402C132.809,239.699 133.129,246.016 133.469,252.707C134.48,272.637 135.523,293.25 127.719,312.348C119.824,331.656 101.398,346.125 79.629,350.102C58.777,353.914 39.027,347.73 25.453,333.145C11.531,318.188 -5.125,279.711 1.5,255.805C4.195,246.074 10.59,239.5 19.988,236.789C25.035,235.332 29.367,235.754 32.867,238.043C40.246,242.867 41.766,254.355 43.527,267.66C46.641,291.199 50.344,307.863 69.766,307.914L69.789,307.914C87.207,307.914 95.16,261.977 95.246,229.336C95.418,162.332 107.051,110.176 129.816,74.316C151.043,40.879 181.336,22.102 219.855,18.504C239.043,16.707 260.031,21.496 280.336,26.125C288.484,27.984 296.426,29.797 304.109,31.18C304.289,30.855 304.512,30.551 304.781,30.273C319.906,14.75 334.27,4.816 348.695,-0.094C357.156,-2.973 366.027,-3.945 375.168,-3.945C382.898,-3.945 390.82,-3.25 398.848,-2.422C458.402,3.711 496.648,23.562 522.863,61.934C545.125,94.523 559.48,140.988 563.289,192.77C566.945,242.469 560.195,292.242 544.777,329.32" style="fill:rgb(46,38,109);fill-rule:nonzero;"/>
                </g>
            </g>
        </g>
    </g>
</svg>
