<?xml version="1.0" encoding="UTF-8" standalone="no"?>
<!DOCTYPE svg PUBLIC "-//W3C//DTD SVG 1.1//EN" "http://www.w3.org/Graphics/SVG/1.1/DTD/svg11.dtd">
<svg width="100%" height="100%" viewBox="0 0 425 357" version="1.1" xmlns="http://www.w3.org/2000/svg" xmlns:xlink="http://www.w3.org/1999/xlink" xml:space="preserve" xmlns:serif="http://www.serif.com/" style="fill-rule:evenodd;clip-rule:evenodd;stroke-linejoin:round;stroke-miterlimit:2;">
    <g transform="matrix(1,0,0,1,-1858.26,-96.1092)">
        <g transform="matrix(2,0,0,2,1822.5,0)">
            <g transform="matrix(0.301774,0,0,-0.302389,17.8811,239.331)">
                <path d="M361.191,459.211C360.824,459.336 360.516,459.332 361.164,459.102C366.094,457.324 373.652,455.707 377.902,459.719C380.633,462.301 381.352,466.371 384.148,468.832C387.027,471.363 391.121,471.996 394.125,474.418C401.656,480.496 399.195,493.18 393.344,499.359C377.969,515.586 376.527,497.402 371.984,487.074C368.816,479.867 364.848,473.023 361.598,465.84L361.191,459.211ZM32.406,372.922C32.262,372.766 31.562,372.516 31.492,372.52C29.113,372.543 26.648,373.852 25.613,376.051C23.68,380.148 25.809,385.066 28.469,388.281C35.723,397.043 38.215,389.77 44.355,391.957C44.988,392.184 45.598,392.535 46.156,392.906C50.227,395.617 58.203,405.438 63.828,400.074C65.094,398.867 65.273,397.012 64.73,395.422C61.918,387.188 39.984,387.688 32.613,372.164L32.406,372.922C32.445,372.965 32.441,373.004 32.375,373.027L32.406,372.922ZM343.68,347.723C339.418,354.113 336.68,362.09 341.355,368.754C342.574,370.496 345.629,372.555 346.094,374.656C347.82,382.41 339.117,399.68 357.676,398.07C370.441,396.965 375.098,381.012 371.793,370.473C370.41,366.066 366.629,362.539 365.891,357.992C364.902,351.906 369.078,342.359 364.527,337.148C363.914,336.449 363.195,336.184 362.406,336.258C362.223,332.559 361.043,328.984 357.988,325.664C346.355,313.008 341.285,334.121 343.68,347.723ZM237.301,300.805C233.969,304.609 239.551,313.313 242.133,315.477C246.07,318.777 250.699,321.063 254.613,324.457C262.871,331.621 270.121,340 279.641,345.609C284.793,348.645 292.641,352.395 297.035,346.434C302.508,339.012 302.281,327.621 297.824,319.645C300.656,313.359 302.91,307.234 299.773,303.422C296.73,299.73 291.125,304.34 288.023,307.313C287.832,306.707 287.711,306.066 287.668,305.387C287.188,297.238 295.793,280.641 284.465,276.414C269.402,270.793 259.906,286.805 251.789,297.039C248.359,293.68 244.641,291.227 239.641,293.184C236.012,294.602 235.863,297.828 237.301,300.805ZM101.531,277.723C101.426,277.805 100.191,276.488 96.586,271.156C92.285,264.809 90.172,256.391 97.891,251.715C98.238,251.504 125.688,243.355 125.715,243.359C131.52,244.496 141.977,253.824 131.973,256.836L101.531,277.723ZM286.93,176.336C279.285,182.734 281.121,203.578 291.742,208.508C297.613,211.234 304.207,207.543 309.852,211.629C315.207,215.504 320.574,226.66 327.789,227.055C329.832,227.164 331.219,225.645 332.066,223.949C337.738,212.605 323.766,201.402 316.172,195.508C309.473,190.309 303.105,184.906 297.023,178.988L286.93,176.336ZM236.344,176.445C236.941,176.289 235.414,175.512 235.316,174.902C234.637,170.664 235.895,166.266 236.906,162.184C240.359,148.258 233.328,143.977 229.902,131.891C229.344,129.914 231.719,123.063 230.188,122.164C221.32,116.965 213.238,133.879 213.707,140.422C214.074,145.582 217.934,150.77 220.402,155.125C223.938,161.363 227.266,167.777 231.113,173.824L236.344,176.445" style="fill:rgb(255,115,92);"/>
            </g>
        </g>
        <g transform="matrix(2,0,0,2,1822.5,0)">
            <g transform="matrix(0.301774,0,0,-0.302389,17.8811,310.878)">
                <path d="M682.609,373.586C680.809,375.18 678.969,376.754 677.094,378.301C677.141,378.473 677.176,378.652 677.199,378.832C683.051,421.727 670.523,470.285 642.824,512.047C637.094,520.684 630.207,529.664 621.762,539.5C621.18,540.176 619.254,542.281 618.16,543.473C617.422,544.277 616.711,545.047 616.184,545.617C616.098,545.711 616.004,545.809 615.906,545.914C616.672,548.488 617.375,550.969 617.996,553.32C653.887,533.77 681.941,492.766 690.23,459.453C697.715,429.391 694.965,399.535 682.609,373.586ZM673.098,357.113C671.75,355.152 670.355,353.246 668.902,351.383C668.926,352.516 668.492,353.652 667.617,354.504C647.437,374.113 621.527,389.168 592.684,398.039C583.375,400.898 573.309,403.074 562.77,404.504C562.223,404.578 561.539,404.586 559.656,404.602C559.234,404.605 558.668,404.609 558.043,404.621C561.117,409.191 563.988,413.785 566.695,418.418C569.887,418.164 573.043,417.813 576.094,417.383C585.281,416.082 594.516,413.813 603.547,410.645C629.797,401.434 657.043,385.176 678.301,366.043C678.387,365.965 678.473,365.895 678.559,365.824C676.871,362.859 675.051,359.953 673.098,357.113ZM648.891,331.168C648.648,331.801 648.254,332.383 647.703,332.859C624.098,353.277 597.059,368.973 569.516,378.246C562.961,380.453 555.852,382.367 548.387,383.93C546.379,384.352 544.746,384.66 543.402,384.875C546.523,388.711 549.48,392.547 552.277,396.387C553.949,396.172 556.254,396.133 559.578,396.102C560.387,396.094 561.379,396.086 561.703,396.07C571.758,394.703 581.34,392.633 590.188,389.914C617.746,381.438 642.473,367.086 661.691,348.41C662.762,347.371 664.234,347.008 665.59,347.313C660.547,341.387 654.961,335.996 648.891,331.168ZM624.809,316.168C608.344,333.27 582.621,345.023 557.246,355.184L556.48,355.492C540.062,362.137 534.539,363.555 532.023,363.555C531.078,363.555 530.555,363.355 530.039,363.156C529.992,363.137 529.945,363.121 529.902,363.098C529.27,364.563 528.652,366.035 528.051,367.5C528.203,367.621 528.348,367.754 528.484,367.902C531.375,370.961 534.141,374.004 536.797,377.043C537.254,376.809 537.766,376.652 538.309,376.598C538.879,376.539 539.437,376.598 539.953,376.754C541.059,376.656 543.504,376.27 546.648,375.613C553.781,374.117 560.562,372.293 566.805,370.188C593.309,361.266 619.363,346.133 642.145,326.43C642.199,326.379 642.258,326.332 642.316,326.285C636.809,322.477 630.961,319.098 624.809,316.168ZM595.664,306.195C595.445,306.859 595.055,307.48 594.504,307.988C586.109,315.691 575.234,320.625 565.703,324.437C561.949,325.941 558.277,327.234 554.797,328.277C553.812,328.57 552.496,328.941 551.066,329.184C550.73,329.238 550.41,329.258 550.113,329.258C550.027,329.258 549.945,329.254 549.863,329.254C549.336,329.387 548.789,329.418 548.254,329.348C542.734,337.426 537.922,345.969 533.715,354.723C536.043,354.141 541.352,352.445 553.293,347.613L554.086,347.293C577.41,337.957 600.969,327.289 616.422,312.523C609.789,309.914 602.859,307.793 595.664,306.195ZM581.473,303.758C578.039,303.336 574.652,303.008 571.309,302.766C565.734,307.754 560.629,313.203 555.949,318.988C558.094,318.262 560.301,317.445 562.543,316.547C570.18,313.496 578.711,309.695 585.652,304.332C584.27,304.121 582.875,303.93 581.473,303.758ZM530.211,304.668C530.059,305.336 529.746,305.977 529.262,306.527C490.434,350.91 482.109,431.879 480.336,464.629C479.262,484.457 479.941,501.887 482.418,517.922C483.363,524.035 484.523,529.422 485.969,534.398C486.555,536.426 487.074,537.961 487.633,539.324C491.652,542.594 495.609,545.395 499.414,547.789C492.316,517.625 495.016,488.551 496.836,468.965C497.031,466.871 497.215,464.867 497.379,462.969C500.262,429.793 512.023,350.273 559.492,302.285C549.25,302.184 539.465,303 530.211,304.668ZM490.617,318.93C490.508,319.703 490.176,320.461 489.625,321.094C459.188,356.277 455.898,425.734 455.895,453.965L455.891,501.148C455.891,501.359 455.875,501.563 455.848,501.766C455.855,501.777 455.859,501.785 455.867,501.797C462.105,512.336 468.844,521.031 475.66,528.211C475.051,525.363 474.508,522.379 474.02,519.219C471.449,502.598 470.742,484.59 471.848,464.168C473.586,432.098 481.504,354.93 517.414,307.625C507.785,310.363 498.824,314.141 490.617,318.93ZM455.105,352.789C430.781,389.977 428.246,441.219 447.391,485.211L447.395,453.965C447.398,429.031 449.945,372.91 470.844,333.801C464.973,339.414 459.711,345.746 455.105,352.789ZM586.84,557.738C587.039,559.223 587.246,560.762 587.352,561.246C587.645,562.137 587.625,563.063 587.352,563.898C595.188,562.746 602.836,560.422 610.215,557.16C607.156,545.125 601.496,528.723 596.457,514.113C594.004,507 591.684,500.277 589.922,494.793C589.918,494.777 589.914,494.766 589.91,494.754C589.238,494.008 588.824,493.035 588.789,492C588.781,491.785 588.789,491.574 588.816,491.367C585.637,481.637 582.367,472.344 578.828,463.367C578.414,462.797 578.145,462.125 578.055,461.418C565.836,430.922 550.344,404.051 524.66,376.258C522.195,382.98 520.035,389.695 518.145,396.297C543.996,429.086 576.789,483.625 586.84,557.738ZM597.379,421.516C590.719,423.414 583.992,424.848 577.285,425.797C575.309,426.078 573.289,426.324 571.25,426.535C575.793,434.98 579.852,443.598 583.59,452.496C584.582,450.813 585.566,449.004 586.613,447.016C591.16,438.371 594.773,429.813 597.379,421.516ZM594.137,450.973C591.895,455.23 589.902,458.754 587.469,462.105C590.105,468.898 592.602,475.875 595.023,483.074C595.555,482.391 596.062,481.73 596.543,481.102C600.461,475.953 604.074,470.359 607.285,464.48C616.715,447.223 622.441,428.16 627.391,409.949C620.617,413.176 613.793,416.027 607.027,418.43C607.012,418.723 606.965,419.023 606.883,419.32C604.074,429.582 599.785,440.23 594.137,450.973ZM636.262,409.703C631.023,429.141 625.047,449.699 614.746,468.555C611.332,474.809 607.48,480.762 603.309,486.25C601.84,488.176 600.098,490.414 598.152,492.617C599.871,497.941 602.117,504.457 604.492,511.34C604.508,511.387 604.523,511.43 604.539,511.473C605.695,509.781 606.871,507.988 608.094,506.043C612.988,498.285 617.652,489.676 622.773,478.953C635.383,452.559 642.629,424.262 648.68,398.434C644.336,401.07 639.914,403.57 635.453,405.91C636.285,406.934 636.633,408.332 636.262,409.703ZM615.312,533.961C623.527,524.395 630.207,515.691 635.738,507.348C661.348,468.734 673.461,424.215 669.316,384.445C665.937,387 662.473,389.477 658.934,391.867C652.352,420.313 644.848,452.461 630.445,482.617C625.176,493.645 620.359,502.527 615.285,510.578C613.48,513.441 611.773,516.004 610.066,518.41C609.262,519.547 608.535,520.461 607.879,521.191C609.633,526.324 611.375,531.512 612.992,536.531C614.047,535.375 614.992,534.336 615.312,533.961ZM508.77,553.078C511.887,554.645 514.82,555.934 517.508,556.992C517.262,556.223 517.012,555.434 516.762,554.633C514.461,547.32 511.504,537.918 504.633,528.672C505.512,535.816 506.867,543.133 508.875,550.527C509.109,551.402 509.055,552.285 508.77,553.078ZM698.48,461.508C691.742,488.574 674.172,517.535 651.477,538.969C625.68,563.328 596.289,575.387 568.723,572.895C566.383,572.688 564.66,570.621 564.871,568.285C565.082,565.945 567.156,564.223 569.484,564.43C572.883,564.734 576.254,564.805 579.605,564.648C579.516,564.492 579.437,564.32 579.367,564.145C579.008,563.25 578.859,562.148 578.414,558.879C569.121,490.348 539.871,438.992 515.375,406.617C513.742,413.133 512.363,419.461 511.199,425.492C512.125,426.246 512.992,427.586 514.34,429.668C515.457,431.398 517.285,434.289 519.637,438.211C523.586,444.801 529.621,455.34 535.926,468.102C546.984,490.484 560.801,523.754 563.82,555.133C564.043,557.473 562.332,559.547 559.996,559.773C557.641,560.004 555.582,558.285 555.359,555.949C550.766,508.242 519.867,454.73 509.105,437.375C507.496,447.445 506.508,456.266 505.898,463.129C507.008,463.371 508.02,464.051 508.648,465.105C522.426,488.199 533.535,510.914 541.66,532.617C542.012,533.555 543.988,539.16 545.785,544.691C549.594,556.414 549.629,557.949 548.129,559.961C546.723,561.84 544.062,562.227 542.18,560.82C540.926,559.883 540.336,558.387 540.5,556.934C539.961,553.688 534.957,538.953 533.699,535.598C526.437,516.203 516.723,495.949 504.789,475.316C503.766,486.793 502.805,500.172 503.461,514.578C517.188,527.656 521.809,542.352 524.871,552.082C525.625,554.492 526.281,556.574 526.961,558.328C527.203,558.949 527.289,559.598 527.234,560.219C531.383,561.336 533.891,561.641 534.051,561.66C536.383,561.898 538.082,563.984 537.84,566.32C537.602,568.652 535.516,570.355 533.18,570.113C531.148,569.906 483.016,564.348 448.551,506.129C434.25,481.965 426.578,454.156 426.367,425.703C426.156,396.91 433.637,370.086 447.992,348.133C471.223,312.621 509.703,293.77 557.867,293.77C561.504,293.77 565.195,293.875 568.937,294.094C569.859,293.836 570.848,293.898 571.727,294.273C575.273,294.527 578.867,294.875 582.508,295.32C623.652,300.375 658.312,320.605 680.102,352.293C701.672,383.668 708.199,422.453 698.48,461.508" style="fill:rgb(222,29,141);fill-rule:nonzero;"/>
            </g>
        </g>
        <g transform="matrix(2,0,0,2,1822.5,0)">
            <g transform="matrix(0.301774,0,0,-0.302389,17.8811,226.43)">
                <path d="M492.258,479.73C492.48,481.051 495.836,481.582 499.738,480.918C503.645,480.254 506.633,478.641 506.406,477.32C506.184,476 502.828,475.469 498.926,476.133C495.02,476.797 492.031,478.41 492.258,479.73ZM473.066,445.539C462.602,442.719 454.551,440.48 446.969,438.277C446.754,438.215 446.539,438.187 446.328,438.187C445.336,438.187 444.426,438.836 444.133,439.836C443.781,441.047 444.48,442.316 445.691,442.668C453.309,444.879 461.383,447.125 471.875,449.953C474.73,450.723 477.805,451.543 480.961,452.316C482.188,452.617 483.426,451.867 483.727,450.641C484.027,449.414 483.277,448.176 482.051,447.875C478.937,447.113 475.895,446.301 473.066,445.539ZM436.172,471.156C436.207,472.426 437.281,473.449 438.539,473.387C448.723,473.082 459,472.016 468.59,470.91C472.148,470.5 475.824,470.074 479.465,469.254C480.703,468.973 481.48,467.742 481.199,466.504C480.957,465.434 480.012,464.707 478.957,464.707C478.789,464.707 478.621,464.727 478.449,464.766C475.055,465.531 471.5,465.941 468.063,466.34C458.574,467.434 448.414,468.488 438.402,468.789C437.129,468.828 436.133,469.887 436.172,471.156ZM467.156,455.758C453.316,454.711 442.055,453.453 431.707,451.789C431.586,451.77 431.461,451.758 431.34,451.758C430.23,451.758 429.254,452.566 429.074,453.695C428.871,454.949 429.723,456.129 430.977,456.332C441.453,458.016 452.84,459.289 466.809,460.344C470.027,460.586 473.496,460.793 477.727,460.992L479.676,461.078C480.41,461.109 481.141,461.141 481.875,461.176C483.168,461.234 484.223,460.258 484.281,458.988C484.344,457.723 483.367,456.645 482.098,456.582C481.355,456.543 480.613,456.516 479.871,456.48L477.941,456.398C473.754,456.199 470.328,455.996 467.156,455.758ZM563.234,303.508C563.195,303.191 562.039,301.734 557.082,300.457C556.453,300.293 555.891,300 555.422,299.609C550.258,303.109 543.703,307.332 535.863,312.355C523.141,320.508 509.984,328.941 504.699,333.613C490.824,345.879 485.211,363.277 479.266,381.699C473.867,398.422 468.285,415.719 456,429.449C454.434,431.199 451.746,431.344 450,429.781C448.25,428.215 448.102,425.527 449.664,423.781C460.75,411.395 465.813,395.703 471.176,379.086C477.211,360.391 483.449,341.055 499.07,327.246C504.848,322.137 518.281,313.527 531.277,305.199C543.738,297.211 559.25,287.27 561.543,284.234C561.988,283.648 562.117,282.492 561.961,281.562C556.855,282.918 543.887,288.734 539.277,290.805C536.27,292.152 534.66,292.871 533.848,293.172C525.227,296.336 516.121,298.941 507.316,301.465C482.555,308.559 459.168,315.258 442.883,333.648C435.668,341.793 428.258,350.906 420.227,361.504C417.883,364.602 415.867,367.367 414.066,369.957L413.625,370.59C412.531,372.16 411.395,373.781 410.715,375.305C410.641,375.5 410.555,375.687 410.453,375.875C409.352,377.871 406.859,378.656 404.82,377.637C403.352,376.902 401.641,374.754 402.941,371.867C403.953,369.594 405.391,367.535 406.66,365.723L407.086,365.109C408.953,362.418 411.035,359.562 413.453,356.371C421.613,345.598 429.16,336.32 436.52,328.012C436.922,327.559 437.324,327.109 437.734,326.672C435.395,321.477 434.539,313.926 433.367,303.586C430.965,282.391 427.336,250.352 407.613,209.262C401.66,196.863 391.32,183.207 380.375,168.75C356.277,136.93 328.969,100.863 340.215,65.391C344.633,51.465 365.875,30.402 366.777,29.512C367.156,29.137 367.605,28.836 368.102,28.625C373.789,26.211 375.23,24.496 375.555,23.98C374.941,23.059 371.813,20.586 363.098,18.297C356.758,16.633 351.148,16.043 348.824,16.094C345.207,21.035 331.43,40.676 322.863,52.883C317.309,60.805 313.293,66.527 312.531,67.57C300.309,84.324 297.762,87.809 299.016,109.562C299.289,114.262 299.598,119.27 300.148,124.273C300.195,124.715 300.316,125.645 300.461,126.754C300.656,128.25 300.891,130.059 301.059,131.504C301.137,132.187 301.215,132.852 301.25,133.484C308.902,138.668 316.844,143.668 324.516,148.496C339.262,157.781 353.191,166.555 362.055,174.852C363.77,176.453 363.859,179.145 362.258,180.859C360.652,182.57 357.965,182.66 356.25,181.059C347.977,173.316 334.379,164.754 319.984,155.691C289.957,136.781 255.926,115.352 248.207,88.824C243.066,71.164 246.813,44.437 256.559,29.246C259.789,24.203 263.656,19.977 267.395,15.883C269.34,13.758 271.211,11.711 272.973,9.59C261.98,6.785 257.891,8.332 255.566,10.102C251.707,13.047 249.535,19.895 246.785,28.562C244.281,36.445 241.168,46.258 235.605,57.043C232.934,62.219 221.129,89.625 217.914,97.105C221.363,103.465 224.984,109.848 228.5,116.035C232.613,123.281 236.84,130.73 240.852,138.25C241.582,137.703 242.301,137.191 243.004,136.711C244.945,135.387 247.59,135.887 248.91,137.824C250.234,139.766 249.734,142.406 247.797,143.73C232.313,154.297 209.867,181.996 223.973,218.793C224.813,220.984 223.715,223.441 221.523,224.281C219.332,225.117 216.875,224.023 216.035,221.832C215.469,220.355 214.953,218.891 214.488,217.437C208.438,217.793 200.879,213.527 190.73,207.777C167.359,194.535 132.039,174.527 91.973,199.543C64.645,216.613 72.129,249.555 79.367,281.414C82.633,295.789 85.719,309.367 85.305,320.84C84.797,334.758 79.109,343.75 67.91,348.32C46.152,357.207 36.84,339.695 30.043,326.91C24.602,316.684 21.559,312.008 17.121,313.344C10.082,315.457 7.461,319.504 8.875,326.07C12.438,342.613 41.574,368.051 65.125,364.922C79.121,363.062 88.566,358.535 94.004,351.09C103.742,337.742 99.727,315.363 95.844,293.719C91.523,269.656 87.059,244.777 100.016,228.238C108.203,217.785 122.176,212.062 142.727,210.738C160.281,209.609 185.203,210.426 204.234,220.723C215.602,226.871 220.102,234.98 224.453,242.824C227.32,247.992 230.031,252.875 234.738,257.609C252.145,275.098 270.594,291.898 288.434,308.145C294.363,313.547 300.301,318.953 306.227,324.406C312.078,329.793 317.754,336.156 324.621,345.039C336.996,361.039 345.891,379.234 353.258,395.035C355.344,399.508 357.895,405.305 360.848,412.016C375.645,445.633 400.414,501.902 430.75,538.949C440.836,551.27 462.215,570.133 471.773,578.238C474.844,567.02 477.16,550.141 475.875,537.879C475.707,536.254 476.48,534.676 477.871,533.816C485.449,529.141 506.207,515.496 511.164,508.637C514.324,504.258 513.922,498.902 513.453,492.695C513.219,489.621 512.98,486.441 513.207,483.254C513.492,479.289 515.191,476.113 516.691,473.312C517.996,470.867 519.129,468.758 519.273,466.418C519.328,465.52 519.352,464.645 519.355,463.781C518.891,463.68 518.453,463.422 518.152,463.02C518.07,462.906 517.996,462.789 517.941,462.664C517.836,462.488 517.711,462.273 517.656,462.156C517.527,461.883 517.348,461.594 517.125,461.293C516.297,460.184 515.211,459.148 514.363,458.375C511.012,455.316 503.236,457.079 499.6,459.377C499.016,459.746 497.64,459.905 497.051,459.352C496.622,458.949 496.924,457.961 497.1,457.535C497.416,456.773 498.044,456.152 498.637,455.649C499.237,455.14 499.932,454.75 501.12,454.063C505.175,451.718 513.344,452.078 517.035,455.445C517.574,455.941 518.203,456.539 518.832,457.199C517.82,451.426 515.375,446.621 511.496,442.859C499.453,431.191 477.09,431.91 468.035,432.762C465.676,432.988 463.625,431.266 463.402,428.93C463.184,426.594 464.898,424.52 467.238,424.301C468.359,424.195 469.57,424.098 470.848,424.02C472.457,420.266 475.07,415.242 477.832,409.941C481.156,403.555 484.594,396.949 486.578,392.02C488.523,387.187 490.172,382.234 491.766,377.445C496.832,362.207 502.078,346.453 517.121,335.078C518.5,334.035 521.254,332.551 526.41,329.797C533.578,325.973 543.391,320.734 551.309,315.324C563.5,306.996 563.238,303.543 563.234,303.508ZM484.859,552.051C487.133,555.668 490.875,559.023 494.492,562.27C495.188,562.895 495.891,563.523 496.586,564.164C496.832,560.281 496.855,555.098 496.875,550.855C496.906,544.027 496.937,537.07 497.492,531.07C492.254,534.734 487.371,537.883 484.559,539.66C484.813,543.488 484.785,547.555 484.563,551.664C484.66,551.793 484.773,551.91 484.859,552.051ZM571.676,302.5C573,313.59 552.914,325.289 530.414,337.297C526.848,339.199 523.16,341.168 522.246,341.859C509.309,351.641 504.914,364.844 499.828,380.129C498.195,385.039 496.504,390.117 494.465,395.191C492.324,400.508 488.789,407.297 485.371,413.867C483.5,417.461 481.695,420.926 480.273,423.863C492.551,424.23 507.367,427.023 517.41,436.758C525.062,444.172 528.547,454.332 527.758,466.949C527.496,471.137 525.738,474.422 524.184,477.324C522.926,479.676 521.84,481.703 521.684,483.863C521.5,486.422 521.707,489.156 521.926,492.055C522.445,498.926 523.035,506.719 518.055,513.613C515.926,516.559 511.945,520.152 507.387,523.758C505.477,529.473 505.418,541.289 505.375,550.895C505.305,565.637 505.141,572.281 501.902,575.266C501.07,576.031 499.879,576.461 498.746,576.414C496.77,576.328 495.437,575.031 494.02,573.473L494.004,573.449C492.445,571.855 490.684,570.273 488.816,568.598C486.988,566.957 485.137,565.285 483.387,563.531C482.391,570.602 480.957,577.23 479.437,582.355L479.27,582.984C479.102,583.629 478.855,584.574 478.641,585.363C478.246,586.824 477.32,590.25 473.617,589.855C472.223,589.687 472.109,589.676 465.781,584.305C463.441,582.316 458.648,578.203 452.844,572.98C443.785,564.824 431.457,553.234 424.172,544.336C393.102,506.391 368.039,449.457 353.07,415.437C350.137,408.773 347.602,403.02 345.555,398.629C338.383,383.242 329.734,365.547 317.898,350.238C311.332,341.75 305.957,335.711 300.469,330.66C294.555,325.219 288.629,319.82 282.707,314.43C264.793,298.113 246.27,281.242 228.715,263.605C223.172,258.035 219.902,252.145 217.02,246.949C212.918,239.551 209.375,233.164 200.191,228.195C182.027,218.371 156.734,218.359 143.27,219.223C125.277,220.379 113.316,225.043 106.707,233.48C96.098,247.023 100.223,270 104.211,292.219C108.41,315.621 112.75,339.82 100.867,356.102C93.992,365.523 82.668,371.164 66.246,373.348C39.297,376.937 5.312,349.906 0.566,327.859C-1.801,316.867 3.34,308.609 14.676,305.203C26.27,301.715 32.262,312.984 37.547,322.922C45.328,337.551 51.035,346.031 64.695,340.453C81.227,333.699 78.137,314.355 71.078,283.297C63.551,250.16 55.016,212.602 87.473,192.336C102.91,182.691 117.758,179.117 131.551,179.121C157.391,179.121 179.539,191.668 194.922,200.383C201.527,204.125 208.32,207.977 212.262,208.809C206.609,179.875 220.418,157.035 234.215,143.875C230.008,135.906 225.488,127.949 221.109,120.234C217.238,113.418 213.234,106.367 209.453,99.328C208.844,98.187 208.781,96.832 209.293,95.645C209.926,94.164 224.828,59.391 228.051,53.145C233.285,43 236.152,33.965 238.684,25.992C243.363,11.23 247.039,-0.363 262.887,-0.363C267.547,-0.363 273.262,0.641 280.359,2.859C281.887,3.34 283.043,4.469 283.527,5.953C283.926,7.172 284.023,9.137 282.227,11.566C279.535,15.207 276.555,18.469 273.672,21.621C270.012,25.621 266.555,29.402 263.711,33.832C255.266,47.004 251.902,71.102 256.367,86.449C260.613,101.035 274.84,114.492 291.914,126.941C291.813,126.168 291.734,125.543 291.699,125.199C291.125,119.992 290.809,114.863 290.531,110.051C289.152,86.168 292.266,80.926 305.664,62.559C306.379,61.582 310.793,55.289 315.906,48C343.148,9.172 343.148,9.172 344.43,8.477C349.391,5.801 370.445,10.094 378.559,15.445C383.527,18.727 384.309,22.277 384.09,24.68C383.574,30.352 377.258,33.898 372.184,36.121C366.063,42.25 351.363,58.355 348.316,67.957C338.402,99.238 364.301,133.441 387.148,163.617C398.363,178.426 408.953,192.414 415.277,205.586C435.621,247.969 439.348,280.863 441.813,302.633C442.641,309.926 443.332,316.039 444.469,320.242C461.613,305.715 483.609,299.414 504.977,293.293C513.633,290.812 522.59,288.246 530.918,285.191C531.488,284.98 533.582,284.043 535.797,283.047C560.234,272.086 564.25,271.332 567.254,274.148C571.172,277.82 571.672,284.93 568.324,289.359C567.445,290.523 565.879,291.965 563.664,293.699C568.531,295.754 571.219,298.699 571.676,302.5" style="fill:rgb(46,38,109);"/>
            </g>
        </g>
        <g transform="matrix(2,0,0,2,1822.5,0)">
            <g transform="matrix(0.301774,0,0,-0.302389,17.8811,95.6277)">
                <path d="M495.574,123.836C493.777,124.277 489.625,111.313 489.141,110.094C487.648,106.332 489.035,106.164 490.238,104.844C491.488,103.477 497.078,99.668 496.637,101.895C495.523,107.488 497.766,123.297 495.574,123.836ZM470.766,135.148C468.02,136.121 456.023,112.875 456.371,107.258C456.719,101.641 472.445,100.719 472.852,101.441C473.805,103.133 473.512,134.18 470.766,135.148ZM520.926,37.973C521.227,37.832 521.801,37.184 521.895,37.254C521.766,36.027 520.012,21.203 511.965,36.691C510.527,39.461 516.723,39.246 518.551,38.801C519.363,38.602 520.168,38.324 520.926,37.973" style="fill:rgb(222,29,141);fill-rule:nonzero;"/>
            </g>
        </g>
    </g>
</svg>
