<?xml version="1.0" encoding="UTF-8" standalone="no"?>
<!DOCTYPE svg PUBLIC "-//W3C//DTD SVG 1.1//EN" "http://www.w3.org/Graphics/SVG/1.1/DTD/svg11.dtd">
<svg width="100%" height="100%" viewBox="0 0 470 171" version="1.1" xmlns="http://www.w3.org/2000/svg" xmlns:xlink="http://www.w3.org/1999/xlink" xml:space="preserve" xmlns:serif="http://www.serif.com/" style="fill-rule:evenodd;clip-rule:evenodd;stroke-linejoin:round;stroke-miterlimit:2;">
    <g transform="matrix(1,0,0,1,-143.027,-744.696)">
        <g>
            <g transform="matrix(1.12679,0,-5.55112e-17,0.476555,-75.4701,391.809)">
                <rect x="265.236" y="754.218" width="345.46" height="20.189" style="fill:rgb(22,35,138);"/>
            </g>
            <g transform="matrix(1.72889,0,0,0.778462,-526.55,3.02003)">
                <path d="M658.926,960.036C658.926,956.012 657.455,952.746 655.643,952.746L621.83,952.746C620.018,952.746 618.547,956.012 618.547,960.036L618.547,974.617C618.547,978.641 620.018,981.908 621.83,981.908L655.643,981.908C657.455,981.908 658.926,978.641 658.926,974.617L658.926,960.036Z" style="fill:rgb(22,35,138);"/>
            </g>
            <g transform="matrix(1,0,0,1,-1.43568,5.02487)">
                <path d="M611.481,753.828C611.494,753.647 611.651,753.512 611.832,753.525C612.012,753.538 612.148,753.695 612.135,753.875C610.83,775.899 600.905,788.091 585.473,795.455C570.286,802.703 549.682,805.244 526.548,807.761C515.151,809.001 503.136,810.234 490.848,812.043C483.099,813.184 475.237,814.535 467.358,816.288C462.786,817.282 457.208,819.419 450.865,822.261C443.67,825.484 435.522,829.63 426.792,834.167C407.972,843.948 386.493,855.576 366.172,863.93C348.985,870.996 332.618,875.687 319.387,875.007C319.206,875 319.065,874.848 319.071,874.667C319.078,874.487 319.23,874.345 319.411,874.352C332.518,874.644 348.545,869.468 365.366,862.041C385.404,853.193 406.532,841.1 425.118,831.015C433.842,826.281 442.013,821.998 449.244,818.684C455.862,815.652 461.719,813.446 466.503,812.388C474.49,810.664 482.452,809.316 490.308,808.241C502.666,806.55 514.751,805.483 526.218,804.443C549.087,802.37 569.471,800.412 584.626,793.625C599.795,786.831 609.647,775.193 611.481,753.828Z" style="fill:rgb(22,35,138);"/>
            </g>
            <g transform="matrix(0.845325,0,0,0.845325,78.1534,133.562)">
                <g transform="matrix(0.00462958,-0.999989,0.999989,0.00462958,-767.617,996.716)">
                    <path d="M116.661,917.09C125.305,838.954 142.593,838.954 151.238,847.912C159.882,856.871 159.882,874.788 151.238,892.705C145.187,906.143 129.627,919.581 116.661,928.54C103.694,919.581 88.134,906.143 82.083,892.705C73.439,874.788 73.439,856.871 82.083,847.912C90.728,838.954 108.016,838.954 116.661,917.09Z" style="fill:rgb(234,50,133);"/>
                </g>
                <g transform="matrix(1,0,0,1,-9.33189,-15.0746)">
                    <path d="M162.635,899.375C162.635,899.375 205.554,868.3 239.738,868.059C256.765,867.939 272.146,871.765 283.076,877.715C293.412,883.341 299.767,890.974 299.767,899.375C299.767,907.776 293.412,915.408 283.076,921.035C272.146,926.984 256.764,930.88 239.738,930.69C207.24,930.329 162.635,899.375 162.635,899.375Z" style="fill:rgb(234,50,133);"/>
                </g>
                <g transform="matrix(1,0,0,1,14.452,5.72058)">
                    <ellipse cx="258.715" cy="867.389" rx="3.675" ry="4.135" style="fill:white;"/>
                </g>
            </g>
        </g>
    </g>
</svg>
