<?xml version="1.0" encoding="UTF-8" standalone="no"?>
<!DOCTYPE svg PUBLIC "-//W3C//DTD SVG 1.1//EN" "http://www.w3.org/Graphics/SVG/1.1/DTD/svg11.dtd">
<svg width="100%" height="100%" viewBox="0 0 259 256" version="1.1" xmlns="http://www.w3.org/2000/svg" xmlns:xlink="http://www.w3.org/1999/xlink" xml:space="preserve" xmlns:serif="http://www.serif.com/" style="fill-rule:evenodd;clip-rule:evenodd;stroke-linejoin:round;stroke-miterlimit:2;">
    <g transform="matrix(1,0,0,1,-327.502,-769.938)">
        <g transform="matrix(1,0,0,1,120.858,68.73)">
            <g transform="matrix(2.12264,0,0,1.72083,-300.249,-587.844)">
                <path d="M299.675,774.585C312.491,743.804 338.121,743.804 350.937,759.194C363.752,774.585 363.752,805.366 350.937,836.146C341.966,859.232 318.898,882.318 299.675,897.708C280.452,882.318 257.385,859.232 248.414,836.146C235.599,805.366 235.599,774.585 248.414,759.194C261.23,743.804 286.86,743.804 299.675,774.585Z" style="fill:rgb(46,38,109);"/>
            </g>
            <g transform="matrix(1,0,0,1,-185.438,-7.56256)">
                <g transform="matrix(1,0,0,0.633987,-51.5864,333.446)">
                    <path d="M589.56,712.343C589.56,705.082 585.823,699.187 581.22,699.187L564.539,699.187C559.936,699.187 556.199,705.082 556.199,712.343L556.199,875.079C556.199,882.34 559.936,888.235 564.539,888.235L581.22,888.235C585.823,888.235 589.56,882.34 589.56,875.079L589.56,712.343Z" style="fill:rgb(250,250,250);"/>
                </g>
                <g transform="matrix(6.12323e-17,-1,0.633987,3.88205e-17,18.0905,1409.53)">
                    <path d="M589.56,712.343C589.56,705.082 585.823,699.187 581.22,699.187L564.539,699.187C559.936,699.187 556.199,705.082 556.199,712.343L556.199,875.079C556.199,882.34 559.936,888.235 564.539,888.235L581.22,888.235C585.823,888.235 589.56,882.34 589.56,875.079L589.56,712.343Z" style="fill:rgb(250,250,250);"/>
                </g>
            </g>
            <g transform="matrix(0.110821,0,0,0.110821,382.286,717.981)">
                <path d="M226.5,92.9C240.8,135.8 226.2,179.1 193.9,189.7C161.6,200.3 123.8,174.1 109.5,131.2C95.2,88.3 109.8,45 142.1,34.4C174.4,23.8 212.2,50 226.5,92.9ZM100.4,198.6C119.3,231 114.7,268.7 90.2,282.7C65.7,296.7 30.5,281.8 11.7,249.4C-7.1,217 -2.7,179.3 21.8,165.3C46.3,151.3 81.5,166.2 100.3,198.6L100.4,198.6ZM69.2,401.2C121.6,259.9 214.7,224 256,224C297.3,224 390.4,259.9 442.8,401.2C446.4,410.9 448,421.3 448,431.7L448,433.3C448,459.1 427.1,480 401.3,480C389.8,480 378.4,478.6 367.3,475.8L279.3,453.8C264,450 248,450 232.7,453.8L144.7,475.8C133.6,478.6 122.2,480 110.7,480C84.9,480 64,459.1 64,433.3L64,431.7C64,421.3 65.6,410.9 69.2,401.2ZM421.8,282.7C397.3,268.7 392.7,231 411.6,198.6C430.5,166.2 465.6,151.3 490.1,165.3C514.6,179.3 519.2,217 500.3,249.4C481.4,281.8 446.3,296.7 421.8,282.7ZM310.1,189.7C277.8,179.1 263.2,135.8 277.5,92.9C291.8,50 329.6,23.8 361.9,34.4C394.2,45 408.8,88.3 394.5,131.2C380.2,174.1 342.4,200.3 310.1,189.7Z" style="fill:rgb(222,29,141);fill-rule:nonzero;"/>
            </g>
        </g>
        <g transform="matrix(1.11294,0,0,1.11294,-94.0177,-118.493)">
            <path d="M130.257,1005.64L130.257,855.733L106.657,855.733L218.373,767.715L385.088,855.733L362.971,855.733L362.971,1005.64L130.257,1005.64Z" style="fill:rgb(46,38,109);"/>
        </g>
    </g>
</svg>
