<?xml version="1.0" encoding="UTF-8" standalone="no"?>
<!DOCTYPE svg PUBLIC "-//W3C//DTD SVG 1.1//EN" "http://www.w3.org/Graphics/SVG/1.1/DTD/svg11.dtd">
<svg width="100%" height="100%" viewBox="0 0 284 303" version="1.1" xmlns="http://www.w3.org/2000/svg" xmlns:xlink="http://www.w3.org/1999/xlink" xml:space="preserve" xmlns:serif="http://www.serif.com/" style="fill-rule:evenodd;clip-rule:evenodd;stroke-linejoin:round;stroke-miterlimit:2;">
    <g transform="matrix(1,0,0,1,-3060.89,-100.976)">
        <g transform="matrix(2,0,0,2,1822.5,0)">
            <g transform="matrix(1,0,0,1,0.246206,2.09275)">
                <g transform="matrix(0.199633,0,0,-0.200317,618.947,128.499)">
                    <path d="M251.441,279.207C245.316,282.488 223.07,254.613 227.477,248.457C231.641,242.648 259.395,220.473 263.387,225.598C267.383,230.723 257.715,275.852 251.441,279.207ZM86.762,283.066C82.27,279.879 67.23,243.113 72.48,240.762C81.016,236.941 93.137,243.547 107.543,253.766C115.871,259.676 91.426,286.371 86.762,283.066ZM148.871,119.742C148.871,119.742 144.605,113.512 140.742,114.262C138.395,114.723 132.688,121.164 134.977,123.367C138.906,127.156 153.414,126.199 148.871,119.742" style="fill:rgb(222,29,141);"/>
                </g>
                <g transform="matrix(0.280625,0.11098,0.111207,-0.281197,581.363,160.671)">
                    <path d="M224.046,310.726C220.714,314.53 226.296,323.234 228.878,325.398C232.815,328.698 237.444,330.984 241.358,334.378C249.616,341.542 256.866,349.921 266.386,355.53C271.538,358.566 279.386,362.316 283.78,356.355C289.253,348.933 289.026,337.542 284.569,329.566C287.401,323.28 289.655,317.155 286.518,313.343C283.475,309.651 277.87,314.261 274.768,317.234C274.577,316.628 274.456,315.987 274.413,315.308C273.933,307.159 282.538,290.562 271.21,286.335C256.147,280.714 246.651,296.726 238.534,306.96C235.104,303.601 231.386,301.148 226.386,303.105C222.757,304.523 222.608,307.749 224.046,310.726Z" style="fill:rgb(255,115,92);"/>
                </g>
                <g transform="matrix(-0.0581823,0.296112,0.296715,0.0583009,592.839,-42.2518)">
                    <path d="M361.191,459.211C360.824,459.336 360.516,459.332 361.164,459.102C366.094,457.324 373.652,455.707 377.902,459.719C380.633,462.301 381.352,466.371 384.148,468.832C387.027,471.363 391.121,471.996 394.125,474.418C401.656,480.496 399.195,493.18 393.344,499.359C377.969,515.586 376.527,497.402 371.984,487.074C368.816,479.867 364.848,473.023 361.598,465.84L361.191,459.211Z" style="fill:rgb(255,115,92);"/>
                </g>
                <g transform="matrix(0.301774,0,0,-0.302389,654.566,162.88)">
                    <path d="M236.344,176.445C236.941,176.289 235.414,175.512 235.316,174.902C234.637,170.664 235.895,166.266 236.906,162.184C240.359,148.258 233.328,143.977 229.902,131.891C229.344,129.914 231.719,123.063 230.188,122.164C221.32,116.965 213.238,133.879 213.707,140.422C214.074,145.582 217.934,150.77 220.402,155.125C223.938,161.363 227.266,167.777 231.113,173.824L236.344,176.445" style="fill:rgb(255,115,92);"/>
                </g>
                <g transform="matrix(0.0892338,0.288279,0.288866,-0.0894157,630.724,144.453)">
                    <path d="M101.531,277.723C101.426,277.805 100.191,276.488 96.586,271.156C92.285,264.809 94.104,247.935 102.548,251.128C110.372,254.086 107.711,248.606 113.999,247.233C119.168,246.105 122.988,246.073 126.839,242.285C130.384,238.798 141.977,253.824 131.973,256.836L101.531,277.723Z" style="fill:rgb(255,115,92);"/>
                </g>
                <g transform="matrix(-0.301755,0.00336041,0.00336726,0.30237,755.757,-23.7706)">
                    <path d="M32.406,372.922C32.262,372.766 31.562,372.516 31.492,372.52C29.113,372.543 26.648,373.852 25.613,376.051C23.68,380.148 25.809,385.066 28.469,388.281C35.723,397.043 38.215,389.77 44.355,391.957C44.988,392.184 45.598,392.535 46.156,392.906C50.227,395.617 58.203,405.438 63.828,400.074C65.094,398.867 65.273,397.012 64.73,395.422C61.918,387.188 39.984,387.688 32.613,372.164L32.406,372.922C32.445,372.965 32.441,373.004 32.375,373.027L32.406,372.922Z" style="fill:rgb(255,115,92);"/>
                </g>
                <g transform="matrix(0.233446,-0.191233,-0.191623,-0.233922,767.362,246.689)">
                    <path d="M64.73,395.422C61.918,387.188 25.809,385.066 28.469,388.281C35.723,397.043 38.215,389.77 44.355,391.957C44.988,392.184 45.598,392.535 46.156,392.906C50.227,395.617 58.203,405.438 63.828,400.074C65.094,398.867 65.273,397.012 64.73,395.422Z" style="fill:rgb(255,115,92);"/>
                </g>
                <g transform="matrix(0.199633,0,0,-0.200317,618.947,199.208)">
                    <path d="M267.766,454.371C267.531,452.191 265.688,450.57 263.543,450.57C263.395,450.57 263.242,450.578 263.09,450.594C249.957,451.984 235.879,452.793 218.789,453.133C214.359,453.223 209.785,453.242 204.805,453.199C202.465,453.184 200.535,455.062 200.516,457.41C200.492,459.758 202.379,461.676 204.727,461.699C209.793,461.746 214.449,461.723 218.961,461.633C236.297,461.285 250.605,460.465 263.984,459.047C266.32,458.801 268.012,456.707 267.766,454.371ZM205.82,477.879C200.188,475.508 193.805,472.816 187.816,469.676C187.184,469.344 186.508,469.187 185.844,469.187C184.313,469.187 182.836,470.016 182.078,471.461C180.984,473.539 181.785,476.109 183.863,477.199C189.711,480.266 195.523,482.766 202.52,485.715C219.906,493.043 236.211,498.965 252.367,503.816C254.617,504.496 256.984,503.219 257.66,500.973C258.336,498.723 257.063,496.352 254.813,495.676C238.949,490.91 222.926,485.09 205.82,477.879ZM144.684,442.828C144.27,442.43 143.012,441.227 139.434,441.684C136.781,442.023 135.234,448.023 134.992,451.164C134.984,451.281 134.969,451.398 134.953,451.516C136.184,452.512 137.285,453.496 138.242,454.406C139.129,455.25 139.922,456.043 140.633,456.801C142.328,455.328 144.543,453.492 146.883,451.73C146.875,451.547 146.879,451.363 146.895,451.176C147.023,449.684 146.895,444.945 144.684,442.828ZM159.332,453.965C156.262,454.738 145.867,463.203 143.898,465.281C142.566,466.781 140.402,467.117 138.703,466.199C137.746,466.004 136.852,465.484 136.199,464.656C135.23,463.418 134.02,462.121 132.387,460.57C129.262,457.598 124.34,453.695 118.641,451.969C116.395,451.289 115.121,448.918 115.805,446.672C116.484,444.426 118.855,443.152 121.102,443.836C123.238,444.48 125.266,445.344 127.16,446.336C128.246,441.48 131.078,434.184 138.352,433.25C139.258,433.137 140.109,433.082 140.914,433.082C145.73,433.082 148.805,434.988 150.605,436.73C153.523,439.551 154.711,443.367 155.168,446.484C155.914,446.145 156.613,445.883 157.246,445.723C159.527,445.148 161.836,446.527 162.41,448.801C162.984,451.078 161.609,453.387 159.332,453.965ZM252.039,477.359L193.695,461.195C193.316,461.09 192.934,461.039 192.559,461.039C190.695,461.039 188.988,462.273 188.465,464.156C187.84,466.418 189.164,468.762 191.426,469.387L249.77,485.551C252.027,486.176 254.371,484.852 255,482.59C255.625,480.328 254.301,477.984 252.039,477.359ZM180.328,492.023C174.711,492.895 173.469,496.98 177.695,499.418C179.16,500.262 200.688,506.309 203.523,499.293C204.836,496.055 185.152,491.273 180.328,492.023ZM115.605,495.039C115.031,492.535 91.457,493.238 93.066,500.227C94.258,505.391 117.453,503.066 115.605,495.039ZM685.57,518.684C663.203,481.762 624.582,472.789 589.75,468.883C588.492,468.742 586.203,468.551 583.305,468.309C554.941,465.941 539.211,463.57 531.395,460.176C525.883,474.777 518.508,487.98 509.402,499.59C511.684,499.789 514.996,499.926 518.242,500.062C546.883,501.25 613.949,504.027 652.855,558.121C669.383,581.102 658.766,614.055 646.949,637.648C632.203,667.098 610.312,692.414 596.211,703.477C586.203,711.328 580.645,719.609 580.961,726.203C581.172,730.594 584.098,734.625 589.656,738.184C598.758,744.008 608.027,745.715 617.211,743.258C639.141,737.387 655.09,710.551 660.93,699.289C692.211,638.961 719.879,575.32 685.57,518.684ZM523.402,316.957C520.863,308.742 517.984,301.836 514.91,295.18C515.16,296.934 515.41,298.684 515.672,300.422C516.789,307.969 518.184,316.91 520.023,326.012C520.488,328.312 519,330.555 516.699,331.02C514.398,331.484 512.156,329.996 511.691,327.695C509.813,318.402 508.398,309.32 507.262,301.668C506.273,295.008 505.355,288.195 504.469,281.605C503.93,277.602 503.387,273.566 502.82,269.52C502.656,269.141 502.492,268.762 502.324,268.379C501.883,267.352 501.871,266.246 502.223,265.27C500.375,252.426 498.238,239.504 495.242,227.043C489.578,203.496 475.508,181.191 461.898,159.625C454.859,148.465 447.578,136.926 441.676,125.488C434.242,111.09 427.047,94.359 420.09,78.18C411.199,57.504 402.801,37.969 396.137,28.945C393.883,25.887 386.465,23.777 380.57,24.52C377.746,24.879 376.477,25.777 376.332,26.137C375.992,26.973 377.406,29.844 378.441,31.937C380.711,36.547 383.82,42.855 383.129,51.027C381.398,71.391 388.164,92.391 394.711,112.699C399.723,128.238 404.449,142.914 404.891,156.16C405.383,171.113 399.559,184.863 393.93,198.164C389.992,207.457 386.273,216.234 384.652,225.234C422.105,248.148 464.879,280.863 494.633,323.371C495.98,325.293 495.512,327.941 493.59,329.289C491.664,330.637 489.016,330.168 487.668,328.246C451.176,276.109 394.262,238.922 352.941,216.906C334.52,207.094 317.016,200.027 299.426,195.301C294.598,194.004 288.227,192.434 281.785,191.781C280.523,191.652 278.426,191.57 276.531,191.535C278.781,212.121 278.941,233.027 279.102,253.605C279.133,257.844 279.164,262.066 279.215,266.273C279.246,268.621 277.363,270.547 275.02,270.574L274.965,270.574C272.645,270.574 270.746,268.707 270.719,266.375C270.664,262.156 270.633,257.922 270.602,253.672C270.434,231.969 270.266,209.895 267.59,188.355C267.523,188.047 267.496,187.766 267.484,187.535C264.84,166.754 259.828,146.488 250.195,127.555C243.367,114.129 235.152,101.102 227.203,88.504C218.824,75.215 210.156,61.477 202.93,47.02C201.605,44.375 200.125,40.746 198.41,36.543C194.813,27.734 189.891,15.672 185.547,11.645C180.297,6.781 157.82,6.375 148.285,6.926C152.242,37.996 161.73,69.172 170.918,99.363C181.648,134.633 192.75,171.102 194.969,207.34C195.844,221.676 194.871,237.238 191.902,256.309C190.363,266.191 188.684,275.145 186.762,283.68C186.242,285.969 183.973,287.402 181.68,286.895C179.391,286.379 177.953,284.102 178.469,281.812C180.348,273.465 181.996,264.695 183.504,255.004C186.375,236.551 187.324,221.57 186.484,207.859C186.426,206.918 186.359,205.969 186.289,205.027C158.324,219.098 136.836,235.687 118.938,256.969C110.012,267.582 102.598,277.305 96.27,286.695C94.961,288.645 92.316,289.164 90.371,287.848C88.426,286.535 87.91,283.895 89.223,281.949C95.719,272.305 103.313,262.344 112.434,251.5C131.73,228.555 154.961,210.875 185.438,195.961C181.98,165.52 172.777,134.691 163.656,104.695C161.008,108.008 158.363,111.297 155.734,114.562C114.469,165.855 78.828,210.156 75.387,279.207C74.141,304.187 79.906,381.605 79.965,382.387C80.063,383.707 79.543,384.996 78.555,385.875C62.375,400.297 52.41,413.727 46.73,426.965C53.406,429.59 59.863,431.965 66.207,434.133C71.477,435.934 82.656,439.32 85.609,439.637C86.988,439.281 88.512,439.629 89.613,440.684C91.309,442.309 91.367,445 89.742,446.691C88.082,448.426 86.52,450.059 63.457,442.176C57.051,439.984 50.535,437.59 43.809,434.949C42.098,440.543 41.086,446.133 40.629,451.777C46.703,452.18 53.156,452.523 60.273,452.832C63.863,452.984 67.676,453.125 71.43,453.117C72.434,453.117 73.27,453.098 74.031,453.062C76.145,452.402 77.855,452.754 79.117,454.098C80.27,455.328 80.602,457.078 79.98,458.676C79.305,460.418 77.617,461.465 75.84,461.387C75.547,461.457 75.219,461.516 74.859,461.531C73.852,461.59 72.766,461.617 71.449,461.617C67.531,461.621 63.594,461.48 59.91,461.32C52.832,461.02 46.402,460.676 40.344,460.277C40.383,464.086 40.637,467.934 41.059,471.836C51.055,471.363 61.598,470.535 72.809,469.344C77.707,468.824 83.488,468.113 89.223,466.777C89.328,466.758 89.523,466.715 89.793,466.664C90.133,466.598 90.438,466.539 90.707,466.48C90.734,466.418 90.766,466.355 90.797,466.293C91.523,464.82 93.031,463.918 94.629,463.918C94.902,463.922 95.176,463.945 95.449,464C96.762,464.258 99.535,465.719 99.742,468.602C100.074,473.355 94.422,474.434 91.387,475.016L91.145,475.059C84.965,476.496 78.859,477.25 73.707,477.797C62.613,478.977 52.148,479.805 42.207,480.293C43.848,490.477 46.387,501.105 49.109,512.488C51.539,522.648 54.051,533.152 56.141,544.371C56.785,547.832 57.77,555.082 58.906,563.48C60.453,574.855 62.199,587.746 63.43,593.48L63.648,594.512C74.473,645.199 80.637,651.406 81.711,652.113C81.754,652.125 85.914,653.137 100.707,637.859C109.656,628.613 118.641,617.406 123.465,611.387C124.133,610.559 124.719,609.824 125.223,609.199C120.398,608.152 115.816,606.875 111.52,605.371C107.98,604.133 104.965,602.746 102.301,601.125C100.293,599.906 99.656,597.293 100.875,595.289C102.094,593.281 104.707,592.641 106.711,593.859C108.863,595.168 111.355,596.309 114.324,597.348C122.871,600.336 132.664,602.375 143.426,603.41C171.445,606.105 200.215,599.973 228.945,585.172C231.031,584.098 233.594,584.918 234.672,587.004C235.742,589.09 234.926,591.652 232.836,592.73C224.68,596.93 216.512,600.469 208.352,603.336C216.703,618 236.078,643.293 253.438,650.18C254.453,649.687 257.902,646.98 264.695,632.184L265.152,631.187C275.859,608.395 284.949,575.004 275.523,555.594C274.32,553.937 271.484,549.652 271.336,545.996C270.965,536.875 271.012,528.773 271.477,521.234C273.156,493.984 282.367,469.57 292.074,447.25C293.012,445.098 295.516,444.113 297.668,445.047C299.82,445.984 300.805,448.488 299.871,450.641C292.809,466.879 286.02,484.223 282.402,502.844C282.742,502.949 283.105,503.066 283.5,503.191C286.223,504.059 286.508,504.187 286.738,504.293C289.426,505.516 292.109,506.809 294.711,508.062C296.23,508.797 297.754,509.527 299.281,510.254C312.027,516.281 325.293,522.027 339.844,527.82C374.508,541.621 425.23,552.137 470.012,523.852C498.047,506.145 515.473,481.176 525.105,453.344C525.164,452.648 525.391,451.977 525.77,451.387C540.242,407.727 535.883,357.332 523.402,316.957ZM367.57,150.465C365.332,132.309 361.758,116.727 356.645,102.82C356.336,101.988 355.984,100.988 355.586,99.848C352.418,90.797 345.824,71.965 334.184,62.687C326.25,56.363 313.035,55.715 306.074,61.199C305.426,63.996 307.391,73.445 308.055,76.633C308.477,78.676 308.785,80.152 308.891,81.117C311.766,107.832 312.43,141.109 295.754,185.605C297.871,186.102 299.852,186.613 301.629,187.094C319.852,191.988 337.941,199.285 356.941,209.406C361.055,211.598 365.32,213.937 369.703,216.43C371.563,197.906 370.887,177.348 367.57,150.465ZM705.613,611.316C698.344,644.035 682.633,675.898 668.477,703.203C662.117,715.465 644.605,744.723 619.406,751.469C607.82,754.57 596.27,752.508 585.074,745.344C577.062,740.215 572.82,733.91 572.473,726.609C571.855,713.766 583.793,702.414 590.965,696.789C619.648,674.289 671.434,598.516 645.953,563.086C609.465,512.352 545.293,509.691 517.891,508.555C513.555,508.375 510.129,508.23 507.621,507.949C506.563,507.828 504.793,507.629 503.238,506.914C494.875,516.176 485.285,524.258 474.551,531.039C436.711,554.937 389.043,556.555 336.699,535.715C321.98,529.855 308.555,524.043 295.648,517.937C294.102,517.207 292.563,516.461 291.02,515.719C288.496,514.504 285.887,513.25 283.316,512.074C282.965,511.945 281.977,511.629 281,511.316C280.527,514.754 280.176,518.234 279.961,521.758C279.512,529.008 279.469,536.82 279.828,545.645C279.891,546.5 281.223,549.02 282.57,550.828C282.723,551.031 282.855,551.25 282.969,551.477C297.211,579.953 277.035,625.883 272.848,634.801L272.422,635.727C266.473,648.687 259.25,661.508 250.789,658.273C230.992,650.715 210.035,623.602 200.781,607.219C200.551,606.812 200.395,606.383 200.309,605.945C180.941,611.715 161.637,613.703 142.613,611.871C139.621,611.586 136.695,611.223 133.844,610.785C133.797,611.672 133.473,612.551 132.863,613.285C132.238,614.035 131.297,615.211 130.098,616.703C100.906,653.121 86.059,665.059 77.137,659.27C72.625,656.344 66.066,646.539 55.336,596.285L55.117,595.262C53.82,589.211 52.047,576.148 50.484,564.621C49.406,556.684 48.391,549.184 47.785,545.93C45.73,534.922 43.246,524.52 40.844,514.465C38.078,502.902 35.395,491.66 33.707,480.629C23.957,480.918 14.715,480.859 5.867,480.457C3.523,480.352 1.707,478.363 1.816,476.02C1.922,473.672 3.902,471.871 6.254,471.965C14.637,472.348 23.395,472.41 32.617,472.152C32.188,467.969 31.945,463.809 31.93,459.672C29.723,459.496 27.547,459.316 25.406,459.121C23.066,458.91 21.344,456.844 21.555,454.508C21.754,452.301 23.605,450.637 25.781,450.637C25.91,450.637 26.039,450.645 26.168,450.656C28.164,450.836 30.195,451.004 32.246,451.168C32.367,449.707 32.512,448.25 32.699,446.793C33.359,441.68 34.453,436.695 35.988,431.809C25.543,427.52 14.496,422.621 2.438,416.937C0.316,415.934 -0.594,413.402 0.406,411.277C1.133,409.742 2.66,408.84 4.254,408.84C4.859,408.84 5.477,408.973 6.062,409.246C17.883,414.82 28.707,419.625 38.934,423.832C45.211,409.047 55.836,395.039 71.336,380.937C70.398,368.098 65.727,302.258 66.898,278.781C70.477,206.98 108.672,159.5 149.109,109.234C151.785,105.906 154.48,102.562 157.176,99.187C158.25,97.848 159.969,97.324 161.535,97.723C152.223,67.086 142.871,35.484 139.336,3.668C139.141,1.902 140.09,0.172 141.676,-0.629C143.359,-1.477 150.047,-1.703 155.824,-1.703C158.953,-1.703 161.813,-1.637 163.465,-1.566C177.816,-0.941 186.93,1.34 191.324,5.41C197.047,10.719 201.953,22.73 206.277,33.332C207.859,37.207 209.355,40.863 210.531,43.219C217.57,57.297 226.121,70.855 234.395,83.969C242.441,96.73 250.766,109.926 257.773,123.699C267.402,142.637 272.617,162.625 275.473,183.02C275.641,183.023 275.813,183.023 275.984,183.027C277.949,183.051 280.871,183.145 282.641,183.324C284.211,183.484 285.77,183.687 287.301,183.93C303.859,140.434 303.234,108.012 300.437,82.027C300.379,81.477 300.051,79.895 299.73,78.363C296.988,65.176 296.348,58.328 300.117,55.094C309.918,46.695 328.313,47.137 339.48,56.043C353.035,66.848 360.176,87.238 363.609,97.039C363.988,98.133 364.324,99.09 364.617,99.887C369.961,114.41 373.688,130.613 376.008,149.422C379.277,175.949 380.031,196.543 378.363,215.156C380.434,208.23 383.301,201.461 386.102,194.848C391.617,181.824 396.824,169.523 396.395,156.441C395.996,144.387 391.441,130.262 386.621,115.309C380.137,95.184 372.781,72.371 374.656,50.309C375.152,44.492 372.848,39.82 370.816,35.695C368.785,31.574 366.684,27.312 368.453,22.945C369.961,19.23 373.887,16.797 379.512,16.086C387.363,15.102 398.258,17.5 402.977,23.898C410.223,33.711 418.414,52.762 427.898,74.82C434.797,90.867 441.934,107.457 449.227,121.586C454.965,132.699 461.824,143.574 469.09,155.09C483.063,177.238 497.516,200.145 503.508,225.055C506.828,238.871 509.098,253.105 511.074,267.172C513.445,272.516 515.777,277.328 518.043,282.004C522.949,292.133 527.582,301.695 531.523,314.445C543.906,354.504 546.598,396.727 539.102,433.34C537.773,439.828 536.129,446.113 534.184,452.18C536.234,453.156 541.324,454.879 553.637,456.652C564.371,458.199 576.191,459.187 584.012,459.84C586.977,460.086 589.32,460.281 590.695,460.437C627.586,464.574 668.566,474.207 692.84,514.281C709.746,542.187 713.926,573.93 705.613,611.316" style="fill:rgb(46,38,109);fill-rule:nonzero;"/>
                </g>
                <g transform="matrix(0.24904,0.17043,0.170777,-0.249548,540.541,157.57)">
                    <path d="M353.538,368.481C349.276,374.871 346.538,382.848 351.213,389.512C352.432,391.254 355.487,393.313 355.952,395.414C357.678,403.168 348.975,420.438 367.534,418.828C380.299,417.723 384.956,401.77 381.651,391.231C380.268,386.824 376.487,383.297 375.749,378.75C374.76,372.664 378.936,363.117 374.385,357.906C373.772,357.207 373.053,356.942 372.264,357.016C372.081,353.317 370.901,349.742 367.846,346.422C356.213,333.766 351.143,354.879 353.538,368.481Z" style="fill:rgb(255,115,92);"/>
                </g>
            </g>
        </g>
    </g>
</svg>
