<?xml version="1.0" encoding="UTF-8" standalone="no"?>
<!DOCTYPE svg PUBLIC "-//W3C//DTD SVG 1.1//EN" "http://www.w3.org/Graphics/SVG/1.1/DTD/svg11.dtd">
<svg width="100%" height="100%" viewBox="0 0 32 32" version="1.1" xmlns="http://www.w3.org/2000/svg" xmlns:xlink="http://www.w3.org/1999/xlink" xml:space="preserve" xmlns:serif="http://www.serif.com/" style="fill-rule:evenodd;clip-rule:evenodd;stroke-linejoin:round;stroke-miterlimit:2;">
    <g transform="matrix(0.0146997,0,0,0.0166688,-149.122,-128.003)">
        <ellipse cx="11233" cy="8639.07" rx="1054.44" ry="929.883" style="fill:rgb(46,38,109);"/>
    </g>
    <g transform="matrix(0.5197,0.5197,0.518062,-0.516669,-85.5512,98.1754)">
        <path d="M23.804,193.823C23.735,193.822 23.664,193.818 23.594,193.813C20.804,193.315 19.269,190.261 19.047,187.569C18.722,185.125 19.762,181.985 22.355,181.438C22.732,181.364 23.122,181.398 23.49,181.501C26.612,182.584 28.009,186.41 27.558,189.579C27.427,191.626 25.936,193.851 23.804,193.823L23.804,193.823ZM11.972,193.692C10.237,193.648 8.885,191.827 8.61,190.115C8.03,186.724 9.521,182.51 12.936,181.438C13.256,181.366 13.587,181.359 13.91,181.41C16.218,181.808 17.196,184.485 17.099,186.647C17.03,189.498 15.598,192.794 12.736,193.596C12.475,193.668 12.22,193.698 11.972,193.692L11.972,193.692ZM31.366,184.06C28.364,183.874 26.306,180.775 26.013,177.881C25.615,175.794 26.691,173.002 28.993,172.836C32.202,172.877 34.392,176.425 34.483,179.478C34.686,181.497 33.536,183.948 31.366,184.06L31.366,184.06ZM5.089,183.372C3.812,183.384 2.556,182.592 2.138,181.249C1.025,177.656 3.261,173.105 6.939,172.35C8.475,172.078 9.824,173.298 10.204,174.765C11.011,177.905 9.354,181.549 6.55,182.974C6.093,183.239 5.589,183.368 5.089,183.372L5.089,183.372ZM18.547,176.929C16.043,176.923 13.5,175.609 11.879,173.652C10.128,171.371 8.693,168.717 8.132,165.838C7.45,163.766 8.996,161.382 11.136,161.368C13.712,161.294 15.925,163.123 18.486,163.259C20.659,163.602 22.605,162.433 24.558,161.668C26.222,160.931 28.52,161.213 29.369,163.066C30.037,164.953 29.054,166.966 28.24,168.642C26.578,171.363 24.799,174.223 22.075,175.922C20.983,176.622 19.77,176.932 18.547,176.929L18.547,176.929L18.547,176.929Z" style="fill:rgb(250,250,250);fill-rule:nonzero;"/>
    </g>
</svg>
