<?xml version="1.0" encoding="UTF-8" standalone="no"?>
<!DOCTYPE svg PUBLIC "-//W3C//DTD SVG 1.1//EN" "http://www.w3.org/Graphics/SVG/1.1/DTD/svg11.dtd">
<svg width="100%" height="100%" viewBox="0 0 935 289" version="1.1" xmlns="http://www.w3.org/2000/svg" xmlns:xlink="http://www.w3.org/1999/xlink" xml:space="preserve" xmlns:serif="http://www.serif.com/" style="fill-rule:evenodd;clip-rule:evenodd;stroke-linejoin:round;stroke-miterlimit:2;">
    <g transform="matrix(1,0,0,1,-101.743,-351.128)">
        <g transform="matrix(1,0,0,1,99.4066,-32.0903)">
            <g transform="matrix(1.14634,1.59086e-17,-1.59086e-17,1.14634,-44.3075,-441.013)">
                <g>
                    <g transform="matrix(1.44441,-3.08149e-33,3.08149e-33,1.44441,-339.278,-382.311)">
                        <path d="M665.781,879.287C665.781,878.604 665.887,877.901 666.1,877.176C666.314,876.451 666.847,876.089 667.699,876.089C668.126,876.089 669.213,876.323 670.961,876.792C672.709,877.261 674.606,877.794 676.653,878.391C678.7,878.988 680.704,879.542 682.665,880.054C684.626,880.566 685.991,880.864 686.758,880.95L687.398,880.95C691.15,880.95 694.944,880.246 698.782,878.839C702.619,877.432 706.115,875.449 709.27,872.891C712.425,870.333 715.005,867.37 717.009,864.001C719.013,860.633 720.015,856.988 720.015,853.065C720.015,849.995 719.418,846.989 718.224,844.047C717.03,841.105 715.431,838.27 713.427,835.541C711.423,832.813 709.078,830.297 706.392,827.995C703.706,825.692 700.871,823.624 697.886,821.791C694.902,819.958 691.874,818.401 688.805,817.122C685.735,815.843 682.793,814.948 679.979,814.436C680.064,819.894 680.512,825.053 681.322,829.913C682.132,834.774 682.942,839.443 683.752,843.919C684.562,848.396 685.18,852.767 685.607,857.03C686.118,861.294 686.118,865.558 685.607,869.821L685.607,871.42C685.607,871.974 685.5,872.529 685.287,873.083C685.074,873.637 684.733,874.085 684.264,874.426C683.795,874.767 683.219,874.938 682.537,874.938C681.258,875.62 680.277,875.364 679.595,874.17C678.913,872.976 678.401,871.164 678.06,868.734C677.719,866.304 677.506,863.426 677.421,860.1C677.335,856.774 677.186,853.3 676.973,849.675C676.76,846.051 676.483,842.491 676.141,838.995C675.8,835.499 675.246,832.301 674.479,829.402C674.308,828.378 674.095,827.057 673.839,825.436C673.583,823.816 673.242,822.132 672.816,820.384C672.389,818.636 671.899,817.016 671.345,815.523C670.79,814.031 670.215,812.944 669.618,812.262C663.478,812.262 658.575,812.453 654.908,812.837C651.242,813.221 648.321,813.669 646.146,814.18C643.972,814.692 642.394,815.225 641.414,815.779C640.433,816.333 639.559,816.781 638.792,817.122L638.536,817.25C638.365,817.335 638.237,817.378 638.152,817.378C637.981,817.378 637.896,817.335 637.896,817.25C637.811,817.165 637.726,817.122 637.64,817.122C637.555,817.037 637.47,816.866 637.385,816.611C637.299,816.355 637.193,816.035 637.065,815.651C636.937,815.268 636.809,814.862 636.681,814.436C636.553,814.01 636.489,813.711 636.489,813.541L636.489,813.029C636.489,811.835 637.107,810.812 638.344,809.959C639.58,809.106 641.115,808.382 642.949,807.785C644.782,807.188 646.807,806.698 649.024,806.314C651.242,805.93 653.309,805.653 655.228,805.482C657.147,805.312 658.767,805.163 660.089,805.035C661.41,804.907 662.114,804.843 662.199,804.843C666.548,804.843 671.196,805.333 676.141,806.314C681.087,807.294 685.969,808.723 690.787,810.599C695.605,812.475 700.21,814.799 704.601,817.57C708.993,820.341 712.873,823.518 716.241,827.099C719.61,830.681 722.296,834.689 724.3,839.123C726.304,843.557 727.306,848.332 727.306,853.449C727.306,858.139 726.581,862.36 725.131,866.112C723.681,869.864 721.678,873.147 719.119,875.961C716.561,878.775 713.577,881.141 710.166,883.06C706.755,884.979 703.131,886.386 699.293,887.281C695.456,888.176 691.512,888.624 687.461,888.624C683.411,888.624 679.467,888.155 675.63,887.217C674.862,886.961 673.924,886.599 672.816,886.13C671.707,885.661 670.62,885.128 669.554,884.531C668.488,883.934 667.593,883.188 666.868,882.293C666.143,881.397 665.781,880.395 665.781,879.287Z" style="fill:rgb(22,35,138);fill-rule:nonzero;stroke:rgb(22,35,138);stroke-width:6.42px;"/>
                    </g>
                    <g transform="matrix(1,0,0,1,-5.56603,12.7138)">
                        <path d="M733.445,852.937C733.445,848.503 734.106,844.261 735.428,840.21C736.75,836.16 738.668,832.599 741.184,829.53C743.699,826.46 746.769,824.008 750.393,822.175C754.018,820.341 758.217,819.425 762.993,819.425C765.807,819.766 768.258,820.533 770.347,821.727C772.437,822.921 774.142,824.392 775.464,826.14C776.786,827.888 777.745,829.913 778.342,832.216C778.853,834.433 779.109,836.82 779.109,839.379C779.109,842.448 778.214,845.22 776.423,847.693C774.632,850.166 772.373,852.234 769.644,853.896C766.915,855.559 763.973,856.838 760.818,857.734C757.663,858.629 754.721,859.077 751.992,859.077L748.858,859.077C747.793,859.077 746.833,858.906 745.981,858.565C745.128,858.224 744.446,857.712 743.934,857.03C743.422,856.348 743.166,855.325 743.166,853.96C743.166,853.534 743.23,853.172 743.358,852.873C743.486,852.575 743.849,852.362 744.446,852.234C745.042,852.106 745.938,852.084 747.132,852.17C748.326,852.34 749.946,852.596 751.992,852.937C753.186,852.937 754.913,852.532 757.173,851.722C759.432,850.912 761.735,849.867 764.08,848.588C766.425,847.309 768.45,845.838 770.156,844.175C771.861,842.512 772.714,840.871 772.714,839.251C772.714,837.545 772.437,835.861 771.882,834.198C771.328,832.535 770.497,831.064 769.388,829.785C768.28,828.506 766.979,827.483 765.487,826.715C763.995,825.948 762.31,825.65 760.434,825.82C757.45,826.076 754.742,826.886 752.312,828.25C749.882,829.615 747.814,831.384 746.108,833.559C744.403,835.733 743.081,838.142 742.143,840.786C741.205,843.429 740.736,846.201 740.736,849.1C740.736,851.317 740.779,853.534 740.864,855.751C740.949,857.968 741.269,860.143 741.823,862.275C742.378,864.406 743.273,866.453 744.51,868.414C745.746,870.376 747.537,872.102 749.882,873.595C752.227,875.087 755.19,876.323 758.772,877.304C762.353,878.285 766.787,878.903 772.074,879.159L794.97,877.624C793.606,879.5 791.879,881.035 789.79,882.229C787.701,883.422 785.484,884.382 783.138,885.107C780.793,885.831 778.47,886.364 776.167,886.705C773.865,887.047 771.69,887.217 769.644,887.217C764.698,887.217 760.051,886.407 755.702,884.787C751.353,883.167 747.515,880.886 744.19,877.944C740.864,875.002 738.242,871.42 736.323,867.199C734.405,862.978 733.445,858.224 733.445,852.937Z" style="fill:rgb(22,35,138);fill-rule:nonzero;stroke:rgb(22,35,138);stroke-width:9.27px;"/>
                    </g>
                    <g transform="matrix(1,0,0,1,-4.71793,12.7138)">
                        <path d="M802.261,837.332C802.261,836.565 802.538,836.074 803.093,835.861C803.647,835.648 804.265,835.541 804.947,835.541C805.459,835.541 805.821,835.669 806.034,835.925C806.248,836.181 806.397,836.479 806.482,836.82C806.567,837.162 806.695,837.481 806.866,837.78C807.036,838.078 807.335,838.227 807.761,838.227C808.955,838.227 810.405,837.758 812.11,836.82C813.816,835.882 815.67,834.859 817.674,833.751C819.678,832.642 821.81,831.619 824.07,830.681C826.33,829.743 828.568,829.274 830.785,829.274C833.684,829.274 836.349,830.02 838.78,831.512C841.21,833.004 843.384,834.987 845.303,837.46C847.222,839.933 848.863,842.704 850.227,845.774C851.592,848.844 852.743,851.978 853.681,855.176C854.619,858.373 855.301,861.486 855.728,864.513C856.154,867.54 856.367,870.162 856.367,872.38C856.367,873.147 856.303,874.298 856.175,875.833C856.047,877.368 855.834,878.903 855.536,880.438C855.237,881.973 854.747,883.316 854.065,884.467C853.383,885.618 852.53,886.194 851.507,886.194C851.336,886.194 851.038,886.173 850.611,886.13C850.185,886.087 849.758,886.002 849.332,885.874C848.906,885.746 848.543,885.597 848.245,885.426C847.946,885.256 847.797,885 847.797,884.659C848.565,878.093 848.565,871.932 847.797,866.176C847.03,860.42 845.793,855.367 844.088,851.018C842.382,846.67 840.293,843.216 837.82,840.658C835.347,838.1 832.704,836.82 829.89,836.82C827.246,836.82 824.773,837.247 822.471,838.1C820.169,838.952 818.165,840.189 816.459,841.809C814.754,843.429 813.411,845.39 812.43,847.693C811.449,849.995 810.959,852.511 810.959,855.24C810.959,857.968 811.215,860.676 811.726,863.362C812.238,866.048 812.814,868.734 813.453,871.42C814.093,874.106 814.668,876.814 815.18,879.542C815.692,882.271 815.948,885 815.948,887.729C813.56,887.729 811.556,886.748 809.936,884.787C808.316,882.826 807.015,880.31 806.034,877.24C805.054,874.17 804.286,870.717 803.732,866.879C803.178,863.042 802.794,859.269 802.581,855.559C802.368,851.85 802.261,848.354 802.261,845.071L802.261,837.332Z" style="fill:rgb(22,35,138);fill-rule:nonzero;stroke:rgb(22,35,138);stroke-width:9.27px;"/>
                    </g>
                </g>
            </g>
            <g transform="matrix(1.14634,0,0,1.14634,-121.631,-418.673)">
                <g transform="matrix(1.70155,0,0,1.57828,-270.102,-518.943)">
                    <path d="M401.134,885.938C399.77,884.829 398.022,883.572 395.89,882.165C393.758,880.758 391.498,879.244 389.11,877.624C386.723,876.004 384.25,874.341 381.692,872.635C379.133,870.93 376.703,869.224 374.401,867.519C372.098,865.813 370.052,864.151 368.261,862.53C366.47,860.91 365.063,859.333 364.04,857.798C363.699,859.247 363.592,861.017 363.72,863.106C363.848,865.195 364.061,867.348 364.36,869.565C364.658,871.783 364.978,873.957 365.319,876.089C365.66,878.221 365.831,880.139 365.831,881.845C365.831,883.55 365.618,884.915 365.191,885.938C364.765,886.961 363.955,887.473 362.761,887.473C361.567,887.473 360.586,886.62 359.819,884.915C359.051,883.209 358.455,881.035 358.028,878.391C357.602,875.748 357.303,872.849 357.133,869.693C356.962,866.538 356.877,863.554 356.877,860.74C356.877,857.926 356.898,855.453 356.941,853.321C356.984,851.189 357.005,849.782 357.005,849.1C356.834,846.371 356.557,843.514 356.173,840.53C355.79,837.545 355.363,834.518 354.894,831.448C354.425,828.378 354.02,825.351 353.679,822.367C353.338,819.382 353.168,816.611 353.168,814.052C353.168,813.882 353.232,813.605 353.359,813.221C353.487,812.837 353.679,812.453 353.935,812.07C354.191,811.686 354.511,811.366 354.894,811.11C355.278,810.855 355.641,810.727 355.982,810.727C356.749,810.727 357.325,810.983 357.708,811.494C358.092,812.006 358.391,812.624 358.604,813.349C358.817,814.074 358.966,814.799 359.051,815.523C359.137,816.248 359.265,816.781 359.435,817.122C359.776,818.487 360.032,820.107 360.203,821.983C360.373,823.859 360.565,825.884 360.778,828.059C360.991,830.233 361.205,832.429 361.418,834.646C361.631,836.863 361.865,839.038 362.121,841.169C363.23,839.976 364.53,838.398 366.023,836.437C367.515,834.475 369.156,832.344 370.947,830.041C372.738,827.739 374.635,825.394 376.639,823.006C378.643,820.618 380.668,818.487 382.715,816.611C384.761,814.735 386.808,813.221 388.855,812.07C390.901,810.919 392.948,810.386 394.994,810.471C395.591,811.068 395.74,811.771 395.442,812.581C395.144,813.391 394.611,814.308 393.843,815.331C393.076,816.355 392.138,817.421 391.029,818.529C389.921,819.638 388.769,820.832 387.575,822.111C385.785,824.243 383.845,826.417 381.756,828.634C379.666,830.851 377.598,833.068 375.552,835.285C373.505,837.503 371.587,839.72 369.796,841.937C368.005,843.983 366.556,845.945 365.447,847.821C367.835,851.146 370.542,854.238 373.569,857.094C376.597,859.951 379.773,862.658 383.099,865.217C386.424,867.775 389.878,870.162 393.459,872.38C397.041,874.682 400.537,876.942 403.948,879.159C404.971,879.5 405.867,880.011 406.634,880.694C407.402,881.376 407.977,882.122 408.361,882.932C408.745,883.742 408.915,884.51 408.873,885.235C408.83,885.959 408.531,886.535 407.977,886.961C407.423,887.388 406.592,887.537 405.483,887.409C404.374,887.281 402.925,886.791 401.134,885.938Z" style="fill:rgb(22,35,138);fill-rule:nonzero;stroke:rgb(22,35,138);stroke-width:5.65px;"/>
                </g>
                <g transform="matrix(1,0,0,1,20.4563,-5.08553)">
                    <path d="M420.193,842.96L420.193,841.041C420.193,840.103 420.214,839.123 420.257,838.1C420.299,837.076 420.321,836.096 420.321,835.158L420.321,833.239C419.979,830.595 420.747,829.274 422.623,829.274C423.476,829.274 424.201,829.487 424.797,829.913C425.394,830.34 425.949,830.979 426.46,831.832C426.204,836.266 426.396,840.551 427.036,844.687C427.675,848.823 428.4,852.916 429.21,856.966C430.02,861.017 430.788,865.089 431.513,869.182C432.238,873.275 432.6,877.539 432.6,881.973C432.6,883.167 432.238,884.36 431.513,885.554C430.788,886.748 429.701,887.345 428.251,887.345C427.142,887.345 426.183,886.386 425.373,884.467C424.563,882.548 423.859,880.118 423.262,877.176C422.666,874.234 422.154,870.972 421.728,867.391C421.301,863.81 420.981,860.377 420.768,857.094C420.555,853.811 420.406,850.869 420.321,848.268C420.235,845.668 420.193,843.898 420.193,842.96ZM413.669,810.855C413.669,809.831 413.968,809.17 414.565,808.872C415.162,808.574 415.929,808.424 416.867,808.424C417.464,808.339 418.253,808.701 419.233,809.512C420.214,810.322 421.024,811.238 421.664,812.262C422.303,813.285 422.666,814.223 422.751,815.076C422.836,816.099 422.197,816.696 420.832,816.866L420.193,816.866C418.914,816.866 417.848,816.781 416.995,816.611C416.142,816.44 415.481,816.163 415.012,815.779C414.543,815.395 414.202,814.82 413.989,814.052C413.776,813.285 413.669,812.219 413.669,810.855Z" style="fill:rgb(22,35,138);fill-rule:nonzero;stroke:rgb(22,35,138);stroke-width:9.27px;"/>
                </g>
                <g transform="matrix(1,0,0,1,26.1011,-5.08553)">
                    <path d="M452.426,843.216L448.845,843.216C447.139,843.216 445.37,843.067 443.536,842.768C441.703,842.47 440.04,841.979 438.548,841.297C437.056,840.615 436.309,839.634 436.309,838.355C436.309,838.014 436.373,837.524 436.501,836.884C436.629,836.245 437.034,835.925 437.716,835.925L450.891,834.774C451.232,831.619 451.488,829.039 451.659,827.035C451.829,825.031 451.872,823.155 451.787,821.407C451.701,819.659 451.595,817.826 451.467,815.907C451.339,813.988 451.232,811.494 451.147,808.424C451.147,807.827 451.275,807.358 451.531,807.017C451.787,806.676 452.106,806.42 452.49,806.25C452.874,806.079 453.3,805.951 453.769,805.866C454.238,805.781 454.601,805.738 454.856,805.738C455.368,805.738 455.901,805.909 456.455,806.25C457.01,806.591 457.5,807.017 457.926,807.529C458.353,808.041 458.694,808.574 458.95,809.128C459.205,809.682 459.333,810.215 459.333,810.727L460.357,834.646L471.357,835.158C472.806,834.987 474.15,835.264 475.386,835.989C476.622,836.714 477.283,838.057 477.369,840.018C476.345,841.127 475.109,841.788 473.659,842.001C472.21,842.214 470.696,842.299 469.118,842.257C467.541,842.214 465.985,842.214 464.45,842.257C462.915,842.299 461.55,842.704 460.357,843.472C460.357,843.983 460.399,845.39 460.484,847.693C460.57,849.995 460.655,852.724 460.74,855.879C460.826,859.034 460.932,862.402 461.06,865.984C461.188,869.565 461.295,872.87 461.38,875.897C461.465,878.924 461.529,881.504 461.572,883.636C461.614,885.767 461.636,886.961 461.636,887.217C459.674,888.411 458.097,888.304 456.903,886.897C455.709,885.49 454.75,883.401 454.025,880.63C453.3,877.858 452.788,874.618 452.49,870.909C452.192,867.199 452.021,863.532 451.978,859.908C451.936,856.284 451.957,852.937 452.042,849.867C452.128,846.797 452.256,844.58 452.426,843.216Z" style="fill:rgb(22,35,138);fill-rule:nonzero;stroke:rgb(22,35,138);stroke-width:9.27px;"/>
                </g>
                <g transform="matrix(1,0,0,1,33.5367,-5.08553)">
                    <path d="M495.404,843.216L491.822,843.216C490.117,843.216 488.348,843.067 486.514,842.768C484.681,842.47 483.018,841.979 481.526,841.297C480.033,840.615 479.287,839.634 479.287,838.355C479.287,838.014 479.351,837.524 479.479,836.884C479.607,836.245 480.012,835.925 480.694,835.925L493.869,834.774C494.21,831.619 494.466,829.039 494.637,827.035C494.807,825.031 494.85,823.155 494.764,821.407C494.679,819.659 494.573,817.826 494.445,815.907C494.317,813.988 494.21,811.494 494.125,808.424C494.125,807.827 494.253,807.358 494.509,807.017C494.764,806.676 495.084,806.42 495.468,806.25C495.852,806.079 496.278,805.951 496.747,805.866C497.216,805.781 497.578,805.738 497.834,805.738C498.346,805.738 498.879,805.909 499.433,806.25C499.987,806.591 500.478,807.017 500.904,807.529C501.33,808.041 501.672,808.574 501.927,809.128C502.183,809.682 502.311,810.215 502.311,810.727L503.334,834.646L514.335,835.158C515.784,834.987 517.127,835.264 518.364,835.989C519.6,836.714 520.261,838.057 520.347,840.018C519.323,841.127 518.087,841.788 516.637,842.001C515.187,842.214 513.674,842.299 512.096,842.257C510.519,842.214 508.962,842.214 507.428,842.257C505.893,842.299 504.528,842.704 503.334,843.472C503.334,843.983 503.377,845.39 503.462,847.693C503.548,849.995 503.633,852.724 503.718,855.879C503.803,859.034 503.91,862.402 504.038,865.984C504.166,869.565 504.272,872.87 504.358,875.897C504.443,878.924 504.507,881.504 504.55,883.636C504.592,885.767 504.614,886.961 504.614,887.217C502.652,888.411 501.075,888.304 499.881,886.897C498.687,885.49 497.728,883.401 497.003,880.63C496.278,877.858 495.766,874.618 495.468,870.909C495.169,867.199 494.999,863.532 494.956,859.908C494.914,856.284 494.935,852.937 495.02,849.867C495.106,846.797 495.233,844.58 495.404,843.216Z" style="fill:rgb(22,35,138);fill-rule:nonzero;stroke:rgb(22,35,138);stroke-width:9.27px;"/>
                </g>
                <g transform="matrix(1,0,0,1,40.0952,-5.08553)">
                    <path d="M526.87,927.125L526.87,925.398C526.87,924.844 526.955,924.375 527.126,923.991C527.296,923.608 527.552,923.288 527.893,923.032C528.405,922.861 529.002,922.776 529.684,922.776C530.963,924.226 532.605,926.081 534.609,928.34C536.612,930.6 538.894,932.796 541.452,934.928C544.01,937.06 546.696,938.936 549.51,940.556C552.324,942.176 555.181,942.986 558.08,942.986C560.468,942.901 562.514,942.283 564.22,941.131C565.925,939.98 567.375,938.467 568.569,936.591C569.763,934.715 570.743,932.583 571.511,930.195C572.278,927.807 572.896,925.377 573.365,922.904C573.834,920.431 574.175,918.044 574.389,915.741C574.602,913.439 574.836,911.435 575.092,909.729C575.263,908.877 575.455,907.448 575.668,905.444C575.881,903.44 576.094,901.223 576.307,898.793C576.521,896.363 576.691,893.826 576.819,891.182C576.947,888.539 576.926,886.13 576.755,883.955C576.584,881.781 576.243,879.99 575.732,878.583C575.22,877.176 574.453,876.473 573.429,876.473C571.98,876.473 570.445,876.899 568.825,877.752C567.204,878.604 565.52,879.564 563.772,880.63C562.024,881.696 560.255,882.655 558.464,883.508C556.673,884.36 554.925,884.787 553.219,884.787C549.979,884.787 547.016,884.126 544.33,882.804C541.644,881.482 539.192,879.756 536.975,877.624C534.758,875.492 532.796,872.998 531.091,870.141C529.386,867.284 527.957,864.321 526.806,861.251C525.655,858.181 524.802,855.112 524.248,852.042C523.693,848.972 523.416,846.073 523.416,843.344C523.416,842.747 523.352,841.766 523.224,840.402C523.097,839.038 523.118,837.631 523.288,836.181C523.459,834.731 523.843,833.452 524.44,832.344C525.037,831.235 525.975,830.681 527.254,830.681C527.595,830.681 527.872,831.363 528.085,832.727C528.298,834.092 528.554,835.861 528.853,838.036C529.151,840.21 529.535,842.704 530.004,845.518C530.473,848.332 531.091,851.189 531.858,854.088C532.626,856.988 533.564,859.844 534.672,862.658C535.781,865.472 537.145,867.967 538.766,870.141C540.386,872.316 542.326,874.085 544.586,875.449C546.845,876.814 549.425,877.496 552.324,877.496C554.2,877.496 556.161,877.091 558.208,876.281C560.255,875.471 562.195,874.426 564.028,873.147C565.861,871.868 567.545,870.418 569.08,868.798C570.615,867.093 571.809,865.43 572.662,863.81C572.662,863.468 572.619,862.658 572.534,861.379C572.449,860.1 572.363,858.629 572.278,856.966C572.193,855.303 572.108,853.491 572.022,851.53C571.937,849.569 571.852,847.714 571.766,845.966C571.681,844.218 571.617,842.704 571.575,841.425C571.532,840.146 571.511,839.336 571.511,838.995C571.681,833.793 572.065,830.617 572.662,829.466C573.259,828.314 573.984,828.677 574.836,830.553C575.689,832.429 576.584,835.584 577.522,840.018C578.46,844.452 579.335,849.633 580.145,855.559C580.955,861.486 581.594,867.945 582.063,874.938C582.532,881.93 582.724,888.944 582.639,895.979C582.554,903.014 582.106,909.815 581.296,916.381C580.486,922.947 579.185,928.767 577.395,933.84C575.604,938.914 573.259,943.029 570.359,946.184C567.46,949.339 563.879,951.002 559.615,951.172C557.91,951.172 555.884,950.853 553.539,950.213C551.194,949.573 548.828,948.699 546.44,947.591C544.053,946.482 541.686,945.161 539.341,943.626C536.996,942.091 534.907,940.428 533.074,938.637C531.24,936.846 529.748,934.97 528.597,933.009C527.446,931.048 526.87,929.086 526.87,927.125Z" style="fill:rgb(22,35,138);fill-rule:nonzero;stroke:rgb(22,35,138);stroke-width:9.27px;"/>
                </g>
            </g>
            <g transform="matrix(2.48642,0,0,2.30449,-519.844,-661.813)">
                <ellipse cx="283.281" cy="538.673" rx="12.066" ry="13.018" style="fill:rgb(234,50,133);"/>
            </g>
            <g transform="matrix(1,0,0,1,0,12.7327)">
                <g transform="matrix(0.0250483,0.389364,-0.584178,0.036658,320.266,370.686)">
                    <path d="M119.682,317.165C120.195,313.929 120.772,310.483 121.397,306.946C125.209,285.342 130.098,260.48 130.098,260.48C130.134,260.172 130.539,259.942 131.001,259.967C131.463,259.991 131.809,260.262 131.773,260.57C131.773,260.57 130.787,285.639 129.5,307.378C129.241,311.751 128.945,315.98 128.63,319.846C127.751,330.625 126.889,338.524 126.889,338.524C126.691,340.21 124.668,341.542 122.137,341.654C119.606,341.766 117.332,340.624 116.793,338.971C116.793,338.971 114.841,333.065 112.403,324.494C110.616,318.21 108.572,310.508 106.628,302.669C103.005,288.065 99.79,273.075 98.573,266.078C98.496,265.773 98.805,265.485 99.262,265.434C99.719,265.383 100.153,265.589 100.23,265.894C101.958,271.027 105.701,280.48 109.724,290.939C112.927,299.266 116.333,308.181 119.243,315.984C119.391,316.38 119.538,316.774 119.682,317.165Z" style="fill:rgb(234,50,133);"/>
                </g>
                <g transform="matrix(-0.0250483,-0.389364,0.584178,-0.036658,-88.1564,491.726)">
                    <path d="M119.682,317.165C120.195,313.929 120.772,310.483 121.397,306.946C125.209,285.342 130.098,260.48 130.098,260.48C130.134,260.172 130.539,259.942 131.001,259.967C131.463,259.991 131.809,260.262 131.773,260.57C131.773,260.57 130.787,285.639 129.5,307.378C129.241,311.751 128.945,315.98 128.63,319.846C127.751,330.625 126.889,338.524 126.889,338.524C126.691,340.21 124.668,341.542 122.137,341.654C119.606,341.766 117.332,340.624 116.793,338.971C116.793,338.971 114.841,333.065 112.403,324.494C110.616,318.21 108.572,310.508 106.628,302.669C103.005,288.065 99.79,273.075 98.573,266.078C98.496,265.773 98.805,265.485 99.262,265.434C99.719,265.383 100.153,265.589 100.23,265.894C101.958,271.027 105.701,280.48 109.724,290.939C112.927,299.266 116.333,308.181 119.243,315.984C119.391,316.38 119.538,316.774 119.682,317.165Z" style="fill:rgb(234,50,133);"/>
                </g>
                <g transform="matrix(1.27065,-0.156181,0.174874,1.08824,-391.958,178.226)">
                    <path d="M360.463,277.916C361.206,276.652 362.692,276.652 363.435,277.284C364.178,277.916 364.178,279.18 363.435,280.444C362.915,281.392 361.578,282.34 360.463,282.972C359.349,282.34 358.012,281.392 357.492,280.444C356.749,279.18 356.749,277.916 357.492,277.284C358.235,276.652 359.721,276.652 360.463,277.916Z" style="fill:rgb(234,50,133);"/>
                </g>
                <g transform="matrix(0.409283,-8.97832e-18,8.97832e-18,0.403009,-111.156,310)">
                    <path d="M358.736,668.861C358.043,667.298 357.382,665.526 356.78,663.547C354.217,655.124 352.076,641.841 350.221,626.264C346.231,592.762 343.527,548.226 342.172,520.677C340.87,493.222 336.3,461.14 348.145,422.213C350.907,413.136 354.212,403.515 359.366,393.886C368.584,376.661 382.602,359.162 401.532,340.336C402.52,338.416 403.576,336.497 404.584,334.504C407.711,328.324 410.87,321.882 414.905,316.103C418.978,310.269 423.671,305.001 428.878,300.703C431.191,298.795 438.266,293.594 444.393,288.662C447.817,285.906 450.983,283.401 451.994,281.878C453.524,279.58 454.307,277.146 454.887,274.703C456.73,266.941 456.899,258.936 459.652,251.262C459.652,251.262 454.927,234.837 454.923,234.827C453.09,230.01 450.3,225.346 447.328,220.897C441.578,212.292 435.038,204.503 431.107,198.306C428.58,194.187 428.986,188.878 432.107,185.204C435.229,181.53 440.341,180.346 444.723,182.281C453.34,185.936 462.052,189.253 470.864,192.223C478.727,194.873 486.671,197.226 494.706,199.265C497.791,198.689 501.488,198.441 505.749,198.64C510.13,198.845 515.223,199.57 520.939,200.901C520.939,200.901 540.569,197.738 540.563,197.741C544.061,195.955 551.631,192.232 556.823,190.707C557.907,190.389 558.955,190.162 559.956,190.013C564.622,186.158 573.779,178.545 582.721,170.847C588.865,165.557 594.912,160.234 599.261,156.093C602.927,152.582 608.36,151.766 612.869,154.049C617.379,156.333 620.007,161.23 619.452,166.317C619.452,166.317 612.612,227.196 612.611,227.191C612.895,228.353 613.105,229.432 613.254,230.302C615.622,234.128 617.37,234.727 619.105,237.374C620.176,239.007 621.304,241.078 622.462,244.085C626.259,253.941 627.317,264.316 626.192,274.556C625.127,284.24 622.126,293.804 617.753,302.589C616.103,305.903 614.379,309.201 612.472,312.381C611.111,314.653 609.662,316.867 608.089,318.993L597.155,330.968L597.657,332.668C597.748,333.017 597.824,333.37 597.884,333.726C598.555,337.838 598.77,341.921 598.687,345.995C598.523,354.033 597.112,362.02 596.617,370.113C596.239,376.297 596.876,382.774 596.038,388.99C595.865,390.271 595.641,391.544 595.357,392.805C600.961,400.35 612.581,415.834 626.505,433.482C643.996,455.652 665.881,480.543 680.835,500.078C690.306,512.45 697.198,522.45 700.144,526.818L708.643,530.507C716.533,534.478 728.008,543.276 730.215,552.523C731.671,558.626 731.17,565.312 725.148,571.686C724.111,572.784 723.027,573.887 721.8,574.786C720.722,575.577 719.621,576.333 718.41,576.879L706.737,580.833C698.679,582.287 690.089,581.871 681.941,579.538C674.047,577.277 666.545,573.544 660.462,568.596C660.07,568.304 659.702,567.98 659.362,567.627C659.362,567.627 656.035,563.795 650.302,558.008C647.324,555.002 643.698,551.48 639.649,547.604C639.6,551.523 639.188,555.46 638.475,559.391C636.085,572.556 630.355,585.648 625.593,597.226C619.264,611.942 614.481,621.813 609.652,630.317C601.91,643.95 594.216,654.004 580.128,675.486C579.89,675.876 579.62,676.246 579.319,676.589C573.537,682.71 566.605,687.565 558.922,690.694C551.389,693.762 543.252,695.362 535.004,695.036C534.913,695.036 534.822,695.034 534.731,695.03C534.731,695.03 464.027,694.582 464.024,694.584C456.918,699.169 431.863,715.574 413.923,730.32C413.153,730.952 412.379,731.617 411.61,732.302C420.325,730.386 430.211,729.818 437.736,737.562C443.765,743.767 431.788,733.74 437.804,739.976C438.01,740.19 438.394,740.005 438.69,740.019C441.925,740.18 445.256,740.364 448.672,740.576C474.109,742.156 504.059,745.35 532.14,752.78C566.633,761.907 598.049,777.778 616.747,803.284C628.498,819.356 624.978,837.444 615.49,850.021C612.498,853.988 608.854,857.328 604.95,859.883C602.074,858.66 598.92,857.324 595.47,855.867C594.822,855.593 594.169,856.376 593.516,856.595C592.785,856.842 592.051,857.051 591.318,857.222C595.005,858.592 598.788,860.003 602.478,861.377C601.882,861.709 601.281,862.022 600.678,862.317C599.966,862.665 599.239,863.577 598.523,863.271C593.697,861.208 589.449,859.381 585.734,857.772C581.146,857.589 576.741,855.783 572.957,852.164C559.935,846.327 561.922,846.627 570.378,849.579C560.664,840.23 546.839,832.924 525.974,826.964C505.842,821.212 479.397,816.879 443.957,814.013C426.93,812.564 411.754,811.913 398.226,811.127C367.062,809.318 344.375,808.176 327.789,804.975C303.174,800.224 289.912,790.616 282.415,768.133C280.359,761.962 280.404,754.511 282.996,746.315C286.207,736.165 293.389,724.364 303.397,712.786C317.809,696.113 337.992,679.634 358.736,668.861ZM604.95,859.883C648.808,878.536 627.81,870.81 602.478,861.377C603.311,860.914 604.136,860.415 604.95,859.883ZM596.267,331.94L595.879,332.365C595.541,332.738 594.571,333.118 594.909,333.417C595.633,334.058 596.062,333.218 596.267,331.94ZM592.851,236.529C592.86,236.537 592.868,236.544 592.876,236.552C592.868,236.544 592.86,236.537 592.851,236.529ZM708.156,557.337C707.709,558.27 707.546,559.444 708.104,559.063C708.892,558.526 708.788,557.936 708.156,557.337ZM587.329,845.115C587.565,845.123 587.803,845.118 588.043,845.102C589.046,845.034 590.589,845.489 591.082,844.532C602.26,822.838 592.94,837.595 587.329,845.115ZM585.065,844.646C585.813,842.816 586.935,840.301 588.513,836.949C591.225,831.189 600.271,826.48 595.174,819.131C580.277,797.595 554.021,784.799 525.711,776.373C499.319,768.519 471.055,764.561 447.01,762.249C443.689,761.93 440.45,761.637 437.304,761.372C437.015,761.348 436.667,761.119 436.44,761.3C429.682,766.691 442.835,758.322 436.07,763.684C420.275,776.204 400.018,761.067 391.645,759.787C383.697,758.557 379.62,754.93 377.661,751.397C375.818,748.072 374.945,744.221 376.082,739.79C377.085,735.882 380.237,730.423 385.998,724.893C405.398,706.268 456.936,677.566 456.936,677.566C458.424,676.687 460.131,676.26 461.851,676.337L535.138,682.469L535.151,682.469C541.478,682.196 547.604,680.462 553.188,677.66C558.449,675.021 563.119,671.266 566.969,666.695C579.172,645.066 585.955,634.775 592.634,621.069C596.662,612.804 600.617,603.284 605.744,589.126C609.664,578.816 614.593,567.213 616.394,555.564C617.383,549.17 617.33,542.764 615.055,536.679C613.658,532.945 611.494,529.623 608.839,526.767C606.147,523.871 602.87,521.533 599.251,519.773C595.161,517.78 590.666,516.594 586.787,514.335C584.108,512.775 581.676,510.805 579.516,508.31C577.254,505.695 575.801,502.749 574.8,499.619C573.666,496.071 573.727,492.051 572.54,488.593C571.708,486.167 570.451,483.686 569.056,481.286C567.542,478.68 565.809,476.202 564.1,474.024C559.997,468.666 560.726,460.987 565.76,456.523C570.795,452.059 578.385,452.361 583.06,457.212C583.06,457.212 602.625,478.312 623.214,501.116C638.121,517.628 653.201,535.295 662.825,545.56C666.851,549.854 669.899,552.852 671.295,554.196C675.724,557.138 681.031,559.118 686.486,560.206C691.759,561.257 697.213,561.173 702.245,559.855L708.053,557.244C706.205,555.629 700.664,553.964 698.58,553.093L687.83,549.214C685.457,548.417 683.371,546.923 681.836,544.919C681.836,544.919 671.999,533.906 659.183,517.184C644.217,497.657 625.845,469.991 608.989,447.32C590.028,421.815 574.058,401.904 574.058,401.904C571.51,398.577 570.981,394.093 572.682,390.249C573.544,388.284 573.811,386.207 573.948,384.116C574.283,379.016 573.798,373.795 574.07,368.773C574.438,361.979 575.481,355.259 575.839,348.523C576.023,345.058 576.007,341.588 575.461,338.086L573.63,331.007C573.199,327.576 573.803,324.874 574.853,322.489C575.765,320.418 577.222,318.621 578.985,316.652L589.635,305.007L597.064,292.057C600.144,285.761 602.297,278.931 603.011,272.009C603.676,265.562 603.053,259.03 600.624,252.845C600.246,251.88 599.924,251.193 599.576,250.67C597.319,247.274 595.241,246.638 591.985,240.828C590.944,238.97 590.405,235.332 590.155,232.998C589.117,230.935 588.674,228.581 588.932,226.215L592.257,194.832C581.567,203.997 572.106,211.804 572.106,211.804C569.82,213.684 567.004,214.615 564.186,214.553C564.197,216.033 561.912,214.94 560.183,213.959C556.02,215.828 550.106,220.562 550.106,220.562C548.902,221.213 547.599,221.654 546.251,221.866L522.316,225.556C520.655,225.818 518.959,225.725 517.336,225.284C513.283,224.123 509.622,223.335 506.389,222.942C502.857,222.512 500.012,222.38 497.982,222.956C495.959,223.561 493.813,223.602 491.769,223.073C484.035,220.955 476.387,218.568 468.822,215.914C470.923,219.787 472.77,223.752 474.151,227.765C474.164,227.8 474.176,227.835 474.188,227.871L479.636,249.322C480.278,251.778 479.976,254.39 478.792,256.629C473.994,265.332 475.078,275.071 471.686,283.944C470.551,286.915 469.102,289.835 467.09,292.641C465.698,294.577 462.306,297.793 457.992,301.114C451.247,306.306 442.157,312.392 439.437,314.458C434.2,318.435 429.581,323.662 425.675,329.423C423.259,332.984 420.887,336.63 419.207,340.511C418.034,343.22 417.347,346.037 416.586,348.755C416.207,349.769 415.646,350.704 414.931,351.51C399.682,371.127 390.012,389.399 382.31,405.773C378.284,414.334 374.579,422.244 371.992,430.036C360.279,465.311 364.224,494.765 364.766,519.874C365.303,547.032 366.241,590.995 369.62,624.05C371.057,638.108 372.92,650.105 375.276,657.676C375.845,659.504 376.139,660.97 376.812,661.645C378.634,663.504 379.656,666.019 379.656,668.641L379.845,673.834C380.082,677.942 377.807,681.775 374.12,683.482C357.233,691.514 340.435,704.377 327.22,718.081C318.418,727.209 311.246,736.719 306.883,745.436C303.898,751.399 301.885,756.632 303.334,760.712C308.159,774.321 316.897,779.22 331.937,781.892C347.942,784.736 369.832,784.732 399.791,786.999C413.572,788.042 428.972,789.794 446.257,792.059C483.095,797.043 510.508,802.952 531.15,810.267C556.193,819.141 571.637,829.84 582.049,842.378C582.936,843.449 583.956,844.203 585.065,844.646ZM560.183,213.959C560.262,213.923 560.34,213.889 560.417,213.856C559.79,213.631 559.176,213.353 558.58,213.019C558.915,213.208 559.506,213.574 560.183,213.959ZM560.417,213.856C561.641,214.294 562.914,214.525 564.186,214.553C564.186,214.473 564.178,214.385 564.164,214.289C563.946,212.857 562.405,213.002 560.417,213.856Z" style="fill:rgb(22,35,138);"/>
                </g>
            </g>
        </g>
    </g>
</svg>
