<?xml version="1.0" encoding="UTF-8" standalone="no"?>
<!DOCTYPE svg PUBLIC "-//W3C//DTD SVG 1.1//EN" "http://www.w3.org/Graphics/SVG/1.1/DTD/svg11.dtd">
<svg width="100%" height="100%" viewBox="0 0 1272 490" version="1.1" xmlns="http://www.w3.org/2000/svg" xmlns:xlink="http://www.w3.org/1999/xlink" xml:space="preserve" xmlns:serif="http://www.serif.com/" style="fill-rule:evenodd;clip-rule:evenodd;stroke-linejoin:round;stroke-miterlimit:2;">
    <g transform="matrix(1,0,0,1,-618.805,-561.731)">
        <g transform="matrix(1,0,0,1,292.151,-8.72092)">
            <g transform="matrix(0.999391,-0.0348995,0.0348995,0.999391,56.6249,69.2701)">
                <g transform="matrix(-0.161754,1.4018,1.39523,0.162516,492.105,495.891)">
                    <path d="M327.3,192.823C327.231,192.822 327.16,192.818 327.09,192.813C324.299,192.315 322.765,189.261 322.543,186.569C322.218,184.125 323.258,180.985 325.851,180.438C326.228,180.364 326.618,180.398 326.986,180.501C330.108,181.584 331.505,185.41 331.054,188.579C330.923,190.626 329.432,192.851 327.3,192.823L327.3,192.823ZM315.468,192.692C313.733,192.648 312.381,190.827 312.106,189.115C311.526,185.724 313.017,181.51 316.432,180.438C316.752,180.366 317.083,180.359 317.406,180.41C319.714,180.808 320.692,183.485 320.595,185.647C320.526,188.498 319.094,191.794 316.232,192.596C315.971,192.668 315.716,192.698 315.468,192.691L315.468,192.692ZM334.862,183.06C331.86,182.874 329.802,179.775 329.509,176.881C329.111,174.794 330.187,172.002 332.489,171.836C335.698,171.877 337.888,175.425 337.979,178.478C338.182,180.497 337.032,182.948 334.862,183.06L334.862,183.06ZM308.586,182.372C307.309,182.384 306.053,181.592 305.635,180.249C304.522,176.656 306.758,172.105 310.436,171.35C311.972,171.078 313.32,172.298 313.701,173.765C314.508,176.905 312.851,180.549 310.047,181.974C309.59,182.239 309.086,182.368 308.586,182.372L308.586,182.372ZM322.044,175.929C319.54,175.923 316.997,174.609 315.376,172.652C313.625,170.371 312.19,167.717 311.629,164.838C310.947,162.766 312.493,160.382 314.633,160.368C317.209,160.294 319.422,162.123 321.983,162.259C324.156,162.602 326.102,161.433 328.055,160.668C329.719,159.931 332.017,160.213 332.866,162.066C333.534,163.953 332.551,165.966 331.737,167.642C330.075,170.363 328.296,173.222 325.572,174.922C324.48,175.622 323.267,175.931 322.044,175.929L322.044,175.929Z" style="fill:rgb(222,29,141);fill-rule:nonzero;"/>
                </g>
                <g transform="matrix(-0.20339,1.39631,1.38977,0.204347,17.0331,915.27)">
                    <path d="M23.804,193.823C23.735,193.822 23.664,193.818 23.594,193.813C20.804,193.315 19.269,190.261 19.047,187.569C18.722,185.125 19.762,181.985 22.355,181.438C22.732,181.364 23.122,181.398 23.49,181.501C26.612,182.584 28.009,186.41 27.558,189.579C27.427,191.626 25.936,193.851 23.804,193.823L23.804,193.823ZM11.972,193.692C10.237,193.648 8.885,191.827 8.61,190.115C8.03,186.724 9.521,182.51 12.936,181.438C13.256,181.366 13.587,181.359 13.91,181.41C16.218,181.808 17.196,184.485 17.099,186.647C17.03,189.498 15.598,192.794 12.736,193.596C12.475,193.668 12.22,193.698 11.972,193.692L11.972,193.692ZM31.366,184.06C28.364,183.874 26.306,180.775 26.013,177.881C25.615,175.794 26.691,173.002 28.993,172.836C32.202,172.877 34.392,176.425 34.483,179.478C34.686,181.497 33.536,183.948 31.366,184.06L31.366,184.06ZM5.089,183.372C3.812,183.384 2.556,182.592 2.138,181.249C1.025,177.656 3.261,173.105 6.939,172.35C8.475,172.078 9.824,173.298 10.204,174.765C11.011,177.905 9.354,181.549 6.55,182.974C6.093,183.239 5.589,183.368 5.089,183.372L5.089,183.372ZM18.547,176.929C16.043,176.923 13.5,175.609 11.879,173.652C10.128,171.371 8.693,168.717 8.132,165.838C7.45,163.766 8.996,161.382 11.136,161.368C13.712,161.294 15.925,163.123 18.486,163.259C20.659,163.602 22.605,162.433 24.558,161.668C26.222,160.931 28.52,161.213 29.369,163.066C30.037,164.953 29.054,166.966 28.24,168.642C26.578,171.363 24.799,174.223 22.075,175.922C20.983,176.622 19.77,176.932 18.547,176.929L18.547,176.929L18.547,176.929Z" style="fill:rgb(222,29,141);fill-rule:nonzero;"/>
                </g>
                <g transform="matrix(-0.162217,1.40175,1.39518,0.162981,252.47,710.36)">
                    <path d="M169.8,187.823C169.731,187.822 169.66,187.818 169.59,187.813C166.8,187.315 165.265,184.261 165.043,181.569C164.718,179.125 165.758,175.985 168.351,175.438C168.728,175.364 169.118,175.398 169.486,175.501C172.608,176.584 174.005,180.41 173.554,183.579C173.423,185.626 171.932,187.851 169.8,187.823L169.8,187.823ZM157.968,187.692C156.233,187.648 154.881,185.827 154.606,184.115C154.026,180.724 155.517,176.51 158.932,175.438C159.252,175.366 159.583,175.359 159.906,175.41C162.214,175.808 163.192,178.485 163.095,180.647C163.026,183.498 161.594,186.794 158.732,187.596C158.471,187.668 158.216,187.698 157.968,187.692L157.968,187.692ZM177.362,178.06C174.36,177.874 172.302,174.775 172.009,171.881C171.611,169.794 172.687,167.002 174.989,166.836C178.198,166.877 180.388,170.425 180.479,173.478C180.682,175.497 179.532,177.948 177.362,178.06L177.362,178.06ZM151.086,177.372C149.809,177.384 148.553,176.592 148.135,175.249C147.022,171.656 149.258,167.105 152.936,166.35C154.472,166.078 155.82,167.298 156.201,168.765C157.008,171.905 155.351,175.549 152.547,176.974C152.09,177.239 151.586,177.368 151.086,177.372L151.086,177.372ZM164.544,170.929C162.04,170.923 159.497,169.609 157.876,167.652C156.125,165.371 154.69,162.717 154.129,159.838C153.447,157.766 154.993,155.382 157.133,155.368C159.709,155.294 161.922,157.123 164.483,157.259C166.656,157.602 168.602,156.433 170.555,155.668C172.219,154.931 174.517,155.213 175.366,157.066C176.034,158.953 175.051,160.966 174.237,162.642C172.575,165.363 170.796,168.223 168.072,169.922C166.98,170.622 165.767,170.932 164.544,170.929L164.544,170.929Z" style="fill:rgb(222,29,141);fill-rule:nonzero;"/>
                </g>
                <g transform="matrix(0.5668,1.29226,1.28697,-0.562831,919.232,645.489)">
                    <path d="M327.3,192.823C327.231,192.822 327.16,192.818 327.09,192.813C324.299,192.315 322.765,189.261 322.543,186.569C322.218,184.125 323.258,180.985 325.851,180.438C326.228,180.364 326.618,180.398 326.986,180.501C330.108,181.584 331.505,185.41 331.054,188.579C330.923,190.626 329.432,192.851 327.3,192.823L327.3,192.823ZM315.468,192.692C313.733,192.648 312.381,190.827 312.106,189.115C311.526,185.724 313.017,181.51 316.432,180.438C316.752,180.366 317.083,180.359 317.406,180.41C319.714,180.808 320.692,183.485 320.595,185.647C320.526,188.498 319.094,191.794 316.232,192.596C315.971,192.668 315.716,192.698 315.468,192.691L315.468,192.692ZM334.862,183.06C331.86,182.874 329.802,179.775 329.509,176.881C329.111,174.794 330.187,172.002 332.489,171.836C335.698,171.877 337.888,175.425 337.979,178.478C338.182,180.497 337.032,182.948 334.862,183.06L334.862,183.06ZM308.586,182.372C307.309,182.384 306.053,181.592 305.635,180.249C304.522,176.656 306.758,172.105 310.436,171.35C311.972,171.078 313.32,172.298 313.701,173.765C314.508,176.905 312.851,180.549 310.047,181.974C309.59,182.239 309.086,182.368 308.586,182.372L308.586,182.372ZM322.044,175.929C319.54,175.923 316.997,174.609 315.376,172.652C313.625,170.371 312.19,167.717 311.629,164.838C310.947,162.766 312.493,160.382 314.633,160.368C317.209,160.294 319.422,162.123 321.983,162.259C324.156,162.602 326.102,161.433 328.055,160.668C329.719,159.931 332.017,160.213 332.866,162.066C333.534,163.953 332.551,165.966 331.737,167.642C330.075,170.363 328.296,173.222 325.572,174.922C324.48,175.622 323.267,175.931 322.044,175.929L322.044,175.929Z" style="fill:rgb(222,29,141);fill-rule:nonzero;"/>
                </g>
                <g transform="matrix(-0.20339,1.39631,1.38977,0.204347,651.945,915.27)">
                    <path d="M23.804,193.823C23.735,193.822 23.664,193.818 23.594,193.813C20.804,193.315 19.269,190.261 19.047,187.569C18.722,185.125 19.762,181.985 22.355,181.438C22.732,181.364 23.122,181.398 23.49,181.501C26.612,182.584 28.009,186.41 27.558,189.579C27.427,191.626 25.936,193.851 23.804,193.823L23.804,193.823ZM11.972,193.692C10.237,193.648 8.885,191.827 8.61,190.115C8.03,186.724 9.521,182.51 12.936,181.438C13.256,181.366 13.587,181.359 13.91,181.41C16.218,181.808 17.196,184.485 17.099,186.647C17.03,189.498 15.598,192.794 12.736,193.596C12.475,193.668 12.22,193.698 11.972,193.692L11.972,193.692ZM31.366,184.06C28.364,183.874 26.306,180.775 26.013,177.881C25.615,175.794 26.691,173.002 28.993,172.836C32.202,172.877 34.392,176.425 34.483,179.478C34.686,181.497 33.536,183.948 31.366,184.06L31.366,184.06ZM5.089,183.372C3.812,183.384 2.556,182.592 2.138,181.249C1.025,177.656 3.261,173.105 6.939,172.35C8.475,172.078 9.824,173.298 10.204,174.765C11.011,177.905 9.354,181.549 6.55,182.974C6.093,183.239 5.589,183.368 5.089,183.372L5.089,183.372ZM18.547,176.929C16.043,176.923 13.5,175.609 11.879,173.652C10.128,171.371 8.693,168.717 8.132,165.838C7.45,163.766 8.996,161.382 11.136,161.368C13.712,161.294 15.925,163.123 18.486,163.259C20.659,163.602 22.605,162.433 24.558,161.668C26.222,160.931 28.52,161.213 29.369,163.066C30.037,164.953 29.054,166.966 28.24,168.642C26.578,171.363 24.799,174.223 22.075,175.922C20.983,176.622 19.77,176.932 18.547,176.929L18.547,176.929L18.547,176.929Z" style="fill:rgb(222,29,141);fill-rule:nonzero;"/>
                </g>
                <g transform="matrix(-0.162217,1.40175,1.39518,0.162981,887.381,710.36)">
                    <path d="M169.8,187.823C169.731,187.822 169.66,187.818 169.59,187.813C166.8,187.315 165.265,184.261 165.043,181.569C164.718,179.125 165.758,175.985 168.351,175.438C168.728,175.364 169.118,175.398 169.486,175.501C172.608,176.584 174.005,180.41 173.554,183.579C173.423,185.626 171.932,187.851 169.8,187.823L169.8,187.823ZM157.968,187.692C156.233,187.648 154.881,185.827 154.606,184.115C154.026,180.724 155.517,176.51 158.932,175.438C159.252,175.366 159.583,175.359 159.906,175.41C162.214,175.808 163.192,178.485 163.095,180.647C163.026,183.498 161.594,186.794 158.732,187.596C158.471,187.668 158.216,187.698 157.968,187.692L157.968,187.692ZM177.362,178.06C174.36,177.874 172.302,174.775 172.009,171.881C171.611,169.794 172.687,167.002 174.989,166.836C178.198,166.877 180.388,170.425 180.479,173.478C180.682,175.497 179.532,177.948 177.362,178.06L177.362,178.06ZM151.086,177.372C149.809,177.384 148.553,176.592 148.135,175.249C147.022,171.656 149.258,167.105 152.936,166.35C154.472,166.078 155.82,167.298 156.201,168.765C157.008,171.905 155.351,175.549 152.547,176.974C152.09,177.239 151.586,177.368 151.086,177.372L151.086,177.372ZM164.544,170.929C162.04,170.923 159.497,169.609 157.876,167.652C156.125,165.371 154.69,162.717 154.129,159.838C153.447,157.766 154.993,155.382 157.133,155.368C159.709,155.294 161.922,157.123 164.483,157.259C166.656,157.602 168.602,156.433 170.555,155.668C172.219,154.931 174.517,155.213 175.366,157.066C176.034,158.953 175.051,160.966 174.237,162.642C172.575,165.363 170.796,168.223 168.072,169.922C166.98,170.622 165.767,170.932 164.544,170.929L164.544,170.929Z" style="fill:rgb(222,29,141);fill-rule:nonzero;"/>
                </g>
            </g>
            <g transform="matrix(-0.999391,-0.0348995,-0.0348995,0.999391,1552.21,-357.706)">
                <g transform="matrix(-0.161754,1.4018,1.39523,0.162516,492.105,495.891)">
                    <path d="M327.3,192.823C327.231,192.822 327.16,192.818 327.09,192.813C324.299,192.315 322.765,189.261 322.543,186.569C322.218,184.125 323.258,180.985 325.851,180.438C326.228,180.364 326.618,180.398 326.986,180.501C330.108,181.584 331.505,185.41 331.054,188.579C330.923,190.626 329.432,192.851 327.3,192.823L327.3,192.823ZM315.468,192.692C313.733,192.648 312.381,190.827 312.106,189.115C311.526,185.724 313.017,181.51 316.432,180.438C316.752,180.366 317.083,180.359 317.406,180.41C319.714,180.808 320.692,183.485 320.595,185.647C320.526,188.498 319.094,191.794 316.232,192.596C315.971,192.668 315.716,192.698 315.468,192.691L315.468,192.692ZM334.862,183.06C331.86,182.874 329.802,179.775 329.509,176.881C329.111,174.794 330.187,172.002 332.489,171.836C335.698,171.877 337.888,175.425 337.979,178.478C338.182,180.497 337.032,182.948 334.862,183.06L334.862,183.06ZM308.586,182.372C307.309,182.384 306.053,181.592 305.635,180.249C304.522,176.656 306.758,172.105 310.436,171.35C311.972,171.078 313.32,172.298 313.701,173.765C314.508,176.905 312.851,180.549 310.047,181.974C309.59,182.239 309.086,182.368 308.586,182.372L308.586,182.372ZM322.044,175.929C319.54,175.923 316.997,174.609 315.376,172.652C313.625,170.371 312.19,167.717 311.629,164.838C310.947,162.766 312.493,160.382 314.633,160.368C317.209,160.294 319.422,162.123 321.983,162.259C324.156,162.602 326.102,161.433 328.055,160.668C329.719,159.931 332.017,160.213 332.866,162.066C333.534,163.953 332.551,165.966 331.737,167.642C330.075,170.363 328.296,173.222 325.572,174.922C324.48,175.622 323.267,175.931 322.044,175.929L322.044,175.929Z" style="fill:rgb(222,29,141);fill-rule:nonzero;"/>
                </g>
                <g transform="matrix(-0.20339,1.39631,1.38977,0.204347,17.0331,915.27)">
                    <path d="M23.804,193.823C23.735,193.822 23.664,193.818 23.594,193.813C20.804,193.315 19.269,190.261 19.047,187.569C18.722,185.125 19.762,181.985 22.355,181.438C22.732,181.364 23.122,181.398 23.49,181.501C26.612,182.584 28.009,186.41 27.558,189.579C27.427,191.626 25.936,193.851 23.804,193.823L23.804,193.823ZM11.972,193.692C10.237,193.648 8.885,191.827 8.61,190.115C8.03,186.724 9.521,182.51 12.936,181.438C13.256,181.366 13.587,181.359 13.91,181.41C16.218,181.808 17.196,184.485 17.099,186.647C17.03,189.498 15.598,192.794 12.736,193.596C12.475,193.668 12.22,193.698 11.972,193.692L11.972,193.692ZM31.366,184.06C28.364,183.874 26.306,180.775 26.013,177.881C25.615,175.794 26.691,173.002 28.993,172.836C32.202,172.877 34.392,176.425 34.483,179.478C34.686,181.497 33.536,183.948 31.366,184.06L31.366,184.06ZM5.089,183.372C3.812,183.384 2.556,182.592 2.138,181.249C1.025,177.656 3.261,173.105 6.939,172.35C8.475,172.078 9.824,173.298 10.204,174.765C11.011,177.905 9.354,181.549 6.55,182.974C6.093,183.239 5.589,183.368 5.089,183.372L5.089,183.372ZM18.547,176.929C16.043,176.923 13.5,175.609 11.879,173.652C10.128,171.371 8.693,168.717 8.132,165.838C7.45,163.766 8.996,161.382 11.136,161.368C13.712,161.294 15.925,163.123 18.486,163.259C20.659,163.602 22.605,162.433 24.558,161.668C26.222,160.931 28.52,161.213 29.369,163.066C30.037,164.953 29.054,166.966 28.24,168.642C26.578,171.363 24.799,174.223 22.075,175.922C20.983,176.622 19.77,176.932 18.547,176.929L18.547,176.929L18.547,176.929Z" style="fill:rgb(222,29,141);fill-rule:nonzero;"/>
                </g>
                <g transform="matrix(-0.162217,1.40175,1.39518,0.162981,252.47,710.36)">
                    <path d="M169.8,187.823C169.731,187.822 169.66,187.818 169.59,187.813C166.8,187.315 165.265,184.261 165.043,181.569C164.718,179.125 165.758,175.985 168.351,175.438C168.728,175.364 169.118,175.398 169.486,175.501C172.608,176.584 174.005,180.41 173.554,183.579C173.423,185.626 171.932,187.851 169.8,187.823L169.8,187.823ZM157.968,187.692C156.233,187.648 154.881,185.827 154.606,184.115C154.026,180.724 155.517,176.51 158.932,175.438C159.252,175.366 159.583,175.359 159.906,175.41C162.214,175.808 163.192,178.485 163.095,180.647C163.026,183.498 161.594,186.794 158.732,187.596C158.471,187.668 158.216,187.698 157.968,187.692L157.968,187.692ZM177.362,178.06C174.36,177.874 172.302,174.775 172.009,171.881C171.611,169.794 172.687,167.002 174.989,166.836C178.198,166.877 180.388,170.425 180.479,173.478C180.682,175.497 179.532,177.948 177.362,178.06L177.362,178.06ZM151.086,177.372C149.809,177.384 148.553,176.592 148.135,175.249C147.022,171.656 149.258,167.105 152.936,166.35C154.472,166.078 155.82,167.298 156.201,168.765C157.008,171.905 155.351,175.549 152.547,176.974C152.09,177.239 151.586,177.368 151.086,177.372L151.086,177.372ZM164.544,170.929C162.04,170.923 159.497,169.609 157.876,167.652C156.125,165.371 154.69,162.717 154.129,159.838C153.447,157.766 154.993,155.382 157.133,155.368C159.709,155.294 161.922,157.123 164.483,157.259C166.656,157.602 168.602,156.433 170.555,155.668C172.219,154.931 174.517,155.213 175.366,157.066C176.034,158.953 175.051,160.966 174.237,162.642C172.575,165.363 170.796,168.223 168.072,169.922C166.98,170.622 165.767,170.932 164.544,170.929L164.544,170.929Z" style="fill:rgb(222,29,141);fill-rule:nonzero;"/>
                </g>
            </g>
            <g transform="matrix(0.999391,-0.0348995,0.0348995,0.999391,58.0107,42.9046)">
                <g transform="matrix(0.150962,1.40301,1.39644,-0.151673,145.58,826.031)">
                    <path d="M97.804,162.823C97.735,162.822 97.664,162.818 97.594,162.813C94.804,162.315 93.269,159.261 93.047,156.569C92.722,154.125 93.762,150.985 96.355,150.438C96.732,150.364 97.122,150.398 97.49,150.501C100.612,151.584 102.009,155.41 101.558,158.579C101.427,160.626 99.936,162.851 97.804,162.823L97.804,162.823ZM85.972,162.692C84.237,162.648 82.885,160.827 82.61,159.115C82.03,155.724 83.521,151.51 86.936,150.438C87.256,150.366 87.587,150.359 87.91,150.41C90.218,150.808 91.196,153.485 91.099,155.647C91.03,158.498 89.598,161.794 86.736,162.596C86.475,162.668 86.22,162.698 85.972,162.692L85.972,162.692ZM105.366,153.06C102.364,152.874 100.306,149.775 100.013,146.881C99.615,144.794 100.691,142.002 102.993,141.836C106.202,141.877 108.392,145.425 108.483,148.478C108.686,150.497 107.536,152.948 105.366,153.06L105.366,153.06ZM79.089,152.372C77.812,152.384 76.556,151.592 76.138,150.249C75.025,146.656 77.261,142.105 80.939,141.35C82.475,141.078 83.824,142.298 84.204,143.765C85.011,146.905 83.354,150.549 80.55,151.974C80.093,152.239 79.589,152.368 79.089,152.372L79.089,152.372ZM92.547,145.929C90.043,145.923 87.5,144.609 85.879,142.652C84.128,140.371 82.693,137.717 82.132,134.838C81.45,132.766 82.996,130.382 85.136,130.368C87.712,130.294 89.925,132.123 92.486,132.259C94.659,132.602 96.605,131.433 98.558,130.668C100.222,129.931 102.52,130.213 103.369,132.066C104.037,133.953 103.054,135.966 102.24,137.642C100.578,140.363 98.799,143.223 96.075,144.922C94.983,145.622 93.77,145.932 92.547,145.929L92.547,145.929L92.547,145.929Z" style="fill:rgb(222,29,141);fill-rule:nonzero;"/>
                </g>
                <g transform="matrix(0.23639,1.39106,1.38454,-0.237503,316.093,629.378)">
                    <path d="M247.8,161.823C247.731,161.822 247.66,161.818 247.59,161.813C244.8,161.315 243.265,158.261 243.043,155.569C242.718,153.125 243.758,149.985 246.351,149.438C246.728,149.364 247.118,149.398 247.486,149.501C250.608,150.584 252.005,154.41 251.554,157.579C251.423,159.626 249.932,161.851 247.8,161.823L247.8,161.823ZM235.968,161.692C234.233,161.648 232.881,159.827 232.606,158.115C232.026,154.724 233.517,150.51 236.932,149.438C237.252,149.366 237.583,149.359 237.906,149.41C240.214,149.808 241.192,152.485 241.095,154.647C241.026,157.498 239.594,160.794 236.732,161.596C236.471,161.668 236.216,161.698 235.968,161.692L235.968,161.692ZM255.362,152.06C252.36,151.874 250.302,148.775 250.009,145.881C249.611,143.794 250.687,141.002 252.989,140.836C256.198,140.877 258.388,144.425 258.479,147.478C258.682,149.497 257.532,151.948 255.362,152.06L255.362,152.06ZM229.086,151.372C227.809,151.384 226.553,150.592 226.135,149.249C225.022,145.656 227.258,141.105 230.936,140.35C232.472,140.078 233.821,141.298 234.201,142.765C235.008,145.905 233.351,149.549 230.547,150.974C230.09,151.239 229.586,151.368 229.086,151.372L229.086,151.372ZM242.544,144.929C240.04,144.923 237.497,143.609 235.876,141.652C234.125,139.371 232.69,136.717 232.129,133.838C231.447,131.766 232.993,129.382 235.133,129.368C237.709,129.294 239.922,131.123 242.483,131.259C244.656,131.602 246.602,130.433 248.555,129.668C250.219,128.931 252.517,129.213 253.366,131.066C254.034,132.953 253.051,134.966 252.237,136.642C250.575,139.363 248.796,142.223 246.072,143.922C244.98,144.622 243.767,144.932 242.544,144.929L242.544,144.929Z" style="fill:rgb(222,29,141);fill-rule:nonzero;"/>
                </g>
                <g transform="matrix(0.143307,1.40382,1.39724,-0.143982,534.914,392.143)">
                    <path d="M403.8,160.823C403.731,160.822 403.66,160.818 403.59,160.813C400.8,160.315 399.265,157.262 399.043,154.569C398.718,152.125 399.758,148.985 402.351,148.438C402.728,148.364 403.118,148.398 403.486,148.501C406.608,149.584 408.005,153.41 407.554,156.579C407.423,158.626 405.932,160.851 403.8,160.823L403.8,160.823ZM391.968,160.692C390.233,160.648 388.881,158.827 388.606,157.115C388.026,153.724 389.517,149.51 392.932,148.438C393.252,148.366 393.583,148.359 393.906,148.411C396.214,148.809 397.192,151.485 397.095,153.647C397.026,156.498 395.594,159.795 392.732,160.597C392.471,160.669 392.216,160.699 391.968,160.692L391.968,160.692ZM411.362,151.06C408.36,150.874 406.302,147.775 406.009,144.881C405.611,142.795 406.687,140.002 408.989,139.836C412.198,139.877 414.388,143.425 414.479,146.478C414.682,148.497 413.532,150.949 411.362,151.06L411.362,151.06ZM385.086,150.372C383.809,150.384 382.553,149.593 382.135,148.249C381.022,144.656 383.258,140.105 386.936,139.35C388.471,139.078 389.82,140.298 390.201,141.765C391.008,144.905 389.351,148.549 386.547,149.974C386.09,150.24 385.586,150.368 385.086,150.372L385.086,150.372ZM398.544,143.929C396.04,143.923 393.497,142.609 391.876,140.652C390.125,138.371 388.69,135.717 388.129,132.838C387.447,130.767 388.993,128.382 391.133,128.368C393.709,128.294 395.922,130.123 398.484,130.259C400.656,130.602 402.602,129.433 404.555,128.668C406.219,127.932 408.517,128.213 409.366,130.066C410.034,131.953 409.051,133.966 408.237,135.642C406.575,138.363 404.796,141.223 402.072,142.922C400.98,143.622 399.767,143.932 398.544,143.929L398.544,143.929Z" style="fill:rgb(222,29,141);fill-rule:nonzero;"/>
                </g>
                <g transform="matrix(0.150962,1.40301,1.39644,-0.151673,780.492,826.031)">
                    <path d="M97.804,162.823C97.735,162.822 97.664,162.818 97.594,162.813C94.804,162.315 93.269,159.261 93.047,156.569C92.722,154.125 93.762,150.985 96.355,150.438C96.732,150.364 97.122,150.398 97.49,150.501C100.612,151.584 102.009,155.41 101.558,158.579C101.427,160.626 99.936,162.851 97.804,162.823L97.804,162.823ZM85.972,162.692C84.237,162.648 82.885,160.827 82.61,159.115C82.03,155.724 83.521,151.51 86.936,150.438C87.256,150.366 87.587,150.359 87.91,150.41C90.218,150.808 91.196,153.485 91.099,155.647C91.03,158.498 89.598,161.794 86.736,162.596C86.475,162.668 86.22,162.698 85.972,162.692L85.972,162.692ZM105.366,153.06C102.364,152.874 100.306,149.775 100.013,146.881C99.615,144.794 100.691,142.002 102.993,141.836C106.202,141.877 108.392,145.425 108.483,148.478C108.686,150.497 107.536,152.948 105.366,153.06L105.366,153.06ZM79.089,152.372C77.812,152.384 76.556,151.592 76.138,150.249C75.025,146.656 77.261,142.105 80.939,141.35C82.475,141.078 83.824,142.298 84.204,143.765C85.011,146.905 83.354,150.549 80.55,151.974C80.093,152.239 79.589,152.368 79.089,152.372L79.089,152.372ZM92.547,145.929C90.043,145.923 87.5,144.609 85.879,142.652C84.128,140.371 82.693,137.717 82.132,134.838C81.45,132.766 82.996,130.382 85.136,130.368C87.712,130.294 89.925,132.123 92.486,132.259C94.659,132.602 96.605,131.433 98.558,130.668C100.222,129.931 102.52,130.213 103.369,132.066C104.037,133.953 103.054,135.966 102.24,137.642C100.578,140.363 98.799,143.223 96.075,144.922C94.983,145.622 93.77,145.932 92.547,145.929L92.547,145.929L92.547,145.929Z" style="fill:rgb(222,29,141);fill-rule:nonzero;"/>
                </g>
                <g transform="matrix(0.23639,1.39106,1.38454,-0.237503,951.005,629.378)">
                    <path d="M247.8,161.823C247.731,161.822 247.66,161.818 247.59,161.813C244.8,161.315 243.265,158.261 243.043,155.569C242.718,153.125 243.758,149.985 246.351,149.438C246.728,149.364 247.118,149.398 247.486,149.501C250.608,150.584 252.005,154.41 251.554,157.579C251.423,159.626 249.932,161.851 247.8,161.823L247.8,161.823ZM235.968,161.692C234.233,161.648 232.881,159.827 232.606,158.115C232.026,154.724 233.517,150.51 236.932,149.438C237.252,149.366 237.583,149.359 237.906,149.41C240.214,149.808 241.192,152.485 241.095,154.647C241.026,157.498 239.594,160.794 236.732,161.596C236.471,161.668 236.216,161.698 235.968,161.692L235.968,161.692ZM255.362,152.06C252.36,151.874 250.302,148.775 250.009,145.881C249.611,143.794 250.687,141.002 252.989,140.836C256.198,140.877 258.388,144.425 258.479,147.478C258.682,149.497 257.532,151.948 255.362,152.06L255.362,152.06ZM229.086,151.372C227.809,151.384 226.553,150.592 226.135,149.249C225.022,145.656 227.258,141.105 230.936,140.35C232.472,140.078 233.821,141.298 234.201,142.765C235.008,145.905 233.351,149.549 230.547,150.974C230.09,151.239 229.586,151.368 229.086,151.372L229.086,151.372ZM242.544,144.929C240.04,144.923 237.497,143.609 235.876,141.652C234.125,139.371 232.69,136.717 232.129,133.838C231.447,131.766 232.993,129.382 235.133,129.368C237.709,129.294 239.922,131.123 242.483,131.259C244.656,131.602 246.602,130.433 248.555,129.668C250.219,128.931 252.517,129.213 253.366,131.066C254.034,132.953 253.051,134.966 252.237,136.642C250.575,139.363 248.796,142.223 246.072,143.922C244.98,144.622 243.767,144.932 242.544,144.929L242.544,144.929Z" style="fill:rgb(222,29,141);fill-rule:nonzero;"/>
                </g>
            </g>
            <g transform="matrix(0.7043,-1.22278,-1.21789,-0.699853,1559.79,940.016)">
                <path d="M97.804,162.823C97.735,162.822 97.664,162.818 97.594,162.813C94.804,162.315 93.269,159.261 93.047,156.569C92.722,154.125 93.762,150.985 96.355,150.438C96.732,150.364 97.122,150.398 97.49,150.501C100.612,151.584 102.009,155.41 101.558,158.579C101.427,160.626 99.936,162.851 97.804,162.823L97.804,162.823ZM85.972,162.692C84.237,162.648 82.885,160.827 82.61,159.115C82.03,155.724 83.521,151.51 86.936,150.438C87.256,150.366 87.587,150.359 87.91,150.41C90.218,150.808 91.196,153.485 91.099,155.647C91.03,158.498 89.598,161.794 86.736,162.596C86.475,162.668 86.22,162.698 85.972,162.692L85.972,162.692ZM105.366,153.06C102.364,152.874 100.306,149.775 100.013,146.881C99.615,144.794 100.691,142.002 102.993,141.836C106.202,141.877 108.392,145.425 108.483,148.478C108.686,150.497 107.536,152.948 105.366,153.06L105.366,153.06ZM79.089,152.372C77.812,152.384 76.556,151.592 76.138,150.249C75.025,146.656 77.261,142.105 80.939,141.35C82.475,141.078 83.824,142.298 84.204,143.765C85.011,146.905 83.354,150.549 80.55,151.974C80.093,152.239 79.589,152.368 79.089,152.372L79.089,152.372ZM92.547,145.929C90.043,145.923 87.5,144.609 85.879,142.652C84.128,140.371 82.693,137.717 82.132,134.838C81.45,132.766 82.996,130.382 85.136,130.368C87.712,130.294 89.925,132.123 92.486,132.259C94.659,132.602 96.605,131.433 98.558,130.668C100.222,129.931 102.52,130.213 103.369,132.066C104.037,133.953 103.054,135.966 102.24,137.642C100.578,140.363 98.799,143.223 96.075,144.922C94.983,145.622 93.77,145.932 92.547,145.929L92.547,145.929L92.547,145.929Z" style="fill:rgb(222,29,141);fill-rule:nonzero;"/>
            </g>
            <g transform="matrix(1.33453,0.458504,0.457839,-1.32795,1064.34,955.476)">
                <path d="M327.3,192.823C327.231,192.822 327.16,192.818 327.09,192.813C324.299,192.315 322.765,189.261 322.543,186.569C322.218,184.125 323.258,180.985 325.851,180.438C326.228,180.364 326.618,180.398 326.986,180.501C330.108,181.584 331.505,185.41 331.054,188.579C330.923,190.626 329.432,192.851 327.3,192.823L327.3,192.823ZM315.468,192.692C313.733,192.648 312.381,190.827 312.106,189.115C311.526,185.724 313.017,181.51 316.432,180.438C316.752,180.366 317.083,180.359 317.406,180.41C319.714,180.808 320.692,183.485 320.595,185.647C320.526,188.498 319.094,191.794 316.232,192.596C315.971,192.668 315.716,192.698 315.468,192.691L315.468,192.692ZM334.862,183.06C331.86,182.874 329.802,179.775 329.509,176.881C329.111,174.794 330.187,172.002 332.489,171.836C335.698,171.877 337.888,175.425 337.979,178.478C338.182,180.497 337.032,182.948 334.862,183.06L334.862,183.06ZM308.586,182.372C307.309,182.384 306.053,181.592 305.635,180.249C304.522,176.656 306.758,172.105 310.436,171.35C311.972,171.078 313.32,172.298 313.701,173.765C314.508,176.905 312.851,180.549 310.047,181.974C309.59,182.239 309.086,182.368 308.586,182.372L308.586,182.372ZM322.044,175.929C319.54,175.923 316.997,174.609 315.376,172.652C313.625,170.371 312.19,167.717 311.629,164.838C310.947,162.766 312.493,160.382 314.633,160.368C317.209,160.294 319.422,162.123 321.983,162.259C324.156,162.602 326.102,161.433 328.055,160.668C329.719,159.931 332.017,160.213 332.866,162.066C333.534,163.953 332.551,165.966 331.737,167.642C330.075,170.363 328.296,173.222 325.572,174.922C324.48,175.622 323.267,175.931 322.044,175.929L322.044,175.929Z" style="fill:rgb(222,29,141);fill-rule:nonzero;"/>
            </g>
            <g transform="matrix(1.36997,-0.338197,-0.335188,-1.36408,1175.09,1053.75)">
                <path d="M327.3,192.823C327.231,192.822 327.16,192.818 327.09,192.813C324.299,192.315 322.765,189.261 322.543,186.569C322.218,184.125 323.258,180.985 325.851,180.438C326.228,180.364 326.618,180.398 326.986,180.501C330.108,181.584 331.505,185.41 331.054,188.579C330.923,190.626 329.432,192.851 327.3,192.823L327.3,192.823ZM315.468,192.692C313.733,192.648 312.381,190.827 312.106,189.115C311.526,185.724 313.017,181.51 316.432,180.438C316.752,180.366 317.083,180.359 317.406,180.41C319.714,180.808 320.692,183.485 320.595,185.647C320.526,188.498 319.094,191.794 316.232,192.596C315.971,192.668 315.716,192.698 315.468,192.691L315.468,192.692ZM334.862,183.06C331.86,182.874 329.802,179.775 329.509,176.881C329.111,174.794 330.187,172.002 332.489,171.836C335.698,171.877 337.888,175.425 337.979,178.478C338.182,180.497 337.032,182.948 334.862,183.06L334.862,183.06ZM308.586,182.372C307.309,182.384 306.053,181.592 305.635,180.249C304.522,176.656 306.758,172.105 310.436,171.35C311.972,171.078 313.32,172.298 313.701,173.765C314.508,176.905 312.851,180.549 310.047,181.974C309.59,182.239 309.086,182.368 308.586,182.372L308.586,182.372ZM322.044,175.929C319.54,175.923 316.997,174.609 315.376,172.652C313.625,170.371 312.19,167.717 311.629,164.838C310.947,162.766 312.493,160.382 314.633,160.368C317.209,160.294 319.422,162.123 321.983,162.259C324.156,162.602 326.102,161.433 328.055,160.668C329.719,159.931 332.017,160.213 332.866,162.066C333.534,163.953 332.551,165.966 331.737,167.642C330.075,170.363 328.296,173.222 325.572,174.922C324.48,175.622 323.267,175.931 322.044,175.929L322.044,175.929Z" style="fill:rgb(222,29,141);fill-rule:nonzero;"/>
            </g>
            <g transform="matrix(0.853897,1.12344,1.11747,-0.851045,950.161,545.193)">
                <path d="M403.8,160.823C403.731,160.822 403.66,160.818 403.59,160.813C400.8,160.315 399.265,157.262 399.043,154.569C398.718,152.125 399.758,148.985 402.351,148.438C402.728,148.364 403.118,148.398 403.486,148.501C406.608,149.584 408.005,153.41 407.554,156.579C407.423,158.626 405.932,160.851 403.8,160.823L403.8,160.823ZM391.968,160.692C390.233,160.648 388.881,158.827 388.606,157.115C388.026,153.724 389.517,149.51 392.932,148.438C393.252,148.366 393.583,148.359 393.906,148.411C396.214,148.809 397.192,151.485 397.095,153.647C397.026,156.498 395.594,159.795 392.732,160.597C392.471,160.669 392.216,160.699 391.968,160.692L391.968,160.692ZM411.362,151.06C408.36,150.874 406.302,147.775 406.009,144.881C405.611,142.795 406.687,140.002 408.989,139.836C412.198,139.877 414.388,143.425 414.479,146.478C414.682,148.497 413.532,150.949 411.362,151.06L411.362,151.06ZM385.086,150.372C383.809,150.384 382.553,149.593 382.135,148.249C381.022,144.656 383.258,140.105 386.936,139.35C388.471,139.078 389.82,140.298 390.201,141.765C391.008,144.905 389.351,148.549 386.547,149.974C386.09,150.24 385.586,150.368 385.086,150.372L385.086,150.372ZM398.544,143.929C396.04,143.923 393.497,142.609 391.876,140.652C390.125,138.371 388.69,135.717 388.129,132.838C387.447,130.767 388.993,128.382 391.133,128.368C393.709,128.294 395.922,130.123 398.484,130.259C400.656,130.602 402.602,129.433 404.555,128.668C406.219,127.932 408.517,128.213 409.366,130.066C410.034,131.953 409.051,133.966 408.237,135.642C406.575,138.363 404.796,141.223 402.072,142.922C400.98,143.622 399.767,143.932 398.544,143.929L398.544,143.929Z" style="fill:rgb(222,29,141);fill-rule:nonzero;"/>
            </g>
            <g transform="matrix(1.40277,-0.153314,-0.153942,-1.39618,952.932,1052.6)">
                <path d="M403.8,160.823C403.731,160.822 403.66,160.818 403.59,160.813C400.8,160.315 399.265,157.262 399.043,154.569C398.718,152.125 399.758,148.985 402.351,148.438C402.728,148.364 403.118,148.398 403.486,148.501C406.608,149.584 408.005,153.41 407.554,156.579C407.423,158.626 405.932,160.851 403.8,160.823L403.8,160.823ZM391.968,160.692C390.233,160.648 388.881,158.827 388.606,157.115C388.026,153.724 389.517,149.51 392.932,148.438C393.252,148.366 393.583,148.359 393.906,148.411C396.214,148.809 397.192,151.485 397.095,153.647C397.026,156.498 395.594,159.795 392.732,160.597C392.471,160.669 392.216,160.699 391.968,160.692L391.968,160.692ZM411.362,151.06C408.36,150.874 406.302,147.775 406.009,144.881C405.611,142.795 406.687,140.002 408.989,139.836C412.198,139.877 414.388,143.425 414.479,146.478C414.682,148.497 413.532,150.949 411.362,151.06L411.362,151.06ZM385.086,150.372C383.809,150.384 382.553,149.593 382.135,148.249C381.022,144.656 383.258,140.105 386.936,139.35C388.471,139.078 389.82,140.298 390.201,141.765C391.008,144.905 389.351,148.549 386.547,149.974C386.09,150.24 385.586,150.368 385.086,150.372L385.086,150.372ZM398.544,143.929C396.04,143.923 393.497,142.609 391.876,140.652C390.125,138.371 388.69,135.717 388.129,132.838C387.447,130.767 388.993,128.382 391.133,128.368C393.709,128.294 395.922,130.123 398.484,130.259C400.656,130.602 402.602,129.433 404.555,128.668C406.219,127.932 408.517,128.213 409.366,130.066C410.034,131.953 409.051,133.966 408.237,135.642C406.575,138.363 404.796,141.223 402.072,142.922C400.98,143.622 399.767,143.932 398.544,143.929L398.544,143.929Z" style="fill:rgb(222,29,141);fill-rule:nonzero;"/>
            </g>
            <g transform="matrix(0.407657,-1.35095,-1.34514,-0.404503,1458.64,1208.97)">
                <path d="M403.8,160.823C403.731,160.822 403.66,160.818 403.59,160.813C400.8,160.315 399.265,157.262 399.043,154.569C398.718,152.125 399.758,148.985 402.351,148.438C402.728,148.364 403.118,148.398 403.486,148.501C406.608,149.584 408.005,153.41 407.554,156.579C407.423,158.626 405.932,160.851 403.8,160.823L403.8,160.823ZM391.968,160.692C390.233,160.648 388.881,158.827 388.606,157.115C388.026,153.724 389.517,149.51 392.932,148.438C393.252,148.366 393.583,148.359 393.906,148.411C396.214,148.809 397.192,151.485 397.095,153.647C397.026,156.498 395.594,159.795 392.732,160.597C392.471,160.669 392.216,160.699 391.968,160.692L391.968,160.692ZM411.362,151.06C408.36,150.874 406.302,147.775 406.009,144.881C405.611,142.795 406.687,140.002 408.989,139.836C412.198,139.877 414.388,143.425 414.479,146.478C414.682,148.497 413.532,150.949 411.362,151.06L411.362,151.06ZM385.086,150.372C383.809,150.384 382.553,149.593 382.135,148.249C381.022,144.656 383.258,140.105 386.936,139.35C388.471,139.078 389.82,140.298 390.201,141.765C391.008,144.905 389.351,148.549 386.547,149.974C386.09,150.24 385.586,150.368 385.086,150.372L385.086,150.372ZM398.544,143.929C396.04,143.923 393.497,142.609 391.876,140.652C390.125,138.371 388.69,135.717 388.129,132.838C387.447,130.767 388.993,128.382 391.133,128.368C393.709,128.294 395.922,130.123 398.484,130.259C400.656,130.602 402.602,129.433 404.555,128.668C406.219,127.932 408.517,128.213 409.366,130.066C410.034,131.953 409.051,133.966 408.237,135.642C406.575,138.363 404.796,141.223 402.072,142.922C400.98,143.622 399.767,143.932 398.544,143.929L398.544,143.929Z" style="fill:rgb(222,29,141);fill-rule:nonzero;"/>
            </g>
            <g transform="matrix(-0.998725,-0.0504904,0.0504904,-0.998725,1664.58,1630.92)">
                <g transform="matrix(0.150962,1.40301,1.39644,-0.151673,145.58,826.031)">
                    <path d="M97.804,162.823C97.735,162.822 97.664,162.818 97.594,162.813C94.804,162.315 93.269,159.261 93.047,156.569C92.722,154.125 93.762,150.985 96.355,150.438C96.732,150.364 97.122,150.398 97.49,150.501C100.612,151.584 102.009,155.41 101.558,158.579C101.427,160.626 99.936,162.851 97.804,162.823L97.804,162.823ZM85.972,162.692C84.237,162.648 82.885,160.827 82.61,159.115C82.03,155.724 83.521,151.51 86.936,150.438C87.256,150.366 87.587,150.359 87.91,150.41C90.218,150.808 91.196,153.485 91.099,155.647C91.03,158.498 89.598,161.794 86.736,162.596C86.475,162.668 86.22,162.698 85.972,162.692L85.972,162.692ZM105.366,153.06C102.364,152.874 100.306,149.775 100.013,146.881C99.615,144.794 100.691,142.002 102.993,141.836C106.202,141.877 108.392,145.425 108.483,148.478C108.686,150.497 107.536,152.948 105.366,153.06L105.366,153.06ZM79.089,152.372C77.812,152.384 76.556,151.592 76.138,150.249C75.025,146.656 77.261,142.105 80.939,141.35C82.475,141.078 83.824,142.298 84.204,143.765C85.011,146.905 83.354,150.549 80.55,151.974C80.093,152.239 79.589,152.368 79.089,152.372L79.089,152.372ZM92.547,145.929C90.043,145.923 87.5,144.609 85.879,142.652C84.128,140.371 82.693,137.717 82.132,134.838C81.45,132.766 82.996,130.382 85.136,130.368C87.712,130.294 89.925,132.123 92.486,132.259C94.659,132.602 96.605,131.433 98.558,130.668C100.222,129.931 102.52,130.213 103.369,132.066C104.037,133.953 103.054,135.966 102.24,137.642C100.578,140.363 98.799,143.223 96.075,144.922C94.983,145.622 93.77,145.932 92.547,145.929L92.547,145.929L92.547,145.929Z" style="fill:rgb(222,29,141);fill-rule:nonzero;"/>
                </g>
                <g transform="matrix(0.23639,1.39106,1.38454,-0.237503,316.093,629.378)">
                    <path d="M247.8,161.823C247.731,161.822 247.66,161.818 247.59,161.813C244.8,161.315 243.265,158.261 243.043,155.569C242.718,153.125 243.758,149.985 246.351,149.438C246.728,149.364 247.118,149.398 247.486,149.501C250.608,150.584 252.005,154.41 251.554,157.579C251.423,159.626 249.932,161.851 247.8,161.823L247.8,161.823ZM235.968,161.692C234.233,161.648 232.881,159.827 232.606,158.115C232.026,154.724 233.517,150.51 236.932,149.438C237.252,149.366 237.583,149.359 237.906,149.41C240.214,149.808 241.192,152.485 241.095,154.647C241.026,157.498 239.594,160.794 236.732,161.596C236.471,161.668 236.216,161.698 235.968,161.692L235.968,161.692ZM255.362,152.06C252.36,151.874 250.302,148.775 250.009,145.881C249.611,143.794 250.687,141.002 252.989,140.836C256.198,140.877 258.388,144.425 258.479,147.478C258.682,149.497 257.532,151.948 255.362,152.06L255.362,152.06ZM229.086,151.372C227.809,151.384 226.553,150.592 226.135,149.249C225.022,145.656 227.258,141.105 230.936,140.35C232.472,140.078 233.821,141.298 234.201,142.765C235.008,145.905 233.351,149.549 230.547,150.974C230.09,151.239 229.586,151.368 229.086,151.372L229.086,151.372ZM242.544,144.929C240.04,144.923 237.497,143.609 235.876,141.652C234.125,139.371 232.69,136.717 232.129,133.838C231.447,131.766 232.993,129.382 235.133,129.368C237.709,129.294 239.922,131.123 242.483,131.259C244.656,131.602 246.602,130.433 248.555,129.668C250.219,128.931 252.517,129.213 253.366,131.066C254.034,132.953 253.051,134.966 252.237,136.642C250.575,139.363 248.796,142.223 246.072,143.922C244.98,144.622 243.767,144.932 242.544,144.929L242.544,144.929Z" style="fill:rgb(222,29,141);fill-rule:nonzero;"/>
                </g>
                <g transform="matrix(0.143307,1.40382,1.39724,-0.143982,534.914,392.143)">
                    <path d="M403.8,160.823C403.731,160.822 403.66,160.818 403.59,160.813C400.8,160.315 399.265,157.262 399.043,154.569C398.718,152.125 399.758,148.985 402.351,148.438C402.728,148.364 403.118,148.398 403.486,148.501C406.608,149.584 408.005,153.41 407.554,156.579C407.423,158.626 405.932,160.851 403.8,160.823L403.8,160.823ZM391.968,160.692C390.233,160.648 388.881,158.827 388.606,157.115C388.026,153.724 389.517,149.51 392.932,148.438C393.252,148.366 393.583,148.359 393.906,148.411C396.214,148.809 397.192,151.485 397.095,153.647C397.026,156.498 395.594,159.795 392.732,160.597C392.471,160.669 392.216,160.699 391.968,160.692L391.968,160.692ZM411.362,151.06C408.36,150.874 406.302,147.775 406.009,144.881C405.611,142.795 406.687,140.002 408.989,139.836C412.198,139.877 414.388,143.425 414.479,146.478C414.682,148.497 413.532,150.949 411.362,151.06L411.362,151.06ZM385.086,150.372C383.809,150.384 382.553,149.593 382.135,148.249C381.022,144.656 383.258,140.105 386.936,139.35C388.471,139.078 389.82,140.298 390.201,141.765C391.008,144.905 389.351,148.549 386.547,149.974C386.09,150.24 385.586,150.368 385.086,150.372L385.086,150.372ZM398.544,143.929C396.04,143.923 393.497,142.609 391.876,140.652C390.125,138.371 388.69,135.717 388.129,132.838C387.447,130.767 388.993,128.382 391.133,128.368C393.709,128.294 395.922,130.123 398.484,130.259C400.656,130.602 402.602,129.433 404.555,128.668C406.219,127.932 408.517,128.213 409.366,130.066C410.034,131.953 409.051,133.966 408.237,135.642C406.575,138.363 404.796,141.223 402.072,142.922C400.98,143.622 399.767,143.932 398.544,143.929L398.544,143.929Z" style="fill:rgb(222,29,141);fill-rule:nonzero;"/>
                </g>
            </g>
        </g>
    </g>
</svg>
