<?xml version="1.0" encoding="UTF-8" standalone="no"?>
<!DOCTYPE svg PUBLIC "-//W3C//DTD SVG 1.1//EN" "http://www.w3.org/Graphics/SVG/1.1/DTD/svg11.dtd">
<svg width="100%" height="100%" viewBox="0 0 235 60" version="1.1" xmlns="http://www.w3.org/2000/svg" xmlns:xlink="http://www.w3.org/1999/xlink" xml:space="preserve" xmlns:serif="http://www.serif.com/" style="fill-rule:evenodd;clip-rule:evenodd;stroke-linejoin:round;stroke-miterlimit:2;">
    <g transform="matrix(1,0,0,1,-2346.69,-1895.75)">
        <g transform="matrix(2,0,0,2,1822.5,1822.5)">
            <g transform="matrix(0.978049,0,0,0.978049,-307.44,-267.507)">
                <g transform="matrix(0.936125,-2.05158e-17,-0.000888618,-0.931828,269.73,460.815)">
                    <path d="M403.8,160.823C403.731,160.822 403.66,160.818 403.59,160.813C400.8,160.315 399.265,157.262 399.043,154.569C398.718,152.125 399.758,148.985 402.351,148.438C402.728,148.364 403.118,148.398 403.486,148.501C406.608,149.584 408.005,153.41 407.554,156.579C407.423,158.626 405.932,160.851 403.8,160.823L403.8,160.823ZM391.968,160.692C390.233,160.648 388.881,158.827 388.606,157.115C388.026,153.724 389.517,149.51 392.932,148.438C393.252,148.366 393.583,148.359 393.906,148.411C396.214,148.809 397.192,151.485 397.095,153.647C397.026,156.498 395.594,159.795 392.732,160.597C392.471,160.669 392.216,160.699 391.968,160.692L391.968,160.692ZM411.362,151.06C408.36,150.874 406.302,147.775 406.009,144.881C405.611,142.795 406.687,140.002 408.989,139.836C412.198,139.877 414.388,143.425 414.479,146.478C414.682,148.497 413.532,150.949 411.362,151.06L411.362,151.06ZM385.086,150.372C383.809,150.384 382.553,149.593 382.135,148.249C381.022,144.656 383.258,140.105 386.936,139.35C388.471,139.078 389.82,140.298 390.201,141.765C391.008,144.905 389.351,148.549 386.547,149.974C386.09,150.24 385.586,150.368 385.086,150.372L385.086,150.372ZM398.544,143.929C396.04,143.923 393.497,142.609 391.876,140.652C390.125,138.371 388.69,135.717 388.129,132.838C387.447,130.767 388.993,128.382 391.133,128.368C393.709,128.294 395.922,130.123 398.484,130.259C400.656,130.602 402.602,129.433 404.555,128.668C406.219,127.932 408.517,128.213 409.366,130.066C410.034,131.953 409.051,133.966 408.237,135.642C406.575,138.363 404.796,141.223 402.072,142.922C400.98,143.622 399.767,143.932 398.544,143.929L398.544,143.929Z" style="fill:rgb(255,115,92);fill-rule:nonzero;"/>
                </g>
                <g transform="matrix(-0.511222,0,0,0.511222,2015.19,-688.483)">
                    <path d="M2798.34,1998C2798.34,1998 2792.43,1997.66 2783.99,1997.68C2779.71,1997.68 2774.78,1997.78 2769.64,1998.05C2762.43,1998.42 2754.89,1999.08 2748.12,1999.74C2735.96,2000.94 2726.6,2002.28 2726.6,2002.28L2726.6,2002.72C2726.6,2002.72 2735.96,2004.06 2748.12,2005.26C2754.89,2005.92 2762.43,2006.58 2769.64,2006.95C2774.78,2007.22 2779.71,2007.32 2783.99,2007.32C2792.43,2007.34 2798.34,2007 2798.34,2007C2800.83,2007 2802.84,2004.99 2802.84,2002.5C2802.84,2000.01 2800.83,1998 2798.34,1998Z" style="fill:rgb(222,29,141);fill-opacity:0.8;"/>
                </g>
                <g transform="matrix(0.511222,0,0,0.511222,-730.508,-688.483)">
                    <path d="M2798.34,1998C2798.34,1998 2792.43,1997.66 2783.99,1997.68C2779.71,1997.68 2774.78,1997.78 2769.64,1998.05C2762.43,1998.42 2754.89,1999.08 2748.12,1999.74C2735.96,2000.94 2726.6,2002.28 2726.6,2002.28L2726.6,2002.72C2726.6,2002.72 2735.96,2004.06 2748.12,2005.26C2754.89,2005.92 2762.43,2006.58 2769.64,2006.95C2774.78,2007.22 2779.71,2007.32 2783.99,2007.32C2792.43,2007.34 2798.34,2007 2798.34,2007C2800.83,2007 2802.84,2004.99 2802.84,2002.5C2802.84,2000.01 2800.83,1998 2798.34,1998Z" style="fill:rgb(222,29,141);fill-opacity:0.8;"/>
                </g>
            </g>
        </g>
    </g>
</svg>
